M48
INCH,TZ
T1C0.025
T2C0.032
T3C0.032
T4C0.045
%
G90
G05
T1
X50000Y-40000
X51000Y-33000
X51000Y-41500
X51000Y-42500
X51000Y-45500
X53000Y-45500
X61000Y-49500
X62500Y-49500
X63500Y-43000
X67000Y-33000
T2
X49500Y-37400
X49500Y-38400
X49500Y-39400
X49500Y-40400
X53500Y-37400
X53500Y-38400
X53500Y-39400
X53500Y-40400
X58000Y-33100
X59000Y-33100
X60000Y-33100
X61000Y-33100
T3
X50500Y-35500
X51500Y-35500
X52500Y-35500
X56500Y-36500
X56500Y-37500
X56500Y-38500
X56500Y-39500
X56500Y-40500
X56500Y-41500
X56500Y-42500
X56500Y-43500
X56500Y-44500
X56500Y-45500
X56500Y-46500
X56500Y-47500
X57000Y-35500
X58000Y-35500
X59000Y-35500
X60000Y-35500
X61000Y-35500
X62000Y-35500
X62500Y-36500
X62500Y-37500
X62500Y-38500
X62500Y-39500
X62500Y-40500
X62500Y-41500
X62500Y-42500
X62500Y-43500
X62500Y-44500
X62500Y-45500
X62500Y-46500
X62500Y-47500
X64500Y-46500
X67500Y-46500
T4
X65000Y-43500
X66000Y-43500
X67000Y-43500
T0
M30
