G04 (created by PCBNEW-RS274X (2012-apr-16-27)-stable) date Tue 24 Jun 2014 04:12:54 AM EDT*
G01*
G70*
G90*
%MOIN*%
G04 Gerber Fmt 3.4, Leading zero omitted, Abs format*
%FSLAX34Y34*%
G04 APERTURE LIST*
%ADD10C,0.006000*%
%ADD11C,0.047200*%
%ADD12C,0.070000*%
%ADD13R,0.070000X0.070000*%
%ADD14C,0.060000*%
%ADD15C,0.055000*%
%ADD16R,0.055000X0.055000*%
%ADD17C,0.035000*%
%ADD18C,0.008000*%
%ADD19C,0.010000*%
G04 APERTURE END LIST*
G54D10*
G54D11*
X53500Y-40400D03*
X53500Y-39400D03*
X53500Y-38400D03*
X53500Y-37400D03*
X49500Y-37400D03*
X49500Y-38400D03*
X49500Y-39400D03*
X49500Y-40400D03*
G54D12*
X65000Y-43500D03*
G54D13*
X66000Y-43500D03*
G54D12*
X67000Y-43500D03*
G54D14*
X56500Y-47500D03*
X62500Y-43500D03*
X62500Y-42500D03*
X56500Y-42500D03*
X56500Y-43500D03*
X62500Y-46500D03*
X62500Y-45500D03*
X62500Y-44500D03*
X56500Y-44500D03*
X56500Y-45500D03*
X56500Y-46500D03*
X62500Y-41500D03*
X62500Y-40500D03*
X62500Y-39500D03*
X56500Y-39500D03*
X56500Y-40500D03*
X56500Y-41500D03*
X62500Y-38500D03*
X62500Y-37500D03*
X62500Y-36500D03*
X57000Y-35500D03*
X58000Y-35500D03*
X59000Y-35500D03*
X60000Y-35500D03*
X61000Y-35500D03*
X62000Y-35500D03*
X56500Y-36500D03*
X56500Y-37500D03*
X56500Y-38500D03*
X62500Y-47500D03*
G54D15*
X64500Y-46500D03*
X67500Y-46500D03*
G54D16*
X50500Y-35500D03*
G54D15*
X51500Y-35500D03*
X52500Y-35500D03*
G54D11*
X58000Y-33100D03*
X59000Y-33100D03*
X60000Y-33100D03*
X61000Y-33100D03*
G54D17*
X67000Y-33000D03*
X51000Y-45500D03*
X51000Y-33000D03*
X50000Y-40000D03*
X51000Y-42500D03*
X61000Y-49500D03*
X51000Y-41500D03*
X63500Y-43000D03*
X62500Y-49500D03*
X53000Y-45500D03*
G54D18*
X51500Y-35500D02*
X51500Y-33000D01*
X51500Y-33000D02*
X51000Y-33000D01*
X49500Y-44000D02*
X51000Y-44000D01*
X49500Y-40400D02*
X49500Y-44000D01*
X52600Y-38400D02*
X53500Y-38400D01*
X52500Y-40000D02*
X52500Y-38500D01*
X50000Y-40000D02*
X52500Y-40000D01*
X52500Y-38500D02*
X52600Y-38400D01*
X51000Y-44000D02*
X51000Y-45500D01*
X61000Y-44500D02*
X62500Y-44500D01*
X51000Y-41500D02*
X51000Y-42500D01*
X61000Y-49500D02*
X61000Y-44500D01*
X55500Y-34500D02*
X55500Y-39500D01*
X59000Y-34500D02*
X59000Y-33100D01*
X55500Y-39500D02*
X56500Y-39500D01*
X59000Y-34500D02*
X55500Y-34500D01*
X63500Y-43000D02*
X63500Y-34500D01*
X63500Y-34500D02*
X59000Y-34500D01*
X60000Y-32000D02*
X62500Y-32000D01*
X64000Y-33500D02*
X64500Y-34000D01*
X64000Y-43500D02*
X62500Y-43500D01*
X63000Y-33500D02*
X64000Y-33500D01*
X60000Y-33100D02*
X60000Y-32000D01*
X62500Y-32000D02*
X62500Y-33000D01*
X62500Y-33000D02*
X63000Y-33500D01*
X64500Y-34000D02*
X64500Y-43000D01*
X64500Y-43000D02*
X64000Y-43500D01*
X62500Y-49500D02*
X62500Y-47500D01*
X53500Y-39400D02*
X54400Y-39400D01*
X53000Y-41500D02*
X53000Y-45500D01*
X54500Y-41500D02*
X53000Y-41500D01*
X54500Y-39500D02*
X54500Y-41500D01*
X54400Y-39400D02*
X54500Y-39500D01*
G54D10*
G36*
X70674Y-39481D02*
X70451Y-41767D01*
X69792Y-43949D01*
X68721Y-45961D01*
X68024Y-46816D01*
X68024Y-46449D01*
X68004Y-46348D01*
X67965Y-46253D01*
X67908Y-46168D01*
X67836Y-46095D01*
X67751Y-46037D01*
X67656Y-45997D01*
X67599Y-45985D01*
X67599Y-43441D01*
X67576Y-43326D01*
X67531Y-43217D01*
X67466Y-43119D01*
X67425Y-43078D01*
X67425Y-32958D01*
X67409Y-32876D01*
X67377Y-32799D01*
X67331Y-32730D01*
X67272Y-32671D01*
X67203Y-32624D01*
X67126Y-32592D01*
X67044Y-32575D01*
X66961Y-32575D01*
X66879Y-32590D01*
X66802Y-32622D01*
X66732Y-32667D01*
X66673Y-32726D01*
X66626Y-32795D01*
X66593Y-32871D01*
X66576Y-32953D01*
X66574Y-33036D01*
X66590Y-33118D01*
X66620Y-33196D01*
X66666Y-33266D01*
X66723Y-33325D01*
X66792Y-33373D01*
X66868Y-33406D01*
X66950Y-33424D01*
X67033Y-33426D01*
X67115Y-33411D01*
X67193Y-33381D01*
X67263Y-33336D01*
X67324Y-33279D01*
X67371Y-33211D01*
X67405Y-33134D01*
X67424Y-33053D01*
X67425Y-32958D01*
X67425Y-43078D01*
X67383Y-43036D01*
X67286Y-42970D01*
X67178Y-42925D01*
X67063Y-42901D01*
X66945Y-42901D01*
X66830Y-42923D01*
X66721Y-42967D01*
X66623Y-43031D01*
X66586Y-43066D01*
X66572Y-43033D01*
X66545Y-42992D01*
X66510Y-42957D01*
X66470Y-42929D01*
X66425Y-42910D01*
X66377Y-42900D01*
X66328Y-42900D01*
X65626Y-42900D01*
X65578Y-42909D01*
X65533Y-42928D01*
X65492Y-42955D01*
X65457Y-42990D01*
X65429Y-43030D01*
X65413Y-43066D01*
X65383Y-43036D01*
X65286Y-42970D01*
X65178Y-42925D01*
X65063Y-42901D01*
X64945Y-42901D01*
X64830Y-42923D01*
X64790Y-42939D01*
X64790Y-34003D01*
X64790Y-34000D01*
X64788Y-33985D01*
X64785Y-33947D01*
X64784Y-33944D01*
X64769Y-33892D01*
X64768Y-33891D01*
X64768Y-33889D01*
X64743Y-33842D01*
X64742Y-33840D01*
X64720Y-33814D01*
X64708Y-33798D01*
X64706Y-33796D01*
X64705Y-33795D01*
X64207Y-33297D01*
X64205Y-33295D01*
X64197Y-33288D01*
X64164Y-33261D01*
X64114Y-33233D01*
X64111Y-33232D01*
X64106Y-33230D01*
X64060Y-33216D01*
X64004Y-33210D01*
X64001Y-33210D01*
X64000Y-33210D01*
X63120Y-33210D01*
X62790Y-32880D01*
X62790Y-32002D01*
X62790Y-32000D01*
X62788Y-31990D01*
X62785Y-31946D01*
X62784Y-31944D01*
X62769Y-31891D01*
X62768Y-31889D01*
X62766Y-31885D01*
X62743Y-31841D01*
X62742Y-31840D01*
X62707Y-31797D01*
X62706Y-31796D01*
X62697Y-31789D01*
X62664Y-31761D01*
X62662Y-31760D01*
X62614Y-31733D01*
X62560Y-31716D01*
X62504Y-31710D01*
X62502Y-31710D01*
X62500Y-31710D01*
X60002Y-31710D01*
X60000Y-31710D01*
X59990Y-31711D01*
X59946Y-31715D01*
X59891Y-31731D01*
X59889Y-31731D01*
X59889Y-31732D01*
X59885Y-31734D01*
X59841Y-31757D01*
X59797Y-31793D01*
X59796Y-31793D01*
X59796Y-31794D01*
X59789Y-31802D01*
X59761Y-31836D01*
X59733Y-31886D01*
X59716Y-31940D01*
X59710Y-31996D01*
X59710Y-31998D01*
X59710Y-32000D01*
X59710Y-32709D01*
X59694Y-32720D01*
X59626Y-32786D01*
X59572Y-32865D01*
X59534Y-32953D01*
X59515Y-33046D01*
X59513Y-33141D01*
X59531Y-33235D01*
X59566Y-33324D01*
X59617Y-33404D01*
X59684Y-33472D01*
X59762Y-33526D01*
X59849Y-33565D01*
X59943Y-33585D01*
X60038Y-33587D01*
X60132Y-33570D01*
X60221Y-33536D01*
X60301Y-33485D01*
X60370Y-33419D01*
X60425Y-33341D01*
X60464Y-33254D01*
X60485Y-33161D01*
X60486Y-33052D01*
X60467Y-32959D01*
X60431Y-32870D01*
X60378Y-32791D01*
X60311Y-32723D01*
X60290Y-32708D01*
X60290Y-32290D01*
X62210Y-32290D01*
X62210Y-32997D01*
X62210Y-33000D01*
X62211Y-33015D01*
X62215Y-33053D01*
X62216Y-33056D01*
X62231Y-33108D01*
X62232Y-33111D01*
X62257Y-33158D01*
X62258Y-33160D01*
X62279Y-33186D01*
X62292Y-33202D01*
X62294Y-33204D01*
X62295Y-33205D01*
X62793Y-33703D01*
X62795Y-33705D01*
X62802Y-33711D01*
X62836Y-33739D01*
X62839Y-33740D01*
X62886Y-33767D01*
X62888Y-33767D01*
X62889Y-33768D01*
X62893Y-33769D01*
X62940Y-33784D01*
X62942Y-33784D01*
X62996Y-33790D01*
X62999Y-33790D01*
X63000Y-33790D01*
X63880Y-33790D01*
X64210Y-34120D01*
X64210Y-42880D01*
X63880Y-43210D01*
X63871Y-43210D01*
X63905Y-43134D01*
X63924Y-43053D01*
X63925Y-42958D01*
X63909Y-42876D01*
X63877Y-42799D01*
X63831Y-42730D01*
X63790Y-42689D01*
X63790Y-34502D01*
X63790Y-34500D01*
X63788Y-34490D01*
X63785Y-34446D01*
X63784Y-34444D01*
X63769Y-34391D01*
X63768Y-34389D01*
X63766Y-34385D01*
X63743Y-34341D01*
X63742Y-34340D01*
X63707Y-34297D01*
X63706Y-34296D01*
X63697Y-34289D01*
X63664Y-34261D01*
X63662Y-34260D01*
X63614Y-34233D01*
X63560Y-34216D01*
X63504Y-34210D01*
X63502Y-34210D01*
X63500Y-34210D01*
X61486Y-34210D01*
X61486Y-33052D01*
X61467Y-32959D01*
X61431Y-32870D01*
X61378Y-32791D01*
X61311Y-32723D01*
X61232Y-32670D01*
X61144Y-32633D01*
X61051Y-32614D01*
X60955Y-32614D01*
X60862Y-32632D01*
X60773Y-32667D01*
X60694Y-32720D01*
X60626Y-32786D01*
X60572Y-32865D01*
X60534Y-32953D01*
X60515Y-33046D01*
X60513Y-33141D01*
X60531Y-33235D01*
X60566Y-33324D01*
X60617Y-33404D01*
X60684Y-33472D01*
X60762Y-33526D01*
X60849Y-33565D01*
X60943Y-33585D01*
X61038Y-33587D01*
X61132Y-33570D01*
X61221Y-33536D01*
X61301Y-33485D01*
X61370Y-33419D01*
X61425Y-33341D01*
X61464Y-33254D01*
X61485Y-33161D01*
X61486Y-33052D01*
X61486Y-34210D01*
X59290Y-34210D01*
X59290Y-33492D01*
X59301Y-33485D01*
X59370Y-33419D01*
X59425Y-33341D01*
X59464Y-33254D01*
X59485Y-33161D01*
X59486Y-33052D01*
X59467Y-32959D01*
X59431Y-32870D01*
X59378Y-32791D01*
X59311Y-32723D01*
X59232Y-32670D01*
X59144Y-32633D01*
X59051Y-32614D01*
X58955Y-32614D01*
X58862Y-32632D01*
X58773Y-32667D01*
X58694Y-32720D01*
X58626Y-32786D01*
X58572Y-32865D01*
X58534Y-32953D01*
X58515Y-33046D01*
X58513Y-33141D01*
X58531Y-33235D01*
X58566Y-33324D01*
X58617Y-33404D01*
X58684Y-33472D01*
X58710Y-33490D01*
X58710Y-34210D01*
X58486Y-34210D01*
X58486Y-33052D01*
X58467Y-32959D01*
X58431Y-32870D01*
X58378Y-32791D01*
X58311Y-32723D01*
X58232Y-32670D01*
X58144Y-32633D01*
X58051Y-32614D01*
X57955Y-32614D01*
X57862Y-32632D01*
X57773Y-32667D01*
X57694Y-32720D01*
X57626Y-32786D01*
X57572Y-32865D01*
X57534Y-32953D01*
X57515Y-33046D01*
X57513Y-33141D01*
X57531Y-33235D01*
X57566Y-33324D01*
X57617Y-33404D01*
X57684Y-33472D01*
X57762Y-33526D01*
X57849Y-33565D01*
X57943Y-33585D01*
X58038Y-33587D01*
X58132Y-33570D01*
X58221Y-33536D01*
X58301Y-33485D01*
X58370Y-33419D01*
X58425Y-33341D01*
X58464Y-33254D01*
X58485Y-33161D01*
X58486Y-33052D01*
X58486Y-34210D01*
X55502Y-34210D01*
X55500Y-34210D01*
X55490Y-34211D01*
X55446Y-34215D01*
X55391Y-34231D01*
X55389Y-34231D01*
X55389Y-34232D01*
X55385Y-34234D01*
X55341Y-34257D01*
X55297Y-34293D01*
X55296Y-34293D01*
X55296Y-34294D01*
X55289Y-34302D01*
X55261Y-34336D01*
X55233Y-34386D01*
X55216Y-34440D01*
X55210Y-34496D01*
X55210Y-34498D01*
X55210Y-34500D01*
X55210Y-39498D01*
X55210Y-39500D01*
X55211Y-39510D01*
X55215Y-39554D01*
X55231Y-39609D01*
X55231Y-39610D01*
X55232Y-39611D01*
X55234Y-39614D01*
X55257Y-39659D01*
X55258Y-39660D01*
X55293Y-39703D01*
X55294Y-39704D01*
X55302Y-39711D01*
X55336Y-39739D01*
X55338Y-39740D01*
X55386Y-39767D01*
X55388Y-39767D01*
X55440Y-39784D01*
X55442Y-39784D01*
X55496Y-39790D01*
X55498Y-39790D01*
X55500Y-39790D01*
X56033Y-39790D01*
X56068Y-39843D01*
X56143Y-39920D01*
X56231Y-39982D01*
X56271Y-39999D01*
X56244Y-40011D01*
X56154Y-40070D01*
X56077Y-40146D01*
X56017Y-40234D01*
X55974Y-40333D01*
X55952Y-40439D01*
X55950Y-40546D01*
X55970Y-40652D01*
X56009Y-40752D01*
X56068Y-40843D01*
X56143Y-40920D01*
X56231Y-40982D01*
X56271Y-40999D01*
X56244Y-41011D01*
X56154Y-41070D01*
X56077Y-41146D01*
X56017Y-41234D01*
X55974Y-41333D01*
X55952Y-41439D01*
X55950Y-41546D01*
X55970Y-41652D01*
X56009Y-41752D01*
X56068Y-41843D01*
X56143Y-41920D01*
X56231Y-41982D01*
X56271Y-41999D01*
X56244Y-42011D01*
X56154Y-42070D01*
X56077Y-42146D01*
X56017Y-42234D01*
X55974Y-42333D01*
X55952Y-42439D01*
X55950Y-42546D01*
X55970Y-42652D01*
X56009Y-42752D01*
X56068Y-42843D01*
X56143Y-42920D01*
X56231Y-42982D01*
X56271Y-42999D01*
X56244Y-43011D01*
X56154Y-43070D01*
X56077Y-43146D01*
X56017Y-43234D01*
X55974Y-43333D01*
X55952Y-43439D01*
X55950Y-43546D01*
X55970Y-43652D01*
X56009Y-43752D01*
X56068Y-43843D01*
X56143Y-43920D01*
X56231Y-43982D01*
X56271Y-43999D01*
X56244Y-44011D01*
X56154Y-44070D01*
X56077Y-44146D01*
X56017Y-44234D01*
X55974Y-44333D01*
X55952Y-44439D01*
X55950Y-44546D01*
X55970Y-44652D01*
X56009Y-44752D01*
X56068Y-44843D01*
X56143Y-44920D01*
X56231Y-44982D01*
X56271Y-44999D01*
X56244Y-45011D01*
X56154Y-45070D01*
X56077Y-45146D01*
X56017Y-45234D01*
X55974Y-45333D01*
X55952Y-45439D01*
X55950Y-45546D01*
X55970Y-45652D01*
X56009Y-45752D01*
X56068Y-45843D01*
X56143Y-45920D01*
X56231Y-45982D01*
X56271Y-45999D01*
X56244Y-46011D01*
X56154Y-46070D01*
X56077Y-46146D01*
X56017Y-46234D01*
X55974Y-46333D01*
X55952Y-46439D01*
X55950Y-46546D01*
X55970Y-46652D01*
X56009Y-46752D01*
X56068Y-46843D01*
X56143Y-46920D01*
X56231Y-46982D01*
X56271Y-46999D01*
X56244Y-47011D01*
X56154Y-47070D01*
X56077Y-47146D01*
X56017Y-47234D01*
X55974Y-47333D01*
X55952Y-47439D01*
X55950Y-47546D01*
X55970Y-47652D01*
X56009Y-47752D01*
X56068Y-47843D01*
X56143Y-47920D01*
X56231Y-47982D01*
X56330Y-48025D01*
X56435Y-48048D01*
X56542Y-48050D01*
X56649Y-48031D01*
X56749Y-47992D01*
X56840Y-47935D01*
X56918Y-47860D01*
X56980Y-47772D01*
X57024Y-47674D01*
X57047Y-47569D01*
X57049Y-47446D01*
X57028Y-47340D01*
X56987Y-47241D01*
X56927Y-47151D01*
X56852Y-47075D01*
X56762Y-47015D01*
X56727Y-47000D01*
X56749Y-46992D01*
X56840Y-46935D01*
X56918Y-46860D01*
X56980Y-46772D01*
X57024Y-46674D01*
X57047Y-46569D01*
X57049Y-46446D01*
X57028Y-46340D01*
X56987Y-46241D01*
X56927Y-46151D01*
X56852Y-46075D01*
X56762Y-46015D01*
X56727Y-46000D01*
X56749Y-45992D01*
X56840Y-45935D01*
X56918Y-45860D01*
X56980Y-45772D01*
X57024Y-45674D01*
X57047Y-45569D01*
X57049Y-45446D01*
X57028Y-45340D01*
X56987Y-45241D01*
X56927Y-45151D01*
X56852Y-45075D01*
X56762Y-45015D01*
X56727Y-45000D01*
X56749Y-44992D01*
X56840Y-44935D01*
X56918Y-44860D01*
X56980Y-44772D01*
X57024Y-44674D01*
X57047Y-44569D01*
X57049Y-44446D01*
X57028Y-44340D01*
X56987Y-44241D01*
X56927Y-44151D01*
X56852Y-44075D01*
X56762Y-44015D01*
X56727Y-44000D01*
X56749Y-43992D01*
X56840Y-43935D01*
X56918Y-43860D01*
X56980Y-43772D01*
X57024Y-43674D01*
X57047Y-43569D01*
X57049Y-43446D01*
X57028Y-43340D01*
X56987Y-43241D01*
X56927Y-43151D01*
X56852Y-43075D01*
X56762Y-43015D01*
X56727Y-43000D01*
X56749Y-42992D01*
X56840Y-42935D01*
X56918Y-42860D01*
X56980Y-42772D01*
X57024Y-42674D01*
X57047Y-42569D01*
X57049Y-42446D01*
X57028Y-42340D01*
X56987Y-42241D01*
X56927Y-42151D01*
X56852Y-42075D01*
X56762Y-42015D01*
X56727Y-42000D01*
X56749Y-41992D01*
X56840Y-41935D01*
X56918Y-41860D01*
X56980Y-41772D01*
X57024Y-41674D01*
X57047Y-41569D01*
X57049Y-41446D01*
X57028Y-41340D01*
X56987Y-41241D01*
X56927Y-41151D01*
X56852Y-41075D01*
X56762Y-41015D01*
X56727Y-41000D01*
X56749Y-40992D01*
X56840Y-40935D01*
X56918Y-40860D01*
X56980Y-40772D01*
X57024Y-40674D01*
X57047Y-40569D01*
X57049Y-40446D01*
X57028Y-40340D01*
X56987Y-40241D01*
X56927Y-40151D01*
X56852Y-40075D01*
X56762Y-40015D01*
X56727Y-40000D01*
X56749Y-39992D01*
X56840Y-39935D01*
X56918Y-39860D01*
X56980Y-39772D01*
X57024Y-39674D01*
X57047Y-39569D01*
X57049Y-39446D01*
X57028Y-39340D01*
X56987Y-39241D01*
X56927Y-39151D01*
X56852Y-39075D01*
X56762Y-39015D01*
X56727Y-39000D01*
X56749Y-38992D01*
X56840Y-38935D01*
X56918Y-38860D01*
X56980Y-38772D01*
X57024Y-38674D01*
X57047Y-38569D01*
X57049Y-38446D01*
X57028Y-38340D01*
X56987Y-38241D01*
X56927Y-38151D01*
X56852Y-38075D01*
X56762Y-38015D01*
X56727Y-38000D01*
X56749Y-37992D01*
X56840Y-37935D01*
X56918Y-37860D01*
X56980Y-37772D01*
X57024Y-37674D01*
X57047Y-37569D01*
X57049Y-37446D01*
X57028Y-37340D01*
X56987Y-37241D01*
X56927Y-37151D01*
X56852Y-37075D01*
X56762Y-37015D01*
X56727Y-37000D01*
X56749Y-36992D01*
X56840Y-36935D01*
X56918Y-36860D01*
X56980Y-36772D01*
X57024Y-36674D01*
X57047Y-36569D01*
X57049Y-36446D01*
X57028Y-36340D01*
X56987Y-36241D01*
X56927Y-36151D01*
X56852Y-36075D01*
X56762Y-36015D01*
X56663Y-35973D01*
X56557Y-35951D01*
X56450Y-35951D01*
X56344Y-35971D01*
X56244Y-36011D01*
X56154Y-36070D01*
X56077Y-36146D01*
X56017Y-36234D01*
X55974Y-36333D01*
X55952Y-36439D01*
X55950Y-36546D01*
X55970Y-36652D01*
X56009Y-36752D01*
X56068Y-36843D01*
X56143Y-36920D01*
X56231Y-36982D01*
X56271Y-36999D01*
X56244Y-37011D01*
X56154Y-37070D01*
X56077Y-37146D01*
X56017Y-37234D01*
X55974Y-37333D01*
X55952Y-37439D01*
X55950Y-37546D01*
X55970Y-37652D01*
X56009Y-37752D01*
X56068Y-37843D01*
X56143Y-37920D01*
X56231Y-37982D01*
X56271Y-37999D01*
X56244Y-38011D01*
X56154Y-38070D01*
X56077Y-38146D01*
X56017Y-38234D01*
X55974Y-38333D01*
X55952Y-38439D01*
X55950Y-38546D01*
X55970Y-38652D01*
X56009Y-38752D01*
X56068Y-38843D01*
X56143Y-38920D01*
X56231Y-38982D01*
X56271Y-38999D01*
X56244Y-39011D01*
X56154Y-39070D01*
X56077Y-39146D01*
X56033Y-39210D01*
X55790Y-39210D01*
X55790Y-34790D01*
X58996Y-34790D01*
X58998Y-34790D01*
X59000Y-34790D01*
X63210Y-34790D01*
X63210Y-42689D01*
X63173Y-42726D01*
X63126Y-42795D01*
X63093Y-42871D01*
X63076Y-42953D01*
X63074Y-43036D01*
X63090Y-43118D01*
X63120Y-43196D01*
X63129Y-43210D01*
X62966Y-43210D01*
X62927Y-43151D01*
X62852Y-43075D01*
X62762Y-43015D01*
X62727Y-43000D01*
X62749Y-42992D01*
X62840Y-42935D01*
X62918Y-42860D01*
X62980Y-42772D01*
X63024Y-42674D01*
X63047Y-42569D01*
X63049Y-42446D01*
X63028Y-42340D01*
X62987Y-42241D01*
X62927Y-42151D01*
X62852Y-42075D01*
X62762Y-42015D01*
X62727Y-42000D01*
X62749Y-41992D01*
X62840Y-41935D01*
X62918Y-41860D01*
X62980Y-41772D01*
X63024Y-41674D01*
X63047Y-41569D01*
X63049Y-41446D01*
X63028Y-41340D01*
X62987Y-41241D01*
X62927Y-41151D01*
X62852Y-41075D01*
X62762Y-41015D01*
X62727Y-41000D01*
X62749Y-40992D01*
X62840Y-40935D01*
X62918Y-40860D01*
X62980Y-40772D01*
X63024Y-40674D01*
X63047Y-40569D01*
X63049Y-40446D01*
X63028Y-40340D01*
X62987Y-40241D01*
X62927Y-40151D01*
X62852Y-40075D01*
X62762Y-40015D01*
X62727Y-40000D01*
X62749Y-39992D01*
X62840Y-39935D01*
X62918Y-39860D01*
X62980Y-39772D01*
X63024Y-39674D01*
X63047Y-39569D01*
X63049Y-39446D01*
X63028Y-39340D01*
X62987Y-39241D01*
X62927Y-39151D01*
X62852Y-39075D01*
X62762Y-39015D01*
X62727Y-39000D01*
X62749Y-38992D01*
X62840Y-38935D01*
X62918Y-38860D01*
X62980Y-38772D01*
X63024Y-38674D01*
X63047Y-38569D01*
X63049Y-38446D01*
X63049Y-37473D01*
X63049Y-36446D01*
X63028Y-36340D01*
X62987Y-36241D01*
X62927Y-36151D01*
X62852Y-36075D01*
X62762Y-36015D01*
X62663Y-35973D01*
X62557Y-35951D01*
X62549Y-35951D01*
X62549Y-35446D01*
X62528Y-35340D01*
X62487Y-35241D01*
X62427Y-35151D01*
X62352Y-35075D01*
X62262Y-35015D01*
X62163Y-34973D01*
X62057Y-34951D01*
X61950Y-34951D01*
X61844Y-34971D01*
X61744Y-35011D01*
X61654Y-35070D01*
X61577Y-35146D01*
X61517Y-35234D01*
X61500Y-35272D01*
X61487Y-35241D01*
X61427Y-35151D01*
X61352Y-35075D01*
X61262Y-35015D01*
X61163Y-34973D01*
X61057Y-34951D01*
X60950Y-34951D01*
X60844Y-34971D01*
X60744Y-35011D01*
X60654Y-35070D01*
X60577Y-35146D01*
X60517Y-35234D01*
X60500Y-35272D01*
X60487Y-35241D01*
X60427Y-35151D01*
X60352Y-35075D01*
X60262Y-35015D01*
X60163Y-34973D01*
X60057Y-34951D01*
X59950Y-34951D01*
X59844Y-34971D01*
X59744Y-35011D01*
X59654Y-35070D01*
X59577Y-35146D01*
X59517Y-35234D01*
X59500Y-35272D01*
X59487Y-35241D01*
X59427Y-35151D01*
X59352Y-35075D01*
X59262Y-35015D01*
X59163Y-34973D01*
X59057Y-34951D01*
X58950Y-34951D01*
X58844Y-34971D01*
X58744Y-35011D01*
X58654Y-35070D01*
X58577Y-35146D01*
X58517Y-35234D01*
X58500Y-35272D01*
X58487Y-35241D01*
X58427Y-35151D01*
X58352Y-35075D01*
X58262Y-35015D01*
X58163Y-34973D01*
X58057Y-34951D01*
X57950Y-34951D01*
X57844Y-34971D01*
X57744Y-35011D01*
X57654Y-35070D01*
X57577Y-35146D01*
X57517Y-35234D01*
X57500Y-35272D01*
X57487Y-35241D01*
X57427Y-35151D01*
X57352Y-35075D01*
X57262Y-35015D01*
X57163Y-34973D01*
X57057Y-34951D01*
X56950Y-34951D01*
X56844Y-34971D01*
X56744Y-35011D01*
X56654Y-35070D01*
X56577Y-35146D01*
X56517Y-35234D01*
X56474Y-35333D01*
X56452Y-35439D01*
X56450Y-35546D01*
X56470Y-35652D01*
X56509Y-35752D01*
X56568Y-35843D01*
X56643Y-35920D01*
X56731Y-35982D01*
X56830Y-36025D01*
X56935Y-36048D01*
X57042Y-36050D01*
X57149Y-36031D01*
X57249Y-35992D01*
X57340Y-35935D01*
X57418Y-35860D01*
X57480Y-35772D01*
X57499Y-35728D01*
X57509Y-35752D01*
X57568Y-35843D01*
X57643Y-35920D01*
X57731Y-35982D01*
X57830Y-36025D01*
X57935Y-36048D01*
X58042Y-36050D01*
X58149Y-36031D01*
X58249Y-35992D01*
X58340Y-35935D01*
X58418Y-35860D01*
X58480Y-35772D01*
X58499Y-35728D01*
X58509Y-35752D01*
X58568Y-35843D01*
X58643Y-35920D01*
X58731Y-35982D01*
X58830Y-36025D01*
X58935Y-36048D01*
X59042Y-36050D01*
X59149Y-36031D01*
X59249Y-35992D01*
X59340Y-35935D01*
X59418Y-35860D01*
X59480Y-35772D01*
X59499Y-35728D01*
X59509Y-35752D01*
X59568Y-35843D01*
X59643Y-35920D01*
X59731Y-35982D01*
X59830Y-36025D01*
X59935Y-36048D01*
X60042Y-36050D01*
X60149Y-36031D01*
X60249Y-35992D01*
X60340Y-35935D01*
X60418Y-35860D01*
X60480Y-35772D01*
X60499Y-35728D01*
X60509Y-35752D01*
X60568Y-35843D01*
X60643Y-35920D01*
X60731Y-35982D01*
X60830Y-36025D01*
X60935Y-36048D01*
X61042Y-36050D01*
X61149Y-36031D01*
X61249Y-35992D01*
X61340Y-35935D01*
X61418Y-35860D01*
X61480Y-35772D01*
X61499Y-35728D01*
X61509Y-35752D01*
X61568Y-35843D01*
X61643Y-35920D01*
X61731Y-35982D01*
X61830Y-36025D01*
X61935Y-36048D01*
X62042Y-36050D01*
X62149Y-36031D01*
X62249Y-35992D01*
X62340Y-35935D01*
X62418Y-35860D01*
X62480Y-35772D01*
X62524Y-35674D01*
X62547Y-35569D01*
X62549Y-35446D01*
X62549Y-35951D01*
X62450Y-35951D01*
X62344Y-35971D01*
X62244Y-36011D01*
X62154Y-36070D01*
X62077Y-36146D01*
X62017Y-36234D01*
X61974Y-36333D01*
X61952Y-36439D01*
X61950Y-36546D01*
X61970Y-36652D01*
X62009Y-36752D01*
X62068Y-36843D01*
X62143Y-36920D01*
X62231Y-36982D01*
X62273Y-37000D01*
X62266Y-37003D01*
X62219Y-37028D01*
X62192Y-37122D01*
X62500Y-37429D01*
X62808Y-37122D01*
X62781Y-37028D01*
X62724Y-37001D01*
X62749Y-36992D01*
X62840Y-36935D01*
X62918Y-36860D01*
X62980Y-36772D01*
X63024Y-36674D01*
X63047Y-36569D01*
X63049Y-36446D01*
X63049Y-37473D01*
X63033Y-37367D01*
X62997Y-37266D01*
X62972Y-37219D01*
X62878Y-37192D01*
X62571Y-37500D01*
X62878Y-37808D01*
X62972Y-37781D01*
X63018Y-37684D01*
X63044Y-37580D01*
X63049Y-37473D01*
X63049Y-38446D01*
X63028Y-38340D01*
X62987Y-38241D01*
X62927Y-38151D01*
X62852Y-38075D01*
X62762Y-38015D01*
X62726Y-37999D01*
X62734Y-37997D01*
X62781Y-37972D01*
X62808Y-37878D01*
X62500Y-37571D01*
X62429Y-37641D01*
X62429Y-37500D01*
X62122Y-37192D01*
X62028Y-37219D01*
X61982Y-37316D01*
X61956Y-37420D01*
X61951Y-37527D01*
X61967Y-37633D01*
X62003Y-37734D01*
X62028Y-37781D01*
X62122Y-37808D01*
X62429Y-37500D01*
X62429Y-37641D01*
X62192Y-37878D01*
X62219Y-37972D01*
X62275Y-37998D01*
X62244Y-38011D01*
X62154Y-38070D01*
X62077Y-38146D01*
X62017Y-38234D01*
X61974Y-38333D01*
X61952Y-38439D01*
X61950Y-38546D01*
X61970Y-38652D01*
X62009Y-38752D01*
X62068Y-38843D01*
X62143Y-38920D01*
X62231Y-38982D01*
X62271Y-38999D01*
X62244Y-39011D01*
X62154Y-39070D01*
X62077Y-39146D01*
X62017Y-39234D01*
X61974Y-39333D01*
X61952Y-39439D01*
X61950Y-39546D01*
X61970Y-39652D01*
X62009Y-39752D01*
X62068Y-39843D01*
X62143Y-39920D01*
X62231Y-39982D01*
X62271Y-39999D01*
X62244Y-40011D01*
X62154Y-40070D01*
X62077Y-40146D01*
X62017Y-40234D01*
X61974Y-40333D01*
X61952Y-40439D01*
X61950Y-40546D01*
X61970Y-40652D01*
X62009Y-40752D01*
X62068Y-40843D01*
X62143Y-40920D01*
X62231Y-40982D01*
X62271Y-40999D01*
X62244Y-41011D01*
X62154Y-41070D01*
X62077Y-41146D01*
X62017Y-41234D01*
X61974Y-41333D01*
X61952Y-41439D01*
X61950Y-41546D01*
X61970Y-41652D01*
X62009Y-41752D01*
X62068Y-41843D01*
X62143Y-41920D01*
X62231Y-41982D01*
X62271Y-41999D01*
X62244Y-42011D01*
X62154Y-42070D01*
X62077Y-42146D01*
X62017Y-42234D01*
X61974Y-42333D01*
X61952Y-42439D01*
X61950Y-42546D01*
X61970Y-42652D01*
X62009Y-42752D01*
X62068Y-42843D01*
X62143Y-42920D01*
X62231Y-42982D01*
X62271Y-42999D01*
X62244Y-43011D01*
X62154Y-43070D01*
X62077Y-43146D01*
X62017Y-43234D01*
X61974Y-43333D01*
X61952Y-43439D01*
X61950Y-43546D01*
X61970Y-43652D01*
X62009Y-43752D01*
X62068Y-43843D01*
X62143Y-43920D01*
X62231Y-43982D01*
X62271Y-43999D01*
X62244Y-44011D01*
X62154Y-44070D01*
X62077Y-44146D01*
X62033Y-44210D01*
X61002Y-44210D01*
X61000Y-44210D01*
X60990Y-44211D01*
X60946Y-44215D01*
X60891Y-44231D01*
X60889Y-44231D01*
X60889Y-44232D01*
X60885Y-44234D01*
X60841Y-44257D01*
X60797Y-44293D01*
X60796Y-44293D01*
X60796Y-44294D01*
X60789Y-44302D01*
X60761Y-44336D01*
X60733Y-44386D01*
X60716Y-44440D01*
X60710Y-44496D01*
X60710Y-44498D01*
X60710Y-44500D01*
X60710Y-49189D01*
X60673Y-49226D01*
X60626Y-49295D01*
X60593Y-49371D01*
X60576Y-49453D01*
X60574Y-49536D01*
X60590Y-49618D01*
X60620Y-49696D01*
X60666Y-49766D01*
X60723Y-49825D01*
X60792Y-49873D01*
X60868Y-49906D01*
X60950Y-49924D01*
X61033Y-49926D01*
X61115Y-49911D01*
X61193Y-49881D01*
X61263Y-49836D01*
X61324Y-49779D01*
X61371Y-49711D01*
X61405Y-49634D01*
X61424Y-49553D01*
X61425Y-49458D01*
X61409Y-49376D01*
X61377Y-49299D01*
X61331Y-49230D01*
X61290Y-49189D01*
X61290Y-44790D01*
X62033Y-44790D01*
X62068Y-44843D01*
X62143Y-44920D01*
X62231Y-44982D01*
X62271Y-44999D01*
X62244Y-45011D01*
X62154Y-45070D01*
X62077Y-45146D01*
X62017Y-45234D01*
X61974Y-45333D01*
X61952Y-45439D01*
X61950Y-45546D01*
X61970Y-45652D01*
X62009Y-45752D01*
X62068Y-45843D01*
X62143Y-45920D01*
X62231Y-45982D01*
X62271Y-45999D01*
X62244Y-46011D01*
X62154Y-46070D01*
X62077Y-46146D01*
X62017Y-46234D01*
X61974Y-46333D01*
X61952Y-46439D01*
X61950Y-46546D01*
X61970Y-46652D01*
X62009Y-46752D01*
X62068Y-46843D01*
X62143Y-46920D01*
X62231Y-46982D01*
X62271Y-46999D01*
X62244Y-47011D01*
X62154Y-47070D01*
X62077Y-47146D01*
X62017Y-47234D01*
X61974Y-47333D01*
X61952Y-47439D01*
X61950Y-47546D01*
X61970Y-47652D01*
X62009Y-47752D01*
X62068Y-47843D01*
X62143Y-47920D01*
X62210Y-47967D01*
X62210Y-49189D01*
X62173Y-49226D01*
X62126Y-49295D01*
X62093Y-49371D01*
X62076Y-49453D01*
X62074Y-49536D01*
X62090Y-49618D01*
X62120Y-49696D01*
X62166Y-49766D01*
X62223Y-49825D01*
X62292Y-49873D01*
X62368Y-49906D01*
X62450Y-49924D01*
X62533Y-49926D01*
X62615Y-49911D01*
X62693Y-49881D01*
X62763Y-49836D01*
X62824Y-49779D01*
X62871Y-49711D01*
X62905Y-49634D01*
X62924Y-49553D01*
X62925Y-49458D01*
X62909Y-49376D01*
X62877Y-49299D01*
X62831Y-49230D01*
X62790Y-49189D01*
X62790Y-47966D01*
X62840Y-47935D01*
X62918Y-47860D01*
X62980Y-47772D01*
X63024Y-47674D01*
X63047Y-47569D01*
X63049Y-47446D01*
X63028Y-47340D01*
X62987Y-47241D01*
X62927Y-47151D01*
X62852Y-47075D01*
X62762Y-47015D01*
X62727Y-47000D01*
X62749Y-46992D01*
X62840Y-46935D01*
X62918Y-46860D01*
X62980Y-46772D01*
X63024Y-46674D01*
X63047Y-46569D01*
X63049Y-46446D01*
X63028Y-46340D01*
X62987Y-46241D01*
X62927Y-46151D01*
X62852Y-46075D01*
X62762Y-46015D01*
X62727Y-46000D01*
X62749Y-45992D01*
X62840Y-45935D01*
X62918Y-45860D01*
X62980Y-45772D01*
X63024Y-45674D01*
X63047Y-45569D01*
X63049Y-45446D01*
X63028Y-45340D01*
X62987Y-45241D01*
X62927Y-45151D01*
X62852Y-45075D01*
X62762Y-45015D01*
X62727Y-45000D01*
X62749Y-44992D01*
X62840Y-44935D01*
X62918Y-44860D01*
X62980Y-44772D01*
X63024Y-44674D01*
X63047Y-44569D01*
X63049Y-44446D01*
X63028Y-44340D01*
X62987Y-44241D01*
X62927Y-44151D01*
X62852Y-44075D01*
X62762Y-44015D01*
X62727Y-44000D01*
X62749Y-43992D01*
X62840Y-43935D01*
X62918Y-43860D01*
X62967Y-43790D01*
X63997Y-43790D01*
X64000Y-43790D01*
X64015Y-43788D01*
X64053Y-43785D01*
X64056Y-43784D01*
X64108Y-43769D01*
X64108Y-43768D01*
X64111Y-43768D01*
X64158Y-43743D01*
X64160Y-43742D01*
X64186Y-43720D01*
X64202Y-43708D01*
X64204Y-43706D01*
X64205Y-43705D01*
X64400Y-43509D01*
X64400Y-43551D01*
X64421Y-43666D01*
X64465Y-43775D01*
X64528Y-43874D01*
X64610Y-43959D01*
X64707Y-44026D01*
X64814Y-44073D01*
X64929Y-44098D01*
X65046Y-44100D01*
X65162Y-44080D01*
X65272Y-44037D01*
X65371Y-43974D01*
X65413Y-43933D01*
X65428Y-43967D01*
X65455Y-44008D01*
X65490Y-44043D01*
X65530Y-44071D01*
X65575Y-44090D01*
X65623Y-44100D01*
X65672Y-44100D01*
X66374Y-44100D01*
X66422Y-44091D01*
X66467Y-44072D01*
X66508Y-44045D01*
X66543Y-44010D01*
X66571Y-43970D01*
X66586Y-43934D01*
X66610Y-43959D01*
X66707Y-44026D01*
X66814Y-44073D01*
X66929Y-44098D01*
X67046Y-44100D01*
X67162Y-44080D01*
X67272Y-44037D01*
X67371Y-43974D01*
X67456Y-43893D01*
X67523Y-43797D01*
X67571Y-43690D01*
X67597Y-43575D01*
X67599Y-43441D01*
X67599Y-45985D01*
X67555Y-45976D01*
X67453Y-45976D01*
X67352Y-45995D01*
X67256Y-46033D01*
X67170Y-46089D01*
X67097Y-46161D01*
X67039Y-46246D01*
X66998Y-46340D01*
X66977Y-46441D01*
X66975Y-46544D01*
X66994Y-46645D01*
X67032Y-46740D01*
X67087Y-46827D01*
X67158Y-46901D01*
X67243Y-46959D01*
X67337Y-47001D01*
X67437Y-47023D01*
X67540Y-47025D01*
X67641Y-47007D01*
X67737Y-46970D01*
X67824Y-46915D01*
X67898Y-46844D01*
X67958Y-46760D01*
X67999Y-46667D01*
X68022Y-46566D01*
X68024Y-46449D01*
X68024Y-46816D01*
X67287Y-47721D01*
X65527Y-49178D01*
X65024Y-49449D01*
X65024Y-46449D01*
X65004Y-46348D01*
X64965Y-46253D01*
X64908Y-46168D01*
X64836Y-46095D01*
X64751Y-46037D01*
X64656Y-45997D01*
X64555Y-45976D01*
X64453Y-45976D01*
X64352Y-45995D01*
X64256Y-46033D01*
X64170Y-46089D01*
X64097Y-46161D01*
X64039Y-46246D01*
X63998Y-46340D01*
X63977Y-46441D01*
X63975Y-46544D01*
X63994Y-46645D01*
X64032Y-46740D01*
X64087Y-46827D01*
X64158Y-46901D01*
X64243Y-46959D01*
X64337Y-47001D01*
X64437Y-47023D01*
X64540Y-47025D01*
X64641Y-47007D01*
X64737Y-46970D01*
X64824Y-46915D01*
X64898Y-46844D01*
X64958Y-46760D01*
X64999Y-46667D01*
X65022Y-46566D01*
X65024Y-46449D01*
X65024Y-49449D01*
X63521Y-50261D01*
X61349Y-50935D01*
X59084Y-51173D01*
X56812Y-50965D01*
X54790Y-50370D01*
X54790Y-41504D01*
X54790Y-41502D01*
X54790Y-41500D01*
X54790Y-39503D01*
X54790Y-39500D01*
X54788Y-39485D01*
X54785Y-39447D01*
X54784Y-39444D01*
X54769Y-39392D01*
X54768Y-39391D01*
X54768Y-39389D01*
X54754Y-39363D01*
X54743Y-39341D01*
X54742Y-39340D01*
X54708Y-39297D01*
X54706Y-39296D01*
X54705Y-39295D01*
X54607Y-39197D01*
X54605Y-39195D01*
X54597Y-39188D01*
X54564Y-39161D01*
X54514Y-39133D01*
X54511Y-39132D01*
X54506Y-39130D01*
X54460Y-39116D01*
X54404Y-39110D01*
X54401Y-39110D01*
X54400Y-39110D01*
X53986Y-39110D01*
X53986Y-37352D01*
X53967Y-37259D01*
X53931Y-37170D01*
X53878Y-37091D01*
X53811Y-37023D01*
X53732Y-36970D01*
X53644Y-36933D01*
X53551Y-36914D01*
X53455Y-36914D01*
X53362Y-36932D01*
X53273Y-36967D01*
X53194Y-37020D01*
X53126Y-37086D01*
X53072Y-37165D01*
X53034Y-37253D01*
X53024Y-37301D01*
X53024Y-35449D01*
X53004Y-35348D01*
X52965Y-35253D01*
X52908Y-35168D01*
X52836Y-35095D01*
X52751Y-35037D01*
X52656Y-34997D01*
X52555Y-34976D01*
X52453Y-34976D01*
X52352Y-34995D01*
X52256Y-35033D01*
X52170Y-35089D01*
X52097Y-35161D01*
X52039Y-35246D01*
X51998Y-35339D01*
X51974Y-35274D01*
X51952Y-35233D01*
X51861Y-35210D01*
X51790Y-35281D01*
X51790Y-35139D01*
X51767Y-35048D01*
X51674Y-35005D01*
X51574Y-34980D01*
X51472Y-34975D01*
X51370Y-34991D01*
X51274Y-35026D01*
X51233Y-35048D01*
X51210Y-35139D01*
X51500Y-35429D01*
X51790Y-35139D01*
X51790Y-35281D01*
X51571Y-35500D01*
X51861Y-35790D01*
X51952Y-35767D01*
X51995Y-35674D01*
X51999Y-35657D01*
X52032Y-35740D01*
X52087Y-35827D01*
X52158Y-35901D01*
X52243Y-35959D01*
X52337Y-36001D01*
X52437Y-36023D01*
X52540Y-36025D01*
X52641Y-36007D01*
X52737Y-35970D01*
X52824Y-35915D01*
X52898Y-35844D01*
X52958Y-35760D01*
X52999Y-35667D01*
X53022Y-35566D01*
X53024Y-35449D01*
X53024Y-37301D01*
X53015Y-37346D01*
X53013Y-37441D01*
X53031Y-37535D01*
X53066Y-37624D01*
X53117Y-37704D01*
X53184Y-37772D01*
X53262Y-37826D01*
X53349Y-37865D01*
X53443Y-37885D01*
X53538Y-37887D01*
X53632Y-37870D01*
X53721Y-37836D01*
X53801Y-37785D01*
X53870Y-37719D01*
X53925Y-37641D01*
X53964Y-37554D01*
X53985Y-37461D01*
X53986Y-37352D01*
X53986Y-39110D01*
X53984Y-39110D01*
X53984Y-38370D01*
X53969Y-38276D01*
X53936Y-38188D01*
X53920Y-38157D01*
X53833Y-38138D01*
X53762Y-38209D01*
X53762Y-38067D01*
X53743Y-37980D01*
X53657Y-37940D01*
X53564Y-37918D01*
X53470Y-37916D01*
X53376Y-37931D01*
X53288Y-37964D01*
X53257Y-37980D01*
X53238Y-38067D01*
X53500Y-38329D01*
X53762Y-38067D01*
X53762Y-38209D01*
X53571Y-38400D01*
X53833Y-38662D01*
X53920Y-38643D01*
X53960Y-38557D01*
X53982Y-38464D01*
X53984Y-38370D01*
X53984Y-39110D01*
X53890Y-39110D01*
X53878Y-39091D01*
X53811Y-39023D01*
X53762Y-38990D01*
X53762Y-38733D01*
X53500Y-38471D01*
X53429Y-38542D01*
X53429Y-38400D01*
X53167Y-38138D01*
X53080Y-38157D01*
X53040Y-38243D01*
X53018Y-38336D01*
X53016Y-38430D01*
X53031Y-38524D01*
X53064Y-38612D01*
X53080Y-38643D01*
X53167Y-38662D01*
X53429Y-38400D01*
X53429Y-38542D01*
X53238Y-38733D01*
X53257Y-38820D01*
X53343Y-38860D01*
X53436Y-38882D01*
X53530Y-38884D01*
X53624Y-38869D01*
X53712Y-38836D01*
X53743Y-38820D01*
X53762Y-38733D01*
X53762Y-38990D01*
X53732Y-38970D01*
X53644Y-38933D01*
X53551Y-38914D01*
X53455Y-38914D01*
X53362Y-38932D01*
X53273Y-38967D01*
X53194Y-39020D01*
X53126Y-39086D01*
X53072Y-39165D01*
X53034Y-39253D01*
X53015Y-39346D01*
X53013Y-39441D01*
X53031Y-39535D01*
X53066Y-39624D01*
X53117Y-39704D01*
X53184Y-39772D01*
X53262Y-39826D01*
X53349Y-39865D01*
X53443Y-39885D01*
X53538Y-39887D01*
X53632Y-39870D01*
X53721Y-39836D01*
X53801Y-39785D01*
X53870Y-39719D01*
X53890Y-39690D01*
X54210Y-39690D01*
X54210Y-41210D01*
X53986Y-41210D01*
X53986Y-40352D01*
X53967Y-40259D01*
X53931Y-40170D01*
X53878Y-40091D01*
X53811Y-40023D01*
X53732Y-39970D01*
X53644Y-39933D01*
X53551Y-39914D01*
X53455Y-39914D01*
X53362Y-39932D01*
X53273Y-39967D01*
X53194Y-40020D01*
X53126Y-40086D01*
X53072Y-40165D01*
X53034Y-40253D01*
X53015Y-40346D01*
X53013Y-40441D01*
X53031Y-40535D01*
X53066Y-40624D01*
X53117Y-40704D01*
X53184Y-40772D01*
X53262Y-40826D01*
X53349Y-40865D01*
X53443Y-40885D01*
X53538Y-40887D01*
X53632Y-40870D01*
X53721Y-40836D01*
X53801Y-40785D01*
X53870Y-40719D01*
X53925Y-40641D01*
X53964Y-40554D01*
X53985Y-40461D01*
X53986Y-40352D01*
X53986Y-41210D01*
X53002Y-41210D01*
X53000Y-41210D01*
X52990Y-41211D01*
X52946Y-41215D01*
X52891Y-41231D01*
X52889Y-41231D01*
X52889Y-41232D01*
X52885Y-41234D01*
X52841Y-41257D01*
X52797Y-41293D01*
X52796Y-41293D01*
X52796Y-41294D01*
X52789Y-41302D01*
X52761Y-41336D01*
X52733Y-41386D01*
X52716Y-41440D01*
X52710Y-41496D01*
X52710Y-41498D01*
X52710Y-41500D01*
X52710Y-45189D01*
X52673Y-45226D01*
X52626Y-45295D01*
X52593Y-45371D01*
X52576Y-45453D01*
X52574Y-45536D01*
X52590Y-45618D01*
X52620Y-45696D01*
X52666Y-45766D01*
X52723Y-45825D01*
X52792Y-45873D01*
X52868Y-45906D01*
X52950Y-45924D01*
X53033Y-45926D01*
X53115Y-45911D01*
X53193Y-45881D01*
X53263Y-45836D01*
X53324Y-45779D01*
X53371Y-45711D01*
X53405Y-45634D01*
X53424Y-45553D01*
X53425Y-45458D01*
X53409Y-45376D01*
X53377Y-45299D01*
X53331Y-45230D01*
X53290Y-45189D01*
X53290Y-41790D01*
X54498Y-41790D01*
X54500Y-41790D01*
X54510Y-41788D01*
X54554Y-41785D01*
X54556Y-41784D01*
X54609Y-41769D01*
X54610Y-41768D01*
X54611Y-41768D01*
X54614Y-41766D01*
X54659Y-41743D01*
X54660Y-41742D01*
X54703Y-41707D01*
X54703Y-41706D01*
X54704Y-41706D01*
X54711Y-41697D01*
X54739Y-41664D01*
X54740Y-41662D01*
X54767Y-41614D01*
X54767Y-41612D01*
X54784Y-41560D01*
X54784Y-41558D01*
X54790Y-41504D01*
X54790Y-50370D01*
X54624Y-50322D01*
X52604Y-49265D01*
X51790Y-48610D01*
X51790Y-35861D01*
X51500Y-35571D01*
X51429Y-35642D01*
X51429Y-35500D01*
X51139Y-35210D01*
X51048Y-35233D01*
X51025Y-35282D01*
X51025Y-35201D01*
X51016Y-35153D01*
X50997Y-35108D01*
X50970Y-35067D01*
X50935Y-35032D01*
X50895Y-35004D01*
X50850Y-34985D01*
X50802Y-34975D01*
X50753Y-34975D01*
X50201Y-34975D01*
X50153Y-34984D01*
X50108Y-35003D01*
X50067Y-35030D01*
X50032Y-35065D01*
X50004Y-35105D01*
X49985Y-35150D01*
X49975Y-35198D01*
X49975Y-35247D01*
X49975Y-35799D01*
X49984Y-35847D01*
X50003Y-35892D01*
X50030Y-35933D01*
X50065Y-35968D01*
X50105Y-35996D01*
X50150Y-36015D01*
X50198Y-36025D01*
X50247Y-36025D01*
X50799Y-36025D01*
X50847Y-36016D01*
X50892Y-35997D01*
X50933Y-35970D01*
X50968Y-35935D01*
X50996Y-35895D01*
X51015Y-35850D01*
X51025Y-35802D01*
X51025Y-35753D01*
X51025Y-35723D01*
X51026Y-35726D01*
X51048Y-35767D01*
X51139Y-35790D01*
X51429Y-35500D01*
X51429Y-35642D01*
X51210Y-35861D01*
X51233Y-35952D01*
X51326Y-35995D01*
X51426Y-36020D01*
X51528Y-36025D01*
X51630Y-36009D01*
X51726Y-35974D01*
X51767Y-35952D01*
X51790Y-35861D01*
X51790Y-48610D01*
X51425Y-48317D01*
X51425Y-42458D01*
X51409Y-42376D01*
X51377Y-42299D01*
X51331Y-42230D01*
X51290Y-42189D01*
X51290Y-41810D01*
X51324Y-41779D01*
X51371Y-41711D01*
X51405Y-41634D01*
X51424Y-41553D01*
X51425Y-41458D01*
X51409Y-41376D01*
X51377Y-41299D01*
X51331Y-41230D01*
X51272Y-41171D01*
X51203Y-41124D01*
X51126Y-41092D01*
X51044Y-41075D01*
X50961Y-41075D01*
X50879Y-41090D01*
X50802Y-41122D01*
X50732Y-41167D01*
X50673Y-41226D01*
X50626Y-41295D01*
X50593Y-41371D01*
X50576Y-41453D01*
X50574Y-41536D01*
X50590Y-41618D01*
X50620Y-41696D01*
X50666Y-41766D01*
X50710Y-41811D01*
X50710Y-42189D01*
X50673Y-42226D01*
X50626Y-42295D01*
X50593Y-42371D01*
X50576Y-42453D01*
X50574Y-42536D01*
X50590Y-42618D01*
X50620Y-42696D01*
X50666Y-42766D01*
X50723Y-42825D01*
X50792Y-42873D01*
X50868Y-42906D01*
X50950Y-42924D01*
X51033Y-42926D01*
X51115Y-42911D01*
X51193Y-42881D01*
X51263Y-42836D01*
X51324Y-42779D01*
X51371Y-42711D01*
X51405Y-42634D01*
X51424Y-42553D01*
X51425Y-42458D01*
X51425Y-48317D01*
X50835Y-47843D01*
X49986Y-46831D01*
X49986Y-39352D01*
X49986Y-38352D01*
X49986Y-37352D01*
X49967Y-37259D01*
X49931Y-37170D01*
X49878Y-37091D01*
X49811Y-37023D01*
X49732Y-36970D01*
X49644Y-36933D01*
X49551Y-36914D01*
X49455Y-36914D01*
X49362Y-36932D01*
X49273Y-36967D01*
X49194Y-37020D01*
X49126Y-37086D01*
X49072Y-37165D01*
X49034Y-37253D01*
X49015Y-37346D01*
X49013Y-37441D01*
X49031Y-37535D01*
X49066Y-37624D01*
X49117Y-37704D01*
X49184Y-37772D01*
X49262Y-37826D01*
X49349Y-37865D01*
X49443Y-37885D01*
X49538Y-37887D01*
X49632Y-37870D01*
X49721Y-37836D01*
X49801Y-37785D01*
X49870Y-37719D01*
X49925Y-37641D01*
X49964Y-37554D01*
X49985Y-37461D01*
X49986Y-37352D01*
X49986Y-38352D01*
X49967Y-38259D01*
X49931Y-38170D01*
X49878Y-38091D01*
X49811Y-38023D01*
X49732Y-37970D01*
X49644Y-37933D01*
X49551Y-37914D01*
X49455Y-37914D01*
X49362Y-37932D01*
X49273Y-37967D01*
X49194Y-38020D01*
X49126Y-38086D01*
X49072Y-38165D01*
X49034Y-38253D01*
X49015Y-38346D01*
X49013Y-38441D01*
X49031Y-38535D01*
X49066Y-38624D01*
X49117Y-38704D01*
X49184Y-38772D01*
X49262Y-38826D01*
X49349Y-38865D01*
X49443Y-38885D01*
X49538Y-38887D01*
X49632Y-38870D01*
X49721Y-38836D01*
X49801Y-38785D01*
X49870Y-38719D01*
X49925Y-38641D01*
X49964Y-38554D01*
X49985Y-38461D01*
X49986Y-38352D01*
X49986Y-39352D01*
X49967Y-39259D01*
X49931Y-39170D01*
X49878Y-39091D01*
X49811Y-39023D01*
X49732Y-38970D01*
X49644Y-38933D01*
X49551Y-38914D01*
X49455Y-38914D01*
X49362Y-38932D01*
X49273Y-38967D01*
X49194Y-39020D01*
X49126Y-39086D01*
X49072Y-39165D01*
X49034Y-39253D01*
X49015Y-39346D01*
X49013Y-39441D01*
X49031Y-39535D01*
X49066Y-39624D01*
X49117Y-39704D01*
X49184Y-39772D01*
X49262Y-39826D01*
X49349Y-39865D01*
X49443Y-39885D01*
X49538Y-39887D01*
X49632Y-39870D01*
X49721Y-39836D01*
X49801Y-39785D01*
X49870Y-39719D01*
X49925Y-39641D01*
X49964Y-39554D01*
X49985Y-39461D01*
X49986Y-39352D01*
X49986Y-46831D01*
X49984Y-46829D01*
X49984Y-40370D01*
X49969Y-40276D01*
X49936Y-40188D01*
X49920Y-40157D01*
X49833Y-40138D01*
X49762Y-40209D01*
X49762Y-40067D01*
X49743Y-39980D01*
X49657Y-39940D01*
X49564Y-39918D01*
X49470Y-39916D01*
X49376Y-39931D01*
X49288Y-39964D01*
X49257Y-39980D01*
X49238Y-40067D01*
X49500Y-40329D01*
X49762Y-40067D01*
X49762Y-40209D01*
X49571Y-40400D01*
X49833Y-40662D01*
X49920Y-40643D01*
X49960Y-40557D01*
X49982Y-40464D01*
X49984Y-40370D01*
X49984Y-46829D01*
X49762Y-46564D01*
X49762Y-40733D01*
X49500Y-40471D01*
X49429Y-40542D01*
X49429Y-40400D01*
X49167Y-40138D01*
X49080Y-40157D01*
X49040Y-40243D01*
X49018Y-40336D01*
X49016Y-40430D01*
X49031Y-40524D01*
X49064Y-40612D01*
X49080Y-40643D01*
X49167Y-40662D01*
X49429Y-40400D01*
X49429Y-40542D01*
X49238Y-40733D01*
X49257Y-40820D01*
X49343Y-40860D01*
X49436Y-40882D01*
X49530Y-40884D01*
X49624Y-40869D01*
X49712Y-40836D01*
X49743Y-40820D01*
X49762Y-40733D01*
X49762Y-46564D01*
X49366Y-46093D01*
X48270Y-44098D01*
X47581Y-41927D01*
X47327Y-39664D01*
X47518Y-37390D01*
X48145Y-35205D01*
X49187Y-33177D01*
X50601Y-31391D01*
X52335Y-29915D01*
X54323Y-28804D01*
X56495Y-28098D01*
X58752Y-27829D01*
X61033Y-28005D01*
X63220Y-28616D01*
X65256Y-29644D01*
X67047Y-31043D01*
X68538Y-32771D01*
X69665Y-34753D01*
X70383Y-36912D01*
X70670Y-39182D01*
X70674Y-39481D01*
X70674Y-39481D01*
G37*
G54D19*
X70674Y-39481D02*
X70451Y-41767D01*
X69792Y-43949D01*
X68721Y-45961D01*
X68024Y-46816D01*
X68024Y-46449D01*
X68004Y-46348D01*
X67965Y-46253D01*
X67908Y-46168D01*
X67836Y-46095D01*
X67751Y-46037D01*
X67656Y-45997D01*
X67599Y-45985D01*
X67599Y-43441D01*
X67576Y-43326D01*
X67531Y-43217D01*
X67466Y-43119D01*
X67425Y-43078D01*
X67425Y-32958D01*
X67409Y-32876D01*
X67377Y-32799D01*
X67331Y-32730D01*
X67272Y-32671D01*
X67203Y-32624D01*
X67126Y-32592D01*
X67044Y-32575D01*
X66961Y-32575D01*
X66879Y-32590D01*
X66802Y-32622D01*
X66732Y-32667D01*
X66673Y-32726D01*
X66626Y-32795D01*
X66593Y-32871D01*
X66576Y-32953D01*
X66574Y-33036D01*
X66590Y-33118D01*
X66620Y-33196D01*
X66666Y-33266D01*
X66723Y-33325D01*
X66792Y-33373D01*
X66868Y-33406D01*
X66950Y-33424D01*
X67033Y-33426D01*
X67115Y-33411D01*
X67193Y-33381D01*
X67263Y-33336D01*
X67324Y-33279D01*
X67371Y-33211D01*
X67405Y-33134D01*
X67424Y-33053D01*
X67425Y-32958D01*
X67425Y-43078D01*
X67383Y-43036D01*
X67286Y-42970D01*
X67178Y-42925D01*
X67063Y-42901D01*
X66945Y-42901D01*
X66830Y-42923D01*
X66721Y-42967D01*
X66623Y-43031D01*
X66586Y-43066D01*
X66572Y-43033D01*
X66545Y-42992D01*
X66510Y-42957D01*
X66470Y-42929D01*
X66425Y-42910D01*
X66377Y-42900D01*
X66328Y-42900D01*
X65626Y-42900D01*
X65578Y-42909D01*
X65533Y-42928D01*
X65492Y-42955D01*
X65457Y-42990D01*
X65429Y-43030D01*
X65413Y-43066D01*
X65383Y-43036D01*
X65286Y-42970D01*
X65178Y-42925D01*
X65063Y-42901D01*
X64945Y-42901D01*
X64830Y-42923D01*
X64790Y-42939D01*
X64790Y-34003D01*
X64790Y-34000D01*
X64788Y-33985D01*
X64785Y-33947D01*
X64784Y-33944D01*
X64769Y-33892D01*
X64768Y-33891D01*
X64768Y-33889D01*
X64743Y-33842D01*
X64742Y-33840D01*
X64720Y-33814D01*
X64708Y-33798D01*
X64706Y-33796D01*
X64705Y-33795D01*
X64207Y-33297D01*
X64205Y-33295D01*
X64197Y-33288D01*
X64164Y-33261D01*
X64114Y-33233D01*
X64111Y-33232D01*
X64106Y-33230D01*
X64060Y-33216D01*
X64004Y-33210D01*
X64001Y-33210D01*
X64000Y-33210D01*
X63120Y-33210D01*
X62790Y-32880D01*
X62790Y-32002D01*
X62790Y-32000D01*
X62788Y-31990D01*
X62785Y-31946D01*
X62784Y-31944D01*
X62769Y-31891D01*
X62768Y-31889D01*
X62766Y-31885D01*
X62743Y-31841D01*
X62742Y-31840D01*
X62707Y-31797D01*
X62706Y-31796D01*
X62697Y-31789D01*
X62664Y-31761D01*
X62662Y-31760D01*
X62614Y-31733D01*
X62560Y-31716D01*
X62504Y-31710D01*
X62502Y-31710D01*
X62500Y-31710D01*
X60002Y-31710D01*
X60000Y-31710D01*
X59990Y-31711D01*
X59946Y-31715D01*
X59891Y-31731D01*
X59889Y-31731D01*
X59889Y-31732D01*
X59885Y-31734D01*
X59841Y-31757D01*
X59797Y-31793D01*
X59796Y-31793D01*
X59796Y-31794D01*
X59789Y-31802D01*
X59761Y-31836D01*
X59733Y-31886D01*
X59716Y-31940D01*
X59710Y-31996D01*
X59710Y-31998D01*
X59710Y-32000D01*
X59710Y-32709D01*
X59694Y-32720D01*
X59626Y-32786D01*
X59572Y-32865D01*
X59534Y-32953D01*
X59515Y-33046D01*
X59513Y-33141D01*
X59531Y-33235D01*
X59566Y-33324D01*
X59617Y-33404D01*
X59684Y-33472D01*
X59762Y-33526D01*
X59849Y-33565D01*
X59943Y-33585D01*
X60038Y-33587D01*
X60132Y-33570D01*
X60221Y-33536D01*
X60301Y-33485D01*
X60370Y-33419D01*
X60425Y-33341D01*
X60464Y-33254D01*
X60485Y-33161D01*
X60486Y-33052D01*
X60467Y-32959D01*
X60431Y-32870D01*
X60378Y-32791D01*
X60311Y-32723D01*
X60290Y-32708D01*
X60290Y-32290D01*
X62210Y-32290D01*
X62210Y-32997D01*
X62210Y-33000D01*
X62211Y-33015D01*
X62215Y-33053D01*
X62216Y-33056D01*
X62231Y-33108D01*
X62232Y-33111D01*
X62257Y-33158D01*
X62258Y-33160D01*
X62279Y-33186D01*
X62292Y-33202D01*
X62294Y-33204D01*
X62295Y-33205D01*
X62793Y-33703D01*
X62795Y-33705D01*
X62802Y-33711D01*
X62836Y-33739D01*
X62839Y-33740D01*
X62886Y-33767D01*
X62888Y-33767D01*
X62889Y-33768D01*
X62893Y-33769D01*
X62940Y-33784D01*
X62942Y-33784D01*
X62996Y-33790D01*
X62999Y-33790D01*
X63000Y-33790D01*
X63880Y-33790D01*
X64210Y-34120D01*
X64210Y-42880D01*
X63880Y-43210D01*
X63871Y-43210D01*
X63905Y-43134D01*
X63924Y-43053D01*
X63925Y-42958D01*
X63909Y-42876D01*
X63877Y-42799D01*
X63831Y-42730D01*
X63790Y-42689D01*
X63790Y-34502D01*
X63790Y-34500D01*
X63788Y-34490D01*
X63785Y-34446D01*
X63784Y-34444D01*
X63769Y-34391D01*
X63768Y-34389D01*
X63766Y-34385D01*
X63743Y-34341D01*
X63742Y-34340D01*
X63707Y-34297D01*
X63706Y-34296D01*
X63697Y-34289D01*
X63664Y-34261D01*
X63662Y-34260D01*
X63614Y-34233D01*
X63560Y-34216D01*
X63504Y-34210D01*
X63502Y-34210D01*
X63500Y-34210D01*
X61486Y-34210D01*
X61486Y-33052D01*
X61467Y-32959D01*
X61431Y-32870D01*
X61378Y-32791D01*
X61311Y-32723D01*
X61232Y-32670D01*
X61144Y-32633D01*
X61051Y-32614D01*
X60955Y-32614D01*
X60862Y-32632D01*
X60773Y-32667D01*
X60694Y-32720D01*
X60626Y-32786D01*
X60572Y-32865D01*
X60534Y-32953D01*
X60515Y-33046D01*
X60513Y-33141D01*
X60531Y-33235D01*
X60566Y-33324D01*
X60617Y-33404D01*
X60684Y-33472D01*
X60762Y-33526D01*
X60849Y-33565D01*
X60943Y-33585D01*
X61038Y-33587D01*
X61132Y-33570D01*
X61221Y-33536D01*
X61301Y-33485D01*
X61370Y-33419D01*
X61425Y-33341D01*
X61464Y-33254D01*
X61485Y-33161D01*
X61486Y-33052D01*
X61486Y-34210D01*
X59290Y-34210D01*
X59290Y-33492D01*
X59301Y-33485D01*
X59370Y-33419D01*
X59425Y-33341D01*
X59464Y-33254D01*
X59485Y-33161D01*
X59486Y-33052D01*
X59467Y-32959D01*
X59431Y-32870D01*
X59378Y-32791D01*
X59311Y-32723D01*
X59232Y-32670D01*
X59144Y-32633D01*
X59051Y-32614D01*
X58955Y-32614D01*
X58862Y-32632D01*
X58773Y-32667D01*
X58694Y-32720D01*
X58626Y-32786D01*
X58572Y-32865D01*
X58534Y-32953D01*
X58515Y-33046D01*
X58513Y-33141D01*
X58531Y-33235D01*
X58566Y-33324D01*
X58617Y-33404D01*
X58684Y-33472D01*
X58710Y-33490D01*
X58710Y-34210D01*
X58486Y-34210D01*
X58486Y-33052D01*
X58467Y-32959D01*
X58431Y-32870D01*
X58378Y-32791D01*
X58311Y-32723D01*
X58232Y-32670D01*
X58144Y-32633D01*
X58051Y-32614D01*
X57955Y-32614D01*
X57862Y-32632D01*
X57773Y-32667D01*
X57694Y-32720D01*
X57626Y-32786D01*
X57572Y-32865D01*
X57534Y-32953D01*
X57515Y-33046D01*
X57513Y-33141D01*
X57531Y-33235D01*
X57566Y-33324D01*
X57617Y-33404D01*
X57684Y-33472D01*
X57762Y-33526D01*
X57849Y-33565D01*
X57943Y-33585D01*
X58038Y-33587D01*
X58132Y-33570D01*
X58221Y-33536D01*
X58301Y-33485D01*
X58370Y-33419D01*
X58425Y-33341D01*
X58464Y-33254D01*
X58485Y-33161D01*
X58486Y-33052D01*
X58486Y-34210D01*
X55502Y-34210D01*
X55500Y-34210D01*
X55490Y-34211D01*
X55446Y-34215D01*
X55391Y-34231D01*
X55389Y-34231D01*
X55389Y-34232D01*
X55385Y-34234D01*
X55341Y-34257D01*
X55297Y-34293D01*
X55296Y-34293D01*
X55296Y-34294D01*
X55289Y-34302D01*
X55261Y-34336D01*
X55233Y-34386D01*
X55216Y-34440D01*
X55210Y-34496D01*
X55210Y-34498D01*
X55210Y-34500D01*
X55210Y-39498D01*
X55210Y-39500D01*
X55211Y-39510D01*
X55215Y-39554D01*
X55231Y-39609D01*
X55231Y-39610D01*
X55232Y-39611D01*
X55234Y-39614D01*
X55257Y-39659D01*
X55258Y-39660D01*
X55293Y-39703D01*
X55294Y-39704D01*
X55302Y-39711D01*
X55336Y-39739D01*
X55338Y-39740D01*
X55386Y-39767D01*
X55388Y-39767D01*
X55440Y-39784D01*
X55442Y-39784D01*
X55496Y-39790D01*
X55498Y-39790D01*
X55500Y-39790D01*
X56033Y-39790D01*
X56068Y-39843D01*
X56143Y-39920D01*
X56231Y-39982D01*
X56271Y-39999D01*
X56244Y-40011D01*
X56154Y-40070D01*
X56077Y-40146D01*
X56017Y-40234D01*
X55974Y-40333D01*
X55952Y-40439D01*
X55950Y-40546D01*
X55970Y-40652D01*
X56009Y-40752D01*
X56068Y-40843D01*
X56143Y-40920D01*
X56231Y-40982D01*
X56271Y-40999D01*
X56244Y-41011D01*
X56154Y-41070D01*
X56077Y-41146D01*
X56017Y-41234D01*
X55974Y-41333D01*
X55952Y-41439D01*
X55950Y-41546D01*
X55970Y-41652D01*
X56009Y-41752D01*
X56068Y-41843D01*
X56143Y-41920D01*
X56231Y-41982D01*
X56271Y-41999D01*
X56244Y-42011D01*
X56154Y-42070D01*
X56077Y-42146D01*
X56017Y-42234D01*
X55974Y-42333D01*
X55952Y-42439D01*
X55950Y-42546D01*
X55970Y-42652D01*
X56009Y-42752D01*
X56068Y-42843D01*
X56143Y-42920D01*
X56231Y-42982D01*
X56271Y-42999D01*
X56244Y-43011D01*
X56154Y-43070D01*
X56077Y-43146D01*
X56017Y-43234D01*
X55974Y-43333D01*
X55952Y-43439D01*
X55950Y-43546D01*
X55970Y-43652D01*
X56009Y-43752D01*
X56068Y-43843D01*
X56143Y-43920D01*
X56231Y-43982D01*
X56271Y-43999D01*
X56244Y-44011D01*
X56154Y-44070D01*
X56077Y-44146D01*
X56017Y-44234D01*
X55974Y-44333D01*
X55952Y-44439D01*
X55950Y-44546D01*
X55970Y-44652D01*
X56009Y-44752D01*
X56068Y-44843D01*
X56143Y-44920D01*
X56231Y-44982D01*
X56271Y-44999D01*
X56244Y-45011D01*
X56154Y-45070D01*
X56077Y-45146D01*
X56017Y-45234D01*
X55974Y-45333D01*
X55952Y-45439D01*
X55950Y-45546D01*
X55970Y-45652D01*
X56009Y-45752D01*
X56068Y-45843D01*
X56143Y-45920D01*
X56231Y-45982D01*
X56271Y-45999D01*
X56244Y-46011D01*
X56154Y-46070D01*
X56077Y-46146D01*
X56017Y-46234D01*
X55974Y-46333D01*
X55952Y-46439D01*
X55950Y-46546D01*
X55970Y-46652D01*
X56009Y-46752D01*
X56068Y-46843D01*
X56143Y-46920D01*
X56231Y-46982D01*
X56271Y-46999D01*
X56244Y-47011D01*
X56154Y-47070D01*
X56077Y-47146D01*
X56017Y-47234D01*
X55974Y-47333D01*
X55952Y-47439D01*
X55950Y-47546D01*
X55970Y-47652D01*
X56009Y-47752D01*
X56068Y-47843D01*
X56143Y-47920D01*
X56231Y-47982D01*
X56330Y-48025D01*
X56435Y-48048D01*
X56542Y-48050D01*
X56649Y-48031D01*
X56749Y-47992D01*
X56840Y-47935D01*
X56918Y-47860D01*
X56980Y-47772D01*
X57024Y-47674D01*
X57047Y-47569D01*
X57049Y-47446D01*
X57028Y-47340D01*
X56987Y-47241D01*
X56927Y-47151D01*
X56852Y-47075D01*
X56762Y-47015D01*
X56727Y-47000D01*
X56749Y-46992D01*
X56840Y-46935D01*
X56918Y-46860D01*
X56980Y-46772D01*
X57024Y-46674D01*
X57047Y-46569D01*
X57049Y-46446D01*
X57028Y-46340D01*
X56987Y-46241D01*
X56927Y-46151D01*
X56852Y-46075D01*
X56762Y-46015D01*
X56727Y-46000D01*
X56749Y-45992D01*
X56840Y-45935D01*
X56918Y-45860D01*
X56980Y-45772D01*
X57024Y-45674D01*
X57047Y-45569D01*
X57049Y-45446D01*
X57028Y-45340D01*
X56987Y-45241D01*
X56927Y-45151D01*
X56852Y-45075D01*
X56762Y-45015D01*
X56727Y-45000D01*
X56749Y-44992D01*
X56840Y-44935D01*
X56918Y-44860D01*
X56980Y-44772D01*
X57024Y-44674D01*
X57047Y-44569D01*
X57049Y-44446D01*
X57028Y-44340D01*
X56987Y-44241D01*
X56927Y-44151D01*
X56852Y-44075D01*
X56762Y-44015D01*
X56727Y-44000D01*
X56749Y-43992D01*
X56840Y-43935D01*
X56918Y-43860D01*
X56980Y-43772D01*
X57024Y-43674D01*
X57047Y-43569D01*
X57049Y-43446D01*
X57028Y-43340D01*
X56987Y-43241D01*
X56927Y-43151D01*
X56852Y-43075D01*
X56762Y-43015D01*
X56727Y-43000D01*
X56749Y-42992D01*
X56840Y-42935D01*
X56918Y-42860D01*
X56980Y-42772D01*
X57024Y-42674D01*
X57047Y-42569D01*
X57049Y-42446D01*
X57028Y-42340D01*
X56987Y-42241D01*
X56927Y-42151D01*
X56852Y-42075D01*
X56762Y-42015D01*
X56727Y-42000D01*
X56749Y-41992D01*
X56840Y-41935D01*
X56918Y-41860D01*
X56980Y-41772D01*
X57024Y-41674D01*
X57047Y-41569D01*
X57049Y-41446D01*
X57028Y-41340D01*
X56987Y-41241D01*
X56927Y-41151D01*
X56852Y-41075D01*
X56762Y-41015D01*
X56727Y-41000D01*
X56749Y-40992D01*
X56840Y-40935D01*
X56918Y-40860D01*
X56980Y-40772D01*
X57024Y-40674D01*
X57047Y-40569D01*
X57049Y-40446D01*
X57028Y-40340D01*
X56987Y-40241D01*
X56927Y-40151D01*
X56852Y-40075D01*
X56762Y-40015D01*
X56727Y-40000D01*
X56749Y-39992D01*
X56840Y-39935D01*
X56918Y-39860D01*
X56980Y-39772D01*
X57024Y-39674D01*
X57047Y-39569D01*
X57049Y-39446D01*
X57028Y-39340D01*
X56987Y-39241D01*
X56927Y-39151D01*
X56852Y-39075D01*
X56762Y-39015D01*
X56727Y-39000D01*
X56749Y-38992D01*
X56840Y-38935D01*
X56918Y-38860D01*
X56980Y-38772D01*
X57024Y-38674D01*
X57047Y-38569D01*
X57049Y-38446D01*
X57028Y-38340D01*
X56987Y-38241D01*
X56927Y-38151D01*
X56852Y-38075D01*
X56762Y-38015D01*
X56727Y-38000D01*
X56749Y-37992D01*
X56840Y-37935D01*
X56918Y-37860D01*
X56980Y-37772D01*
X57024Y-37674D01*
X57047Y-37569D01*
X57049Y-37446D01*
X57028Y-37340D01*
X56987Y-37241D01*
X56927Y-37151D01*
X56852Y-37075D01*
X56762Y-37015D01*
X56727Y-37000D01*
X56749Y-36992D01*
X56840Y-36935D01*
X56918Y-36860D01*
X56980Y-36772D01*
X57024Y-36674D01*
X57047Y-36569D01*
X57049Y-36446D01*
X57028Y-36340D01*
X56987Y-36241D01*
X56927Y-36151D01*
X56852Y-36075D01*
X56762Y-36015D01*
X56663Y-35973D01*
X56557Y-35951D01*
X56450Y-35951D01*
X56344Y-35971D01*
X56244Y-36011D01*
X56154Y-36070D01*
X56077Y-36146D01*
X56017Y-36234D01*
X55974Y-36333D01*
X55952Y-36439D01*
X55950Y-36546D01*
X55970Y-36652D01*
X56009Y-36752D01*
X56068Y-36843D01*
X56143Y-36920D01*
X56231Y-36982D01*
X56271Y-36999D01*
X56244Y-37011D01*
X56154Y-37070D01*
X56077Y-37146D01*
X56017Y-37234D01*
X55974Y-37333D01*
X55952Y-37439D01*
X55950Y-37546D01*
X55970Y-37652D01*
X56009Y-37752D01*
X56068Y-37843D01*
X56143Y-37920D01*
X56231Y-37982D01*
X56271Y-37999D01*
X56244Y-38011D01*
X56154Y-38070D01*
X56077Y-38146D01*
X56017Y-38234D01*
X55974Y-38333D01*
X55952Y-38439D01*
X55950Y-38546D01*
X55970Y-38652D01*
X56009Y-38752D01*
X56068Y-38843D01*
X56143Y-38920D01*
X56231Y-38982D01*
X56271Y-38999D01*
X56244Y-39011D01*
X56154Y-39070D01*
X56077Y-39146D01*
X56033Y-39210D01*
X55790Y-39210D01*
X55790Y-34790D01*
X58996Y-34790D01*
X58998Y-34790D01*
X59000Y-34790D01*
X63210Y-34790D01*
X63210Y-42689D01*
X63173Y-42726D01*
X63126Y-42795D01*
X63093Y-42871D01*
X63076Y-42953D01*
X63074Y-43036D01*
X63090Y-43118D01*
X63120Y-43196D01*
X63129Y-43210D01*
X62966Y-43210D01*
X62927Y-43151D01*
X62852Y-43075D01*
X62762Y-43015D01*
X62727Y-43000D01*
X62749Y-42992D01*
X62840Y-42935D01*
X62918Y-42860D01*
X62980Y-42772D01*
X63024Y-42674D01*
X63047Y-42569D01*
X63049Y-42446D01*
X63028Y-42340D01*
X62987Y-42241D01*
X62927Y-42151D01*
X62852Y-42075D01*
X62762Y-42015D01*
X62727Y-42000D01*
X62749Y-41992D01*
X62840Y-41935D01*
X62918Y-41860D01*
X62980Y-41772D01*
X63024Y-41674D01*
X63047Y-41569D01*
X63049Y-41446D01*
X63028Y-41340D01*
X62987Y-41241D01*
X62927Y-41151D01*
X62852Y-41075D01*
X62762Y-41015D01*
X62727Y-41000D01*
X62749Y-40992D01*
X62840Y-40935D01*
X62918Y-40860D01*
X62980Y-40772D01*
X63024Y-40674D01*
X63047Y-40569D01*
X63049Y-40446D01*
X63028Y-40340D01*
X62987Y-40241D01*
X62927Y-40151D01*
X62852Y-40075D01*
X62762Y-40015D01*
X62727Y-40000D01*
X62749Y-39992D01*
X62840Y-39935D01*
X62918Y-39860D01*
X62980Y-39772D01*
X63024Y-39674D01*
X63047Y-39569D01*
X63049Y-39446D01*
X63028Y-39340D01*
X62987Y-39241D01*
X62927Y-39151D01*
X62852Y-39075D01*
X62762Y-39015D01*
X62727Y-39000D01*
X62749Y-38992D01*
X62840Y-38935D01*
X62918Y-38860D01*
X62980Y-38772D01*
X63024Y-38674D01*
X63047Y-38569D01*
X63049Y-38446D01*
X63049Y-37473D01*
X63049Y-36446D01*
X63028Y-36340D01*
X62987Y-36241D01*
X62927Y-36151D01*
X62852Y-36075D01*
X62762Y-36015D01*
X62663Y-35973D01*
X62557Y-35951D01*
X62549Y-35951D01*
X62549Y-35446D01*
X62528Y-35340D01*
X62487Y-35241D01*
X62427Y-35151D01*
X62352Y-35075D01*
X62262Y-35015D01*
X62163Y-34973D01*
X62057Y-34951D01*
X61950Y-34951D01*
X61844Y-34971D01*
X61744Y-35011D01*
X61654Y-35070D01*
X61577Y-35146D01*
X61517Y-35234D01*
X61500Y-35272D01*
X61487Y-35241D01*
X61427Y-35151D01*
X61352Y-35075D01*
X61262Y-35015D01*
X61163Y-34973D01*
X61057Y-34951D01*
X60950Y-34951D01*
X60844Y-34971D01*
X60744Y-35011D01*
X60654Y-35070D01*
X60577Y-35146D01*
X60517Y-35234D01*
X60500Y-35272D01*
X60487Y-35241D01*
X60427Y-35151D01*
X60352Y-35075D01*
X60262Y-35015D01*
X60163Y-34973D01*
X60057Y-34951D01*
X59950Y-34951D01*
X59844Y-34971D01*
X59744Y-35011D01*
X59654Y-35070D01*
X59577Y-35146D01*
X59517Y-35234D01*
X59500Y-35272D01*
X59487Y-35241D01*
X59427Y-35151D01*
X59352Y-35075D01*
X59262Y-35015D01*
X59163Y-34973D01*
X59057Y-34951D01*
X58950Y-34951D01*
X58844Y-34971D01*
X58744Y-35011D01*
X58654Y-35070D01*
X58577Y-35146D01*
X58517Y-35234D01*
X58500Y-35272D01*
X58487Y-35241D01*
X58427Y-35151D01*
X58352Y-35075D01*
X58262Y-35015D01*
X58163Y-34973D01*
X58057Y-34951D01*
X57950Y-34951D01*
X57844Y-34971D01*
X57744Y-35011D01*
X57654Y-35070D01*
X57577Y-35146D01*
X57517Y-35234D01*
X57500Y-35272D01*
X57487Y-35241D01*
X57427Y-35151D01*
X57352Y-35075D01*
X57262Y-35015D01*
X57163Y-34973D01*
X57057Y-34951D01*
X56950Y-34951D01*
X56844Y-34971D01*
X56744Y-35011D01*
X56654Y-35070D01*
X56577Y-35146D01*
X56517Y-35234D01*
X56474Y-35333D01*
X56452Y-35439D01*
X56450Y-35546D01*
X56470Y-35652D01*
X56509Y-35752D01*
X56568Y-35843D01*
X56643Y-35920D01*
X56731Y-35982D01*
X56830Y-36025D01*
X56935Y-36048D01*
X57042Y-36050D01*
X57149Y-36031D01*
X57249Y-35992D01*
X57340Y-35935D01*
X57418Y-35860D01*
X57480Y-35772D01*
X57499Y-35728D01*
X57509Y-35752D01*
X57568Y-35843D01*
X57643Y-35920D01*
X57731Y-35982D01*
X57830Y-36025D01*
X57935Y-36048D01*
X58042Y-36050D01*
X58149Y-36031D01*
X58249Y-35992D01*
X58340Y-35935D01*
X58418Y-35860D01*
X58480Y-35772D01*
X58499Y-35728D01*
X58509Y-35752D01*
X58568Y-35843D01*
X58643Y-35920D01*
X58731Y-35982D01*
X58830Y-36025D01*
X58935Y-36048D01*
X59042Y-36050D01*
X59149Y-36031D01*
X59249Y-35992D01*
X59340Y-35935D01*
X59418Y-35860D01*
X59480Y-35772D01*
X59499Y-35728D01*
X59509Y-35752D01*
X59568Y-35843D01*
X59643Y-35920D01*
X59731Y-35982D01*
X59830Y-36025D01*
X59935Y-36048D01*
X60042Y-36050D01*
X60149Y-36031D01*
X60249Y-35992D01*
X60340Y-35935D01*
X60418Y-35860D01*
X60480Y-35772D01*
X60499Y-35728D01*
X60509Y-35752D01*
X60568Y-35843D01*
X60643Y-35920D01*
X60731Y-35982D01*
X60830Y-36025D01*
X60935Y-36048D01*
X61042Y-36050D01*
X61149Y-36031D01*
X61249Y-35992D01*
X61340Y-35935D01*
X61418Y-35860D01*
X61480Y-35772D01*
X61499Y-35728D01*
X61509Y-35752D01*
X61568Y-35843D01*
X61643Y-35920D01*
X61731Y-35982D01*
X61830Y-36025D01*
X61935Y-36048D01*
X62042Y-36050D01*
X62149Y-36031D01*
X62249Y-35992D01*
X62340Y-35935D01*
X62418Y-35860D01*
X62480Y-35772D01*
X62524Y-35674D01*
X62547Y-35569D01*
X62549Y-35446D01*
X62549Y-35951D01*
X62450Y-35951D01*
X62344Y-35971D01*
X62244Y-36011D01*
X62154Y-36070D01*
X62077Y-36146D01*
X62017Y-36234D01*
X61974Y-36333D01*
X61952Y-36439D01*
X61950Y-36546D01*
X61970Y-36652D01*
X62009Y-36752D01*
X62068Y-36843D01*
X62143Y-36920D01*
X62231Y-36982D01*
X62273Y-37000D01*
X62266Y-37003D01*
X62219Y-37028D01*
X62192Y-37122D01*
X62500Y-37429D01*
X62808Y-37122D01*
X62781Y-37028D01*
X62724Y-37001D01*
X62749Y-36992D01*
X62840Y-36935D01*
X62918Y-36860D01*
X62980Y-36772D01*
X63024Y-36674D01*
X63047Y-36569D01*
X63049Y-36446D01*
X63049Y-37473D01*
X63033Y-37367D01*
X62997Y-37266D01*
X62972Y-37219D01*
X62878Y-37192D01*
X62571Y-37500D01*
X62878Y-37808D01*
X62972Y-37781D01*
X63018Y-37684D01*
X63044Y-37580D01*
X63049Y-37473D01*
X63049Y-38446D01*
X63028Y-38340D01*
X62987Y-38241D01*
X62927Y-38151D01*
X62852Y-38075D01*
X62762Y-38015D01*
X62726Y-37999D01*
X62734Y-37997D01*
X62781Y-37972D01*
X62808Y-37878D01*
X62500Y-37571D01*
X62429Y-37641D01*
X62429Y-37500D01*
X62122Y-37192D01*
X62028Y-37219D01*
X61982Y-37316D01*
X61956Y-37420D01*
X61951Y-37527D01*
X61967Y-37633D01*
X62003Y-37734D01*
X62028Y-37781D01*
X62122Y-37808D01*
X62429Y-37500D01*
X62429Y-37641D01*
X62192Y-37878D01*
X62219Y-37972D01*
X62275Y-37998D01*
X62244Y-38011D01*
X62154Y-38070D01*
X62077Y-38146D01*
X62017Y-38234D01*
X61974Y-38333D01*
X61952Y-38439D01*
X61950Y-38546D01*
X61970Y-38652D01*
X62009Y-38752D01*
X62068Y-38843D01*
X62143Y-38920D01*
X62231Y-38982D01*
X62271Y-38999D01*
X62244Y-39011D01*
X62154Y-39070D01*
X62077Y-39146D01*
X62017Y-39234D01*
X61974Y-39333D01*
X61952Y-39439D01*
X61950Y-39546D01*
X61970Y-39652D01*
X62009Y-39752D01*
X62068Y-39843D01*
X62143Y-39920D01*
X62231Y-39982D01*
X62271Y-39999D01*
X62244Y-40011D01*
X62154Y-40070D01*
X62077Y-40146D01*
X62017Y-40234D01*
X61974Y-40333D01*
X61952Y-40439D01*
X61950Y-40546D01*
X61970Y-40652D01*
X62009Y-40752D01*
X62068Y-40843D01*
X62143Y-40920D01*
X62231Y-40982D01*
X62271Y-40999D01*
X62244Y-41011D01*
X62154Y-41070D01*
X62077Y-41146D01*
X62017Y-41234D01*
X61974Y-41333D01*
X61952Y-41439D01*
X61950Y-41546D01*
X61970Y-41652D01*
X62009Y-41752D01*
X62068Y-41843D01*
X62143Y-41920D01*
X62231Y-41982D01*
X62271Y-41999D01*
X62244Y-42011D01*
X62154Y-42070D01*
X62077Y-42146D01*
X62017Y-42234D01*
X61974Y-42333D01*
X61952Y-42439D01*
X61950Y-42546D01*
X61970Y-42652D01*
X62009Y-42752D01*
X62068Y-42843D01*
X62143Y-42920D01*
X62231Y-42982D01*
X62271Y-42999D01*
X62244Y-43011D01*
X62154Y-43070D01*
X62077Y-43146D01*
X62017Y-43234D01*
X61974Y-43333D01*
X61952Y-43439D01*
X61950Y-43546D01*
X61970Y-43652D01*
X62009Y-43752D01*
X62068Y-43843D01*
X62143Y-43920D01*
X62231Y-43982D01*
X62271Y-43999D01*
X62244Y-44011D01*
X62154Y-44070D01*
X62077Y-44146D01*
X62033Y-44210D01*
X61002Y-44210D01*
X61000Y-44210D01*
X60990Y-44211D01*
X60946Y-44215D01*
X60891Y-44231D01*
X60889Y-44231D01*
X60889Y-44232D01*
X60885Y-44234D01*
X60841Y-44257D01*
X60797Y-44293D01*
X60796Y-44293D01*
X60796Y-44294D01*
X60789Y-44302D01*
X60761Y-44336D01*
X60733Y-44386D01*
X60716Y-44440D01*
X60710Y-44496D01*
X60710Y-44498D01*
X60710Y-44500D01*
X60710Y-49189D01*
X60673Y-49226D01*
X60626Y-49295D01*
X60593Y-49371D01*
X60576Y-49453D01*
X60574Y-49536D01*
X60590Y-49618D01*
X60620Y-49696D01*
X60666Y-49766D01*
X60723Y-49825D01*
X60792Y-49873D01*
X60868Y-49906D01*
X60950Y-49924D01*
X61033Y-49926D01*
X61115Y-49911D01*
X61193Y-49881D01*
X61263Y-49836D01*
X61324Y-49779D01*
X61371Y-49711D01*
X61405Y-49634D01*
X61424Y-49553D01*
X61425Y-49458D01*
X61409Y-49376D01*
X61377Y-49299D01*
X61331Y-49230D01*
X61290Y-49189D01*
X61290Y-44790D01*
X62033Y-44790D01*
X62068Y-44843D01*
X62143Y-44920D01*
X62231Y-44982D01*
X62271Y-44999D01*
X62244Y-45011D01*
X62154Y-45070D01*
X62077Y-45146D01*
X62017Y-45234D01*
X61974Y-45333D01*
X61952Y-45439D01*
X61950Y-45546D01*
X61970Y-45652D01*
X62009Y-45752D01*
X62068Y-45843D01*
X62143Y-45920D01*
X62231Y-45982D01*
X62271Y-45999D01*
X62244Y-46011D01*
X62154Y-46070D01*
X62077Y-46146D01*
X62017Y-46234D01*
X61974Y-46333D01*
X61952Y-46439D01*
X61950Y-46546D01*
X61970Y-46652D01*
X62009Y-46752D01*
X62068Y-46843D01*
X62143Y-46920D01*
X62231Y-46982D01*
X62271Y-46999D01*
X62244Y-47011D01*
X62154Y-47070D01*
X62077Y-47146D01*
X62017Y-47234D01*
X61974Y-47333D01*
X61952Y-47439D01*
X61950Y-47546D01*
X61970Y-47652D01*
X62009Y-47752D01*
X62068Y-47843D01*
X62143Y-47920D01*
X62210Y-47967D01*
X62210Y-49189D01*
X62173Y-49226D01*
X62126Y-49295D01*
X62093Y-49371D01*
X62076Y-49453D01*
X62074Y-49536D01*
X62090Y-49618D01*
X62120Y-49696D01*
X62166Y-49766D01*
X62223Y-49825D01*
X62292Y-49873D01*
X62368Y-49906D01*
X62450Y-49924D01*
X62533Y-49926D01*
X62615Y-49911D01*
X62693Y-49881D01*
X62763Y-49836D01*
X62824Y-49779D01*
X62871Y-49711D01*
X62905Y-49634D01*
X62924Y-49553D01*
X62925Y-49458D01*
X62909Y-49376D01*
X62877Y-49299D01*
X62831Y-49230D01*
X62790Y-49189D01*
X62790Y-47966D01*
X62840Y-47935D01*
X62918Y-47860D01*
X62980Y-47772D01*
X63024Y-47674D01*
X63047Y-47569D01*
X63049Y-47446D01*
X63028Y-47340D01*
X62987Y-47241D01*
X62927Y-47151D01*
X62852Y-47075D01*
X62762Y-47015D01*
X62727Y-47000D01*
X62749Y-46992D01*
X62840Y-46935D01*
X62918Y-46860D01*
X62980Y-46772D01*
X63024Y-46674D01*
X63047Y-46569D01*
X63049Y-46446D01*
X63028Y-46340D01*
X62987Y-46241D01*
X62927Y-46151D01*
X62852Y-46075D01*
X62762Y-46015D01*
X62727Y-46000D01*
X62749Y-45992D01*
X62840Y-45935D01*
X62918Y-45860D01*
X62980Y-45772D01*
X63024Y-45674D01*
X63047Y-45569D01*
X63049Y-45446D01*
X63028Y-45340D01*
X62987Y-45241D01*
X62927Y-45151D01*
X62852Y-45075D01*
X62762Y-45015D01*
X62727Y-45000D01*
X62749Y-44992D01*
X62840Y-44935D01*
X62918Y-44860D01*
X62980Y-44772D01*
X63024Y-44674D01*
X63047Y-44569D01*
X63049Y-44446D01*
X63028Y-44340D01*
X62987Y-44241D01*
X62927Y-44151D01*
X62852Y-44075D01*
X62762Y-44015D01*
X62727Y-44000D01*
X62749Y-43992D01*
X62840Y-43935D01*
X62918Y-43860D01*
X62967Y-43790D01*
X63997Y-43790D01*
X64000Y-43790D01*
X64015Y-43788D01*
X64053Y-43785D01*
X64056Y-43784D01*
X64108Y-43769D01*
X64108Y-43768D01*
X64111Y-43768D01*
X64158Y-43743D01*
X64160Y-43742D01*
X64186Y-43720D01*
X64202Y-43708D01*
X64204Y-43706D01*
X64205Y-43705D01*
X64400Y-43509D01*
X64400Y-43551D01*
X64421Y-43666D01*
X64465Y-43775D01*
X64528Y-43874D01*
X64610Y-43959D01*
X64707Y-44026D01*
X64814Y-44073D01*
X64929Y-44098D01*
X65046Y-44100D01*
X65162Y-44080D01*
X65272Y-44037D01*
X65371Y-43974D01*
X65413Y-43933D01*
X65428Y-43967D01*
X65455Y-44008D01*
X65490Y-44043D01*
X65530Y-44071D01*
X65575Y-44090D01*
X65623Y-44100D01*
X65672Y-44100D01*
X66374Y-44100D01*
X66422Y-44091D01*
X66467Y-44072D01*
X66508Y-44045D01*
X66543Y-44010D01*
X66571Y-43970D01*
X66586Y-43934D01*
X66610Y-43959D01*
X66707Y-44026D01*
X66814Y-44073D01*
X66929Y-44098D01*
X67046Y-44100D01*
X67162Y-44080D01*
X67272Y-44037D01*
X67371Y-43974D01*
X67456Y-43893D01*
X67523Y-43797D01*
X67571Y-43690D01*
X67597Y-43575D01*
X67599Y-43441D01*
X67599Y-45985D01*
X67555Y-45976D01*
X67453Y-45976D01*
X67352Y-45995D01*
X67256Y-46033D01*
X67170Y-46089D01*
X67097Y-46161D01*
X67039Y-46246D01*
X66998Y-46340D01*
X66977Y-46441D01*
X66975Y-46544D01*
X66994Y-46645D01*
X67032Y-46740D01*
X67087Y-46827D01*
X67158Y-46901D01*
X67243Y-46959D01*
X67337Y-47001D01*
X67437Y-47023D01*
X67540Y-47025D01*
X67641Y-47007D01*
X67737Y-46970D01*
X67824Y-46915D01*
X67898Y-46844D01*
X67958Y-46760D01*
X67999Y-46667D01*
X68022Y-46566D01*
X68024Y-46449D01*
X68024Y-46816D01*
X67287Y-47721D01*
X65527Y-49178D01*
X65024Y-49449D01*
X65024Y-46449D01*
X65004Y-46348D01*
X64965Y-46253D01*
X64908Y-46168D01*
X64836Y-46095D01*
X64751Y-46037D01*
X64656Y-45997D01*
X64555Y-45976D01*
X64453Y-45976D01*
X64352Y-45995D01*
X64256Y-46033D01*
X64170Y-46089D01*
X64097Y-46161D01*
X64039Y-46246D01*
X63998Y-46340D01*
X63977Y-46441D01*
X63975Y-46544D01*
X63994Y-46645D01*
X64032Y-46740D01*
X64087Y-46827D01*
X64158Y-46901D01*
X64243Y-46959D01*
X64337Y-47001D01*
X64437Y-47023D01*
X64540Y-47025D01*
X64641Y-47007D01*
X64737Y-46970D01*
X64824Y-46915D01*
X64898Y-46844D01*
X64958Y-46760D01*
X64999Y-46667D01*
X65022Y-46566D01*
X65024Y-46449D01*
X65024Y-49449D01*
X63521Y-50261D01*
X61349Y-50935D01*
X59084Y-51173D01*
X56812Y-50965D01*
X54790Y-50370D01*
X54790Y-41504D01*
X54790Y-41502D01*
X54790Y-41500D01*
X54790Y-39503D01*
X54790Y-39500D01*
X54788Y-39485D01*
X54785Y-39447D01*
X54784Y-39444D01*
X54769Y-39392D01*
X54768Y-39391D01*
X54768Y-39389D01*
X54754Y-39363D01*
X54743Y-39341D01*
X54742Y-39340D01*
X54708Y-39297D01*
X54706Y-39296D01*
X54705Y-39295D01*
X54607Y-39197D01*
X54605Y-39195D01*
X54597Y-39188D01*
X54564Y-39161D01*
X54514Y-39133D01*
X54511Y-39132D01*
X54506Y-39130D01*
X54460Y-39116D01*
X54404Y-39110D01*
X54401Y-39110D01*
X54400Y-39110D01*
X53986Y-39110D01*
X53986Y-37352D01*
X53967Y-37259D01*
X53931Y-37170D01*
X53878Y-37091D01*
X53811Y-37023D01*
X53732Y-36970D01*
X53644Y-36933D01*
X53551Y-36914D01*
X53455Y-36914D01*
X53362Y-36932D01*
X53273Y-36967D01*
X53194Y-37020D01*
X53126Y-37086D01*
X53072Y-37165D01*
X53034Y-37253D01*
X53024Y-37301D01*
X53024Y-35449D01*
X53004Y-35348D01*
X52965Y-35253D01*
X52908Y-35168D01*
X52836Y-35095D01*
X52751Y-35037D01*
X52656Y-34997D01*
X52555Y-34976D01*
X52453Y-34976D01*
X52352Y-34995D01*
X52256Y-35033D01*
X52170Y-35089D01*
X52097Y-35161D01*
X52039Y-35246D01*
X51998Y-35339D01*
X51974Y-35274D01*
X51952Y-35233D01*
X51861Y-35210D01*
X51790Y-35281D01*
X51790Y-35139D01*
X51767Y-35048D01*
X51674Y-35005D01*
X51574Y-34980D01*
X51472Y-34975D01*
X51370Y-34991D01*
X51274Y-35026D01*
X51233Y-35048D01*
X51210Y-35139D01*
X51500Y-35429D01*
X51790Y-35139D01*
X51790Y-35281D01*
X51571Y-35500D01*
X51861Y-35790D01*
X51952Y-35767D01*
X51995Y-35674D01*
X51999Y-35657D01*
X52032Y-35740D01*
X52087Y-35827D01*
X52158Y-35901D01*
X52243Y-35959D01*
X52337Y-36001D01*
X52437Y-36023D01*
X52540Y-36025D01*
X52641Y-36007D01*
X52737Y-35970D01*
X52824Y-35915D01*
X52898Y-35844D01*
X52958Y-35760D01*
X52999Y-35667D01*
X53022Y-35566D01*
X53024Y-35449D01*
X53024Y-37301D01*
X53015Y-37346D01*
X53013Y-37441D01*
X53031Y-37535D01*
X53066Y-37624D01*
X53117Y-37704D01*
X53184Y-37772D01*
X53262Y-37826D01*
X53349Y-37865D01*
X53443Y-37885D01*
X53538Y-37887D01*
X53632Y-37870D01*
X53721Y-37836D01*
X53801Y-37785D01*
X53870Y-37719D01*
X53925Y-37641D01*
X53964Y-37554D01*
X53985Y-37461D01*
X53986Y-37352D01*
X53986Y-39110D01*
X53984Y-39110D01*
X53984Y-38370D01*
X53969Y-38276D01*
X53936Y-38188D01*
X53920Y-38157D01*
X53833Y-38138D01*
X53762Y-38209D01*
X53762Y-38067D01*
X53743Y-37980D01*
X53657Y-37940D01*
X53564Y-37918D01*
X53470Y-37916D01*
X53376Y-37931D01*
X53288Y-37964D01*
X53257Y-37980D01*
X53238Y-38067D01*
X53500Y-38329D01*
X53762Y-38067D01*
X53762Y-38209D01*
X53571Y-38400D01*
X53833Y-38662D01*
X53920Y-38643D01*
X53960Y-38557D01*
X53982Y-38464D01*
X53984Y-38370D01*
X53984Y-39110D01*
X53890Y-39110D01*
X53878Y-39091D01*
X53811Y-39023D01*
X53762Y-38990D01*
X53762Y-38733D01*
X53500Y-38471D01*
X53429Y-38542D01*
X53429Y-38400D01*
X53167Y-38138D01*
X53080Y-38157D01*
X53040Y-38243D01*
X53018Y-38336D01*
X53016Y-38430D01*
X53031Y-38524D01*
X53064Y-38612D01*
X53080Y-38643D01*
X53167Y-38662D01*
X53429Y-38400D01*
X53429Y-38542D01*
X53238Y-38733D01*
X53257Y-38820D01*
X53343Y-38860D01*
X53436Y-38882D01*
X53530Y-38884D01*
X53624Y-38869D01*
X53712Y-38836D01*
X53743Y-38820D01*
X53762Y-38733D01*
X53762Y-38990D01*
X53732Y-38970D01*
X53644Y-38933D01*
X53551Y-38914D01*
X53455Y-38914D01*
X53362Y-38932D01*
X53273Y-38967D01*
X53194Y-39020D01*
X53126Y-39086D01*
X53072Y-39165D01*
X53034Y-39253D01*
X53015Y-39346D01*
X53013Y-39441D01*
X53031Y-39535D01*
X53066Y-39624D01*
X53117Y-39704D01*
X53184Y-39772D01*
X53262Y-39826D01*
X53349Y-39865D01*
X53443Y-39885D01*
X53538Y-39887D01*
X53632Y-39870D01*
X53721Y-39836D01*
X53801Y-39785D01*
X53870Y-39719D01*
X53890Y-39690D01*
X54210Y-39690D01*
X54210Y-41210D01*
X53986Y-41210D01*
X53986Y-40352D01*
X53967Y-40259D01*
X53931Y-40170D01*
X53878Y-40091D01*
X53811Y-40023D01*
X53732Y-39970D01*
X53644Y-39933D01*
X53551Y-39914D01*
X53455Y-39914D01*
X53362Y-39932D01*
X53273Y-39967D01*
X53194Y-40020D01*
X53126Y-40086D01*
X53072Y-40165D01*
X53034Y-40253D01*
X53015Y-40346D01*
X53013Y-40441D01*
X53031Y-40535D01*
X53066Y-40624D01*
X53117Y-40704D01*
X53184Y-40772D01*
X53262Y-40826D01*
X53349Y-40865D01*
X53443Y-40885D01*
X53538Y-40887D01*
X53632Y-40870D01*
X53721Y-40836D01*
X53801Y-40785D01*
X53870Y-40719D01*
X53925Y-40641D01*
X53964Y-40554D01*
X53985Y-40461D01*
X53986Y-40352D01*
X53986Y-41210D01*
X53002Y-41210D01*
X53000Y-41210D01*
X52990Y-41211D01*
X52946Y-41215D01*
X52891Y-41231D01*
X52889Y-41231D01*
X52889Y-41232D01*
X52885Y-41234D01*
X52841Y-41257D01*
X52797Y-41293D01*
X52796Y-41293D01*
X52796Y-41294D01*
X52789Y-41302D01*
X52761Y-41336D01*
X52733Y-41386D01*
X52716Y-41440D01*
X52710Y-41496D01*
X52710Y-41498D01*
X52710Y-41500D01*
X52710Y-45189D01*
X52673Y-45226D01*
X52626Y-45295D01*
X52593Y-45371D01*
X52576Y-45453D01*
X52574Y-45536D01*
X52590Y-45618D01*
X52620Y-45696D01*
X52666Y-45766D01*
X52723Y-45825D01*
X52792Y-45873D01*
X52868Y-45906D01*
X52950Y-45924D01*
X53033Y-45926D01*
X53115Y-45911D01*
X53193Y-45881D01*
X53263Y-45836D01*
X53324Y-45779D01*
X53371Y-45711D01*
X53405Y-45634D01*
X53424Y-45553D01*
X53425Y-45458D01*
X53409Y-45376D01*
X53377Y-45299D01*
X53331Y-45230D01*
X53290Y-45189D01*
X53290Y-41790D01*
X54498Y-41790D01*
X54500Y-41790D01*
X54510Y-41788D01*
X54554Y-41785D01*
X54556Y-41784D01*
X54609Y-41769D01*
X54610Y-41768D01*
X54611Y-41768D01*
X54614Y-41766D01*
X54659Y-41743D01*
X54660Y-41742D01*
X54703Y-41707D01*
X54703Y-41706D01*
X54704Y-41706D01*
X54711Y-41697D01*
X54739Y-41664D01*
X54740Y-41662D01*
X54767Y-41614D01*
X54767Y-41612D01*
X54784Y-41560D01*
X54784Y-41558D01*
X54790Y-41504D01*
X54790Y-50370D01*
X54624Y-50322D01*
X52604Y-49265D01*
X51790Y-48610D01*
X51790Y-35861D01*
X51500Y-35571D01*
X51429Y-35642D01*
X51429Y-35500D01*
X51139Y-35210D01*
X51048Y-35233D01*
X51025Y-35282D01*
X51025Y-35201D01*
X51016Y-35153D01*
X50997Y-35108D01*
X50970Y-35067D01*
X50935Y-35032D01*
X50895Y-35004D01*
X50850Y-34985D01*
X50802Y-34975D01*
X50753Y-34975D01*
X50201Y-34975D01*
X50153Y-34984D01*
X50108Y-35003D01*
X50067Y-35030D01*
X50032Y-35065D01*
X50004Y-35105D01*
X49985Y-35150D01*
X49975Y-35198D01*
X49975Y-35247D01*
X49975Y-35799D01*
X49984Y-35847D01*
X50003Y-35892D01*
X50030Y-35933D01*
X50065Y-35968D01*
X50105Y-35996D01*
X50150Y-36015D01*
X50198Y-36025D01*
X50247Y-36025D01*
X50799Y-36025D01*
X50847Y-36016D01*
X50892Y-35997D01*
X50933Y-35970D01*
X50968Y-35935D01*
X50996Y-35895D01*
X51015Y-35850D01*
X51025Y-35802D01*
X51025Y-35753D01*
X51025Y-35723D01*
X51026Y-35726D01*
X51048Y-35767D01*
X51139Y-35790D01*
X51429Y-35500D01*
X51429Y-35642D01*
X51210Y-35861D01*
X51233Y-35952D01*
X51326Y-35995D01*
X51426Y-36020D01*
X51528Y-36025D01*
X51630Y-36009D01*
X51726Y-35974D01*
X51767Y-35952D01*
X51790Y-35861D01*
X51790Y-48610D01*
X51425Y-48317D01*
X51425Y-42458D01*
X51409Y-42376D01*
X51377Y-42299D01*
X51331Y-42230D01*
X51290Y-42189D01*
X51290Y-41810D01*
X51324Y-41779D01*
X51371Y-41711D01*
X51405Y-41634D01*
X51424Y-41553D01*
X51425Y-41458D01*
X51409Y-41376D01*
X51377Y-41299D01*
X51331Y-41230D01*
X51272Y-41171D01*
X51203Y-41124D01*
X51126Y-41092D01*
X51044Y-41075D01*
X50961Y-41075D01*
X50879Y-41090D01*
X50802Y-41122D01*
X50732Y-41167D01*
X50673Y-41226D01*
X50626Y-41295D01*
X50593Y-41371D01*
X50576Y-41453D01*
X50574Y-41536D01*
X50590Y-41618D01*
X50620Y-41696D01*
X50666Y-41766D01*
X50710Y-41811D01*
X50710Y-42189D01*
X50673Y-42226D01*
X50626Y-42295D01*
X50593Y-42371D01*
X50576Y-42453D01*
X50574Y-42536D01*
X50590Y-42618D01*
X50620Y-42696D01*
X50666Y-42766D01*
X50723Y-42825D01*
X50792Y-42873D01*
X50868Y-42906D01*
X50950Y-42924D01*
X51033Y-42926D01*
X51115Y-42911D01*
X51193Y-42881D01*
X51263Y-42836D01*
X51324Y-42779D01*
X51371Y-42711D01*
X51405Y-42634D01*
X51424Y-42553D01*
X51425Y-42458D01*
X51425Y-48317D01*
X50835Y-47843D01*
X49986Y-46831D01*
X49986Y-39352D01*
X49986Y-38352D01*
X49986Y-37352D01*
X49967Y-37259D01*
X49931Y-37170D01*
X49878Y-37091D01*
X49811Y-37023D01*
X49732Y-36970D01*
X49644Y-36933D01*
X49551Y-36914D01*
X49455Y-36914D01*
X49362Y-36932D01*
X49273Y-36967D01*
X49194Y-37020D01*
X49126Y-37086D01*
X49072Y-37165D01*
X49034Y-37253D01*
X49015Y-37346D01*
X49013Y-37441D01*
X49031Y-37535D01*
X49066Y-37624D01*
X49117Y-37704D01*
X49184Y-37772D01*
X49262Y-37826D01*
X49349Y-37865D01*
X49443Y-37885D01*
X49538Y-37887D01*
X49632Y-37870D01*
X49721Y-37836D01*
X49801Y-37785D01*
X49870Y-37719D01*
X49925Y-37641D01*
X49964Y-37554D01*
X49985Y-37461D01*
X49986Y-37352D01*
X49986Y-38352D01*
X49967Y-38259D01*
X49931Y-38170D01*
X49878Y-38091D01*
X49811Y-38023D01*
X49732Y-37970D01*
X49644Y-37933D01*
X49551Y-37914D01*
X49455Y-37914D01*
X49362Y-37932D01*
X49273Y-37967D01*
X49194Y-38020D01*
X49126Y-38086D01*
X49072Y-38165D01*
X49034Y-38253D01*
X49015Y-38346D01*
X49013Y-38441D01*
X49031Y-38535D01*
X49066Y-38624D01*
X49117Y-38704D01*
X49184Y-38772D01*
X49262Y-38826D01*
X49349Y-38865D01*
X49443Y-38885D01*
X49538Y-38887D01*
X49632Y-38870D01*
X49721Y-38836D01*
X49801Y-38785D01*
X49870Y-38719D01*
X49925Y-38641D01*
X49964Y-38554D01*
X49985Y-38461D01*
X49986Y-38352D01*
X49986Y-39352D01*
X49967Y-39259D01*
X49931Y-39170D01*
X49878Y-39091D01*
X49811Y-39023D01*
X49732Y-38970D01*
X49644Y-38933D01*
X49551Y-38914D01*
X49455Y-38914D01*
X49362Y-38932D01*
X49273Y-38967D01*
X49194Y-39020D01*
X49126Y-39086D01*
X49072Y-39165D01*
X49034Y-39253D01*
X49015Y-39346D01*
X49013Y-39441D01*
X49031Y-39535D01*
X49066Y-39624D01*
X49117Y-39704D01*
X49184Y-39772D01*
X49262Y-39826D01*
X49349Y-39865D01*
X49443Y-39885D01*
X49538Y-39887D01*
X49632Y-39870D01*
X49721Y-39836D01*
X49801Y-39785D01*
X49870Y-39719D01*
X49925Y-39641D01*
X49964Y-39554D01*
X49985Y-39461D01*
X49986Y-39352D01*
X49986Y-46831D01*
X49984Y-46829D01*
X49984Y-40370D01*
X49969Y-40276D01*
X49936Y-40188D01*
X49920Y-40157D01*
X49833Y-40138D01*
X49762Y-40209D01*
X49762Y-40067D01*
X49743Y-39980D01*
X49657Y-39940D01*
X49564Y-39918D01*
X49470Y-39916D01*
X49376Y-39931D01*
X49288Y-39964D01*
X49257Y-39980D01*
X49238Y-40067D01*
X49500Y-40329D01*
X49762Y-40067D01*
X49762Y-40209D01*
X49571Y-40400D01*
X49833Y-40662D01*
X49920Y-40643D01*
X49960Y-40557D01*
X49982Y-40464D01*
X49984Y-40370D01*
X49984Y-46829D01*
X49762Y-46564D01*
X49762Y-40733D01*
X49500Y-40471D01*
X49429Y-40542D01*
X49429Y-40400D01*
X49167Y-40138D01*
X49080Y-40157D01*
X49040Y-40243D01*
X49018Y-40336D01*
X49016Y-40430D01*
X49031Y-40524D01*
X49064Y-40612D01*
X49080Y-40643D01*
X49167Y-40662D01*
X49429Y-40400D01*
X49429Y-40542D01*
X49238Y-40733D01*
X49257Y-40820D01*
X49343Y-40860D01*
X49436Y-40882D01*
X49530Y-40884D01*
X49624Y-40869D01*
X49712Y-40836D01*
X49743Y-40820D01*
X49762Y-40733D01*
X49762Y-46564D01*
X49366Y-46093D01*
X48270Y-44098D01*
X47581Y-41927D01*
X47327Y-39664D01*
X47518Y-37390D01*
X48145Y-35205D01*
X49187Y-33177D01*
X50601Y-31391D01*
X52335Y-29915D01*
X54323Y-28804D01*
X56495Y-28098D01*
X58752Y-27829D01*
X61033Y-28005D01*
X63220Y-28616D01*
X65256Y-29644D01*
X67047Y-31043D01*
X68538Y-32771D01*
X69665Y-34753D01*
X70383Y-36912D01*
X70670Y-39182D01*
X70674Y-39481D01*
M02*
