G04 (created by PCBNEW-RS274X (2012-apr-16-27)-stable) date Tue 24 Jun 2014 04:12:54 AM EDT*
G01*
G70*
G90*
%MOIN*%
G04 Gerber Fmt 3.4, Leading zero omitted, Abs format*
%FSLAX34Y34*%
G04 APERTURE LIST*
%ADD10C,0.006000*%
%ADD11C,0.047200*%
%ADD12C,0.070000*%
%ADD13R,0.070000X0.070000*%
%ADD14C,0.060000*%
%ADD15C,0.055000*%
%ADD16R,0.055000X0.055000*%
%ADD17C,0.035000*%
%ADD18C,0.008000*%
%ADD19C,0.010000*%
G04 APERTURE END LIST*
G54D10*
G54D11*
X53500Y-40400D03*
X53500Y-39400D03*
X53500Y-38400D03*
X53500Y-37400D03*
X49500Y-37400D03*
X49500Y-38400D03*
X49500Y-39400D03*
X49500Y-40400D03*
G54D12*
X65000Y-43500D03*
G54D13*
X66000Y-43500D03*
G54D12*
X67000Y-43500D03*
G54D14*
X56500Y-47500D03*
X62500Y-43500D03*
X62500Y-42500D03*
X56500Y-42500D03*
X56500Y-43500D03*
X62500Y-46500D03*
X62500Y-45500D03*
X62500Y-44500D03*
X56500Y-44500D03*
X56500Y-45500D03*
X56500Y-46500D03*
X62500Y-41500D03*
X62500Y-40500D03*
X62500Y-39500D03*
X56500Y-39500D03*
X56500Y-40500D03*
X56500Y-41500D03*
X62500Y-38500D03*
X62500Y-37500D03*
X62500Y-36500D03*
X57000Y-35500D03*
X58000Y-35500D03*
X59000Y-35500D03*
X60000Y-35500D03*
X61000Y-35500D03*
X62000Y-35500D03*
X56500Y-36500D03*
X56500Y-37500D03*
X56500Y-38500D03*
X62500Y-47500D03*
G54D15*
X64500Y-46500D03*
X67500Y-46500D03*
G54D16*
X50500Y-35500D03*
G54D15*
X51500Y-35500D03*
X52500Y-35500D03*
G54D11*
X58000Y-33100D03*
X59000Y-33100D03*
X60000Y-33100D03*
X61000Y-33100D03*
G54D17*
X67000Y-33000D03*
X51000Y-45500D03*
X51000Y-33000D03*
X50000Y-40000D03*
X51000Y-42500D03*
X61000Y-49500D03*
X51000Y-41500D03*
X63500Y-43000D03*
X62500Y-49500D03*
X53000Y-45500D03*
G54D18*
X55500Y-43500D02*
X53500Y-41500D01*
X55500Y-48500D02*
X55500Y-43500D01*
X65000Y-43500D02*
X64000Y-42500D01*
X64000Y-39500D02*
X62500Y-39500D01*
X64000Y-42500D02*
X64000Y-39500D01*
X61500Y-48500D02*
X55500Y-48500D01*
X61500Y-48500D02*
X61500Y-39500D01*
X61500Y-39500D02*
X62500Y-39500D01*
X53500Y-41500D02*
X53500Y-40400D01*
X49600Y-40400D02*
X50000Y-40000D01*
X53400Y-38400D02*
X53500Y-38400D01*
X53000Y-38000D02*
X53400Y-38400D01*
X51500Y-38000D02*
X53000Y-38000D01*
X49500Y-40400D02*
X49600Y-40400D01*
X51500Y-35500D02*
X51500Y-38000D01*
X50500Y-39500D02*
X49500Y-39500D01*
X67500Y-47500D02*
X64000Y-47500D01*
X63000Y-46500D02*
X62500Y-46500D01*
X64000Y-49000D02*
X55000Y-49000D01*
X55000Y-43500D02*
X53500Y-42000D01*
X64000Y-47500D02*
X64000Y-49000D01*
X64000Y-47500D02*
X63000Y-46500D01*
X49500Y-39500D02*
X49500Y-39400D01*
X67500Y-46500D02*
X67500Y-47500D01*
X55000Y-49000D02*
X55000Y-43500D01*
X50500Y-42000D02*
X50500Y-39500D01*
X53500Y-42000D02*
X50500Y-42000D01*
X49500Y-38400D02*
X50900Y-38400D01*
X51000Y-42500D02*
X53500Y-42500D01*
X50900Y-38400D02*
X51000Y-38500D01*
X51000Y-38500D02*
X51000Y-41500D01*
X54500Y-43500D02*
X54500Y-47000D01*
X53500Y-42500D02*
X54500Y-43500D01*
X54500Y-49500D02*
X61000Y-49500D01*
X54500Y-47000D02*
X54500Y-49500D01*
X66000Y-43500D02*
X66000Y-44500D01*
X66000Y-44500D02*
X63500Y-44500D01*
X63500Y-44500D02*
X63500Y-43000D01*
X66000Y-34500D02*
X64500Y-33000D01*
X58000Y-32500D02*
X58000Y-33100D01*
X69000Y-43500D02*
X69000Y-34500D01*
X63000Y-45000D02*
X63000Y-42500D01*
X61100Y-33000D02*
X61000Y-33100D01*
X67000Y-43500D02*
X69000Y-43500D01*
X63000Y-42500D02*
X62500Y-42500D01*
X67000Y-43500D02*
X67000Y-45000D01*
X61000Y-33100D02*
X61000Y-32500D01*
X67000Y-45000D02*
X63000Y-45000D01*
X64500Y-33000D02*
X61100Y-33000D01*
X61000Y-32500D02*
X58000Y-32500D01*
X69000Y-34500D02*
X66000Y-34500D01*
X63500Y-45500D02*
X64500Y-46500D01*
X62500Y-45500D02*
X63500Y-45500D01*
X54000Y-44000D02*
X54000Y-50000D01*
X50000Y-41500D02*
X50000Y-43000D01*
X62500Y-50000D02*
X62500Y-49500D01*
X48600Y-37400D02*
X48500Y-37500D01*
X54000Y-50000D02*
X62500Y-50000D01*
X53000Y-43000D02*
X54000Y-44000D01*
X48500Y-37500D02*
X48500Y-41500D01*
X49500Y-37400D02*
X48600Y-37400D01*
X50000Y-43000D02*
X53000Y-43000D01*
X48500Y-41500D02*
X50000Y-41500D01*
G54D10*
G36*
X70674Y-39481D02*
X70451Y-41767D01*
X69792Y-43949D01*
X68721Y-45961D01*
X67790Y-47104D01*
X67790Y-46936D01*
X67824Y-46915D01*
X67898Y-46844D01*
X67958Y-46760D01*
X67999Y-46667D01*
X68022Y-46566D01*
X68024Y-46449D01*
X68004Y-46348D01*
X67965Y-46253D01*
X67908Y-46168D01*
X67836Y-46095D01*
X67751Y-46037D01*
X67656Y-45997D01*
X67555Y-45976D01*
X67453Y-45976D01*
X67352Y-45995D01*
X67256Y-46033D01*
X67170Y-46089D01*
X67097Y-46161D01*
X67039Y-46246D01*
X66998Y-46340D01*
X66977Y-46441D01*
X66975Y-46544D01*
X66994Y-46645D01*
X67032Y-46740D01*
X67087Y-46827D01*
X67158Y-46901D01*
X67210Y-46936D01*
X67210Y-47210D01*
X64120Y-47210D01*
X63207Y-46297D01*
X63205Y-46295D01*
X63197Y-46288D01*
X63164Y-46261D01*
X63114Y-46233D01*
X63111Y-46232D01*
X63106Y-46230D01*
X63060Y-46216D01*
X63004Y-46210D01*
X63001Y-46210D01*
X63000Y-46210D01*
X62966Y-46210D01*
X62927Y-46151D01*
X62852Y-46075D01*
X62762Y-46015D01*
X62727Y-46000D01*
X62749Y-45992D01*
X62840Y-45935D01*
X62918Y-45860D01*
X62967Y-45790D01*
X63380Y-45790D01*
X63986Y-46396D01*
X63977Y-46441D01*
X63975Y-46544D01*
X63994Y-46645D01*
X64032Y-46740D01*
X64087Y-46827D01*
X64158Y-46901D01*
X64243Y-46959D01*
X64337Y-47001D01*
X64437Y-47023D01*
X64540Y-47025D01*
X64641Y-47007D01*
X64737Y-46970D01*
X64824Y-46915D01*
X64898Y-46844D01*
X64958Y-46760D01*
X64999Y-46667D01*
X65022Y-46566D01*
X65024Y-46449D01*
X65004Y-46348D01*
X64965Y-46253D01*
X64908Y-46168D01*
X64836Y-46095D01*
X64751Y-46037D01*
X64656Y-45997D01*
X64555Y-45976D01*
X64453Y-45976D01*
X64396Y-45986D01*
X63707Y-45297D01*
X63705Y-45295D01*
X63698Y-45290D01*
X66998Y-45290D01*
X67000Y-45290D01*
X67010Y-45288D01*
X67054Y-45285D01*
X67056Y-45284D01*
X67109Y-45269D01*
X67110Y-45268D01*
X67111Y-45268D01*
X67114Y-45266D01*
X67159Y-45243D01*
X67160Y-45242D01*
X67203Y-45207D01*
X67203Y-45206D01*
X67204Y-45206D01*
X67211Y-45197D01*
X67239Y-45164D01*
X67240Y-45162D01*
X67267Y-45114D01*
X67267Y-45112D01*
X67284Y-45060D01*
X67284Y-45058D01*
X67290Y-45004D01*
X67290Y-45002D01*
X67290Y-45000D01*
X67290Y-44025D01*
X67371Y-43974D01*
X67456Y-43893D01*
X67523Y-43797D01*
X67526Y-43790D01*
X68998Y-43790D01*
X69000Y-43790D01*
X69010Y-43788D01*
X69054Y-43785D01*
X69056Y-43784D01*
X69109Y-43769D01*
X69110Y-43768D01*
X69111Y-43768D01*
X69114Y-43766D01*
X69159Y-43743D01*
X69160Y-43742D01*
X69203Y-43707D01*
X69203Y-43706D01*
X69204Y-43706D01*
X69211Y-43697D01*
X69239Y-43664D01*
X69240Y-43662D01*
X69267Y-43614D01*
X69267Y-43612D01*
X69284Y-43560D01*
X69284Y-43558D01*
X69290Y-43504D01*
X69290Y-43502D01*
X69290Y-43500D01*
X69290Y-34502D01*
X69290Y-34500D01*
X69288Y-34490D01*
X69285Y-34446D01*
X69284Y-34444D01*
X69269Y-34391D01*
X69268Y-34389D01*
X69266Y-34385D01*
X69243Y-34341D01*
X69242Y-34340D01*
X69207Y-34297D01*
X69206Y-34296D01*
X69197Y-34289D01*
X69164Y-34261D01*
X69162Y-34260D01*
X69114Y-34233D01*
X69060Y-34216D01*
X69004Y-34210D01*
X69002Y-34210D01*
X69000Y-34210D01*
X66120Y-34210D01*
X64707Y-32797D01*
X64705Y-32795D01*
X64697Y-32788D01*
X64664Y-32761D01*
X64614Y-32733D01*
X64611Y-32732D01*
X64606Y-32730D01*
X64560Y-32716D01*
X64504Y-32710D01*
X64501Y-32710D01*
X64500Y-32710D01*
X61291Y-32710D01*
X61290Y-32708D01*
X61290Y-32502D01*
X61290Y-32500D01*
X61288Y-32490D01*
X61285Y-32446D01*
X61284Y-32444D01*
X61269Y-32391D01*
X61268Y-32389D01*
X61266Y-32385D01*
X61243Y-32341D01*
X61242Y-32340D01*
X61207Y-32297D01*
X61206Y-32296D01*
X61197Y-32289D01*
X61164Y-32261D01*
X61162Y-32260D01*
X61114Y-32233D01*
X61060Y-32216D01*
X61004Y-32210D01*
X61002Y-32210D01*
X61000Y-32210D01*
X58002Y-32210D01*
X58000Y-32210D01*
X57990Y-32211D01*
X57946Y-32215D01*
X57891Y-32231D01*
X57889Y-32231D01*
X57889Y-32232D01*
X57885Y-32234D01*
X57841Y-32257D01*
X57797Y-32293D01*
X57796Y-32293D01*
X57796Y-32294D01*
X57789Y-32302D01*
X57761Y-32336D01*
X57733Y-32386D01*
X57716Y-32440D01*
X57710Y-32496D01*
X57710Y-32498D01*
X57710Y-32500D01*
X57710Y-32709D01*
X57694Y-32720D01*
X57626Y-32786D01*
X57572Y-32865D01*
X57534Y-32953D01*
X57515Y-33046D01*
X57513Y-33141D01*
X57531Y-33235D01*
X57566Y-33324D01*
X57617Y-33404D01*
X57684Y-33472D01*
X57762Y-33526D01*
X57849Y-33565D01*
X57943Y-33585D01*
X58038Y-33587D01*
X58132Y-33570D01*
X58221Y-33536D01*
X58301Y-33485D01*
X58370Y-33419D01*
X58425Y-33341D01*
X58464Y-33254D01*
X58485Y-33161D01*
X58486Y-33052D01*
X58467Y-32959D01*
X58431Y-32870D01*
X58378Y-32791D01*
X58377Y-32790D01*
X58623Y-32790D01*
X58572Y-32865D01*
X58534Y-32953D01*
X58515Y-33046D01*
X58513Y-33141D01*
X58531Y-33235D01*
X58566Y-33324D01*
X58617Y-33404D01*
X58684Y-33472D01*
X58762Y-33526D01*
X58849Y-33565D01*
X58943Y-33585D01*
X59038Y-33587D01*
X59132Y-33570D01*
X59221Y-33536D01*
X59301Y-33485D01*
X59370Y-33419D01*
X59425Y-33341D01*
X59464Y-33254D01*
X59485Y-33161D01*
X59486Y-33052D01*
X59467Y-32959D01*
X59431Y-32870D01*
X59378Y-32791D01*
X59377Y-32790D01*
X59623Y-32790D01*
X59572Y-32865D01*
X59534Y-32953D01*
X59515Y-33046D01*
X59513Y-33141D01*
X59531Y-33235D01*
X59566Y-33324D01*
X59617Y-33404D01*
X59684Y-33472D01*
X59762Y-33526D01*
X59849Y-33565D01*
X59943Y-33585D01*
X60038Y-33587D01*
X60132Y-33570D01*
X60221Y-33536D01*
X60301Y-33485D01*
X60370Y-33419D01*
X60425Y-33341D01*
X60464Y-33254D01*
X60485Y-33161D01*
X60486Y-33052D01*
X60467Y-32959D01*
X60431Y-32870D01*
X60378Y-32791D01*
X60377Y-32790D01*
X60623Y-32790D01*
X60572Y-32865D01*
X60534Y-32953D01*
X60515Y-33046D01*
X60513Y-33141D01*
X60531Y-33235D01*
X60566Y-33324D01*
X60617Y-33404D01*
X60684Y-33472D01*
X60762Y-33526D01*
X60849Y-33565D01*
X60943Y-33585D01*
X61038Y-33587D01*
X61132Y-33570D01*
X61221Y-33536D01*
X61301Y-33485D01*
X61370Y-33419D01*
X61425Y-33341D01*
X61447Y-33290D01*
X64380Y-33290D01*
X65793Y-34703D01*
X65795Y-34705D01*
X65802Y-34711D01*
X65836Y-34739D01*
X65839Y-34740D01*
X65886Y-34767D01*
X65888Y-34767D01*
X65889Y-34768D01*
X65893Y-34769D01*
X65940Y-34784D01*
X65942Y-34784D01*
X65996Y-34790D01*
X65998Y-34790D01*
X66000Y-34790D01*
X68710Y-34790D01*
X68710Y-43210D01*
X67526Y-43210D01*
X67466Y-43119D01*
X67383Y-43036D01*
X67286Y-42970D01*
X67178Y-42925D01*
X67063Y-42901D01*
X66945Y-42901D01*
X66830Y-42923D01*
X66721Y-42967D01*
X66623Y-43031D01*
X66586Y-43066D01*
X66572Y-43033D01*
X66545Y-42992D01*
X66510Y-42957D01*
X66470Y-42929D01*
X66425Y-42910D01*
X66377Y-42900D01*
X66328Y-42900D01*
X65626Y-42900D01*
X65578Y-42909D01*
X65533Y-42928D01*
X65492Y-42955D01*
X65457Y-42990D01*
X65429Y-43030D01*
X65414Y-43063D01*
X65355Y-43004D01*
X65325Y-43033D01*
X65310Y-42987D01*
X65205Y-42937D01*
X65092Y-42907D01*
X64975Y-42901D01*
X64860Y-42917D01*
X64750Y-42956D01*
X64690Y-42987D01*
X64657Y-43086D01*
X64965Y-43394D01*
X65000Y-43429D01*
X65071Y-43500D01*
X65000Y-43571D01*
X64965Y-43606D01*
X64929Y-43642D01*
X64929Y-43500D01*
X64586Y-43157D01*
X64487Y-43190D01*
X64437Y-43295D01*
X64407Y-43408D01*
X64401Y-43525D01*
X64417Y-43640D01*
X64456Y-43750D01*
X64487Y-43810D01*
X64586Y-43843D01*
X64929Y-43500D01*
X64929Y-43642D01*
X64657Y-43914D01*
X64690Y-44013D01*
X64795Y-44063D01*
X64908Y-44093D01*
X65025Y-44099D01*
X65140Y-44083D01*
X65250Y-44044D01*
X65310Y-44013D01*
X65325Y-43966D01*
X65343Y-43984D01*
X65355Y-43996D01*
X65414Y-43936D01*
X65428Y-43967D01*
X65455Y-44008D01*
X65490Y-44043D01*
X65530Y-44071D01*
X65575Y-44090D01*
X65623Y-44100D01*
X65672Y-44100D01*
X65710Y-44100D01*
X65710Y-44210D01*
X65343Y-44210D01*
X63790Y-44210D01*
X63790Y-43310D01*
X63824Y-43279D01*
X63871Y-43211D01*
X63905Y-43134D01*
X63924Y-43053D01*
X63925Y-42958D01*
X63909Y-42876D01*
X63877Y-42799D01*
X63831Y-42730D01*
X63772Y-42671D01*
X63703Y-42624D01*
X63626Y-42592D01*
X63544Y-42575D01*
X63461Y-42575D01*
X63379Y-42590D01*
X63302Y-42622D01*
X63290Y-42629D01*
X63290Y-42502D01*
X63290Y-42500D01*
X63288Y-42490D01*
X63285Y-42446D01*
X63284Y-42444D01*
X63269Y-42391D01*
X63268Y-42389D01*
X63266Y-42385D01*
X63243Y-42341D01*
X63242Y-42340D01*
X63207Y-42297D01*
X63206Y-42296D01*
X63197Y-42289D01*
X63164Y-42261D01*
X63162Y-42260D01*
X63114Y-42233D01*
X63060Y-42216D01*
X63004Y-42210D01*
X63002Y-42210D01*
X63000Y-42210D01*
X62966Y-42210D01*
X62927Y-42151D01*
X62852Y-42075D01*
X62762Y-42015D01*
X62727Y-42000D01*
X62749Y-41992D01*
X62840Y-41935D01*
X62918Y-41860D01*
X62980Y-41772D01*
X63024Y-41674D01*
X63047Y-41569D01*
X63049Y-41446D01*
X63028Y-41340D01*
X62987Y-41241D01*
X62927Y-41151D01*
X62852Y-41075D01*
X62762Y-41015D01*
X62727Y-41000D01*
X62749Y-40992D01*
X62840Y-40935D01*
X62918Y-40860D01*
X62980Y-40772D01*
X63024Y-40674D01*
X63047Y-40569D01*
X63049Y-40446D01*
X63049Y-39473D01*
X63049Y-38446D01*
X63028Y-38340D01*
X62987Y-38241D01*
X62927Y-38151D01*
X62852Y-38075D01*
X62762Y-38015D01*
X62727Y-38000D01*
X62749Y-37992D01*
X62840Y-37935D01*
X62918Y-37860D01*
X62980Y-37772D01*
X63024Y-37674D01*
X63047Y-37569D01*
X63049Y-37446D01*
X63028Y-37340D01*
X62987Y-37241D01*
X62927Y-37151D01*
X62852Y-37075D01*
X62762Y-37015D01*
X62727Y-37000D01*
X62749Y-36992D01*
X62840Y-36935D01*
X62918Y-36860D01*
X62980Y-36772D01*
X63024Y-36674D01*
X63047Y-36569D01*
X63049Y-36446D01*
X63028Y-36340D01*
X62987Y-36241D01*
X62927Y-36151D01*
X62852Y-36075D01*
X62762Y-36015D01*
X62663Y-35973D01*
X62557Y-35951D01*
X62549Y-35951D01*
X62549Y-35446D01*
X62528Y-35340D01*
X62487Y-35241D01*
X62427Y-35151D01*
X62352Y-35075D01*
X62262Y-35015D01*
X62163Y-34973D01*
X62057Y-34951D01*
X61950Y-34951D01*
X61844Y-34971D01*
X61744Y-35011D01*
X61654Y-35070D01*
X61577Y-35146D01*
X61517Y-35234D01*
X61500Y-35272D01*
X61487Y-35241D01*
X61427Y-35151D01*
X61352Y-35075D01*
X61262Y-35015D01*
X61163Y-34973D01*
X61057Y-34951D01*
X60950Y-34951D01*
X60844Y-34971D01*
X60744Y-35011D01*
X60654Y-35070D01*
X60577Y-35146D01*
X60517Y-35234D01*
X60500Y-35272D01*
X60487Y-35241D01*
X60427Y-35151D01*
X60352Y-35075D01*
X60262Y-35015D01*
X60163Y-34973D01*
X60057Y-34951D01*
X59950Y-34951D01*
X59844Y-34971D01*
X59744Y-35011D01*
X59654Y-35070D01*
X59577Y-35146D01*
X59517Y-35234D01*
X59500Y-35272D01*
X59487Y-35241D01*
X59427Y-35151D01*
X59352Y-35075D01*
X59262Y-35015D01*
X59163Y-34973D01*
X59057Y-34951D01*
X58950Y-34951D01*
X58844Y-34971D01*
X58744Y-35011D01*
X58654Y-35070D01*
X58577Y-35146D01*
X58517Y-35234D01*
X58500Y-35272D01*
X58487Y-35241D01*
X58427Y-35151D01*
X58352Y-35075D01*
X58262Y-35015D01*
X58163Y-34973D01*
X58057Y-34951D01*
X57950Y-34951D01*
X57844Y-34971D01*
X57744Y-35011D01*
X57654Y-35070D01*
X57577Y-35146D01*
X57517Y-35234D01*
X57500Y-35272D01*
X57487Y-35241D01*
X57427Y-35151D01*
X57352Y-35075D01*
X57262Y-35015D01*
X57163Y-34973D01*
X57057Y-34951D01*
X56950Y-34951D01*
X56844Y-34971D01*
X56744Y-35011D01*
X56654Y-35070D01*
X56577Y-35146D01*
X56517Y-35234D01*
X56474Y-35333D01*
X56452Y-35439D01*
X56450Y-35546D01*
X56470Y-35652D01*
X56509Y-35752D01*
X56568Y-35843D01*
X56643Y-35920D01*
X56731Y-35982D01*
X56830Y-36025D01*
X56935Y-36048D01*
X57042Y-36050D01*
X57149Y-36031D01*
X57249Y-35992D01*
X57340Y-35935D01*
X57418Y-35860D01*
X57480Y-35772D01*
X57499Y-35728D01*
X57509Y-35752D01*
X57568Y-35843D01*
X57643Y-35920D01*
X57731Y-35982D01*
X57830Y-36025D01*
X57935Y-36048D01*
X58042Y-36050D01*
X58149Y-36031D01*
X58249Y-35992D01*
X58340Y-35935D01*
X58418Y-35860D01*
X58480Y-35772D01*
X58499Y-35728D01*
X58509Y-35752D01*
X58568Y-35843D01*
X58643Y-35920D01*
X58731Y-35982D01*
X58830Y-36025D01*
X58935Y-36048D01*
X59042Y-36050D01*
X59149Y-36031D01*
X59249Y-35992D01*
X59340Y-35935D01*
X59418Y-35860D01*
X59480Y-35772D01*
X59499Y-35728D01*
X59509Y-35752D01*
X59568Y-35843D01*
X59643Y-35920D01*
X59731Y-35982D01*
X59830Y-36025D01*
X59935Y-36048D01*
X60042Y-36050D01*
X60149Y-36031D01*
X60249Y-35992D01*
X60340Y-35935D01*
X60418Y-35860D01*
X60480Y-35772D01*
X60499Y-35728D01*
X60509Y-35752D01*
X60568Y-35843D01*
X60643Y-35920D01*
X60731Y-35982D01*
X60830Y-36025D01*
X60935Y-36048D01*
X61042Y-36050D01*
X61149Y-36031D01*
X61249Y-35992D01*
X61340Y-35935D01*
X61418Y-35860D01*
X61480Y-35772D01*
X61499Y-35728D01*
X61509Y-35752D01*
X61568Y-35843D01*
X61643Y-35920D01*
X61731Y-35982D01*
X61830Y-36025D01*
X61935Y-36048D01*
X62042Y-36050D01*
X62149Y-36031D01*
X62249Y-35992D01*
X62340Y-35935D01*
X62418Y-35860D01*
X62480Y-35772D01*
X62524Y-35674D01*
X62547Y-35569D01*
X62549Y-35446D01*
X62549Y-35951D01*
X62450Y-35951D01*
X62344Y-35971D01*
X62244Y-36011D01*
X62154Y-36070D01*
X62077Y-36146D01*
X62017Y-36234D01*
X61974Y-36333D01*
X61952Y-36439D01*
X61950Y-36546D01*
X61970Y-36652D01*
X62009Y-36752D01*
X62068Y-36843D01*
X62143Y-36920D01*
X62231Y-36982D01*
X62271Y-36999D01*
X62244Y-37011D01*
X62154Y-37070D01*
X62077Y-37146D01*
X62017Y-37234D01*
X61974Y-37333D01*
X61952Y-37439D01*
X61950Y-37546D01*
X61970Y-37652D01*
X62009Y-37752D01*
X62068Y-37843D01*
X62143Y-37920D01*
X62231Y-37982D01*
X62271Y-37999D01*
X62244Y-38011D01*
X62154Y-38070D01*
X62077Y-38146D01*
X62017Y-38234D01*
X61974Y-38333D01*
X61952Y-38439D01*
X61950Y-38546D01*
X61970Y-38652D01*
X62009Y-38752D01*
X62068Y-38843D01*
X62143Y-38920D01*
X62231Y-38982D01*
X62273Y-39000D01*
X62266Y-39003D01*
X62219Y-39028D01*
X62192Y-39122D01*
X62500Y-39429D01*
X62808Y-39122D01*
X62781Y-39028D01*
X62724Y-39001D01*
X62749Y-38992D01*
X62840Y-38935D01*
X62918Y-38860D01*
X62980Y-38772D01*
X63024Y-38674D01*
X63047Y-38569D01*
X63049Y-38446D01*
X63049Y-39473D01*
X63033Y-39367D01*
X62997Y-39266D01*
X62972Y-39219D01*
X62878Y-39192D01*
X62571Y-39500D01*
X62878Y-39808D01*
X62972Y-39781D01*
X63018Y-39684D01*
X63044Y-39580D01*
X63049Y-39473D01*
X63049Y-40446D01*
X63028Y-40340D01*
X62987Y-40241D01*
X62927Y-40151D01*
X62852Y-40075D01*
X62762Y-40015D01*
X62726Y-39999D01*
X62734Y-39997D01*
X62781Y-39972D01*
X62808Y-39878D01*
X62500Y-39571D01*
X62429Y-39641D01*
X62429Y-39500D01*
X62122Y-39192D01*
X62028Y-39219D01*
X61982Y-39316D01*
X61956Y-39420D01*
X61951Y-39527D01*
X61967Y-39633D01*
X62003Y-39734D01*
X62028Y-39781D01*
X62122Y-39808D01*
X62429Y-39500D01*
X62429Y-39641D01*
X62192Y-39878D01*
X62219Y-39972D01*
X62275Y-39998D01*
X62244Y-40011D01*
X62154Y-40070D01*
X62077Y-40146D01*
X62017Y-40234D01*
X61974Y-40333D01*
X61952Y-40439D01*
X61950Y-40546D01*
X61970Y-40652D01*
X62009Y-40752D01*
X62068Y-40843D01*
X62143Y-40920D01*
X62231Y-40982D01*
X62271Y-40999D01*
X62244Y-41011D01*
X62154Y-41070D01*
X62077Y-41146D01*
X62017Y-41234D01*
X61974Y-41333D01*
X61952Y-41439D01*
X61950Y-41546D01*
X61970Y-41652D01*
X62009Y-41752D01*
X62068Y-41843D01*
X62143Y-41920D01*
X62231Y-41982D01*
X62271Y-41999D01*
X62244Y-42011D01*
X62154Y-42070D01*
X62077Y-42146D01*
X62017Y-42234D01*
X61974Y-42333D01*
X61952Y-42439D01*
X61950Y-42546D01*
X61970Y-42652D01*
X62009Y-42752D01*
X62068Y-42843D01*
X62143Y-42920D01*
X62231Y-42982D01*
X62271Y-42999D01*
X62244Y-43011D01*
X62154Y-43070D01*
X62077Y-43146D01*
X62017Y-43234D01*
X61974Y-43333D01*
X61952Y-43439D01*
X61950Y-43546D01*
X61970Y-43652D01*
X62009Y-43752D01*
X62068Y-43843D01*
X62143Y-43920D01*
X62231Y-43982D01*
X62271Y-43999D01*
X62244Y-44011D01*
X62154Y-44070D01*
X62077Y-44146D01*
X62017Y-44234D01*
X61974Y-44333D01*
X61952Y-44439D01*
X61950Y-44546D01*
X61970Y-44652D01*
X62009Y-44752D01*
X62068Y-44843D01*
X62143Y-44920D01*
X62231Y-44982D01*
X62271Y-44999D01*
X62244Y-45011D01*
X62154Y-45070D01*
X62077Y-45146D01*
X62017Y-45234D01*
X61974Y-45333D01*
X61952Y-45439D01*
X61950Y-45546D01*
X61970Y-45652D01*
X62009Y-45752D01*
X62068Y-45843D01*
X62143Y-45920D01*
X62231Y-45982D01*
X62271Y-45999D01*
X62244Y-46011D01*
X62154Y-46070D01*
X62077Y-46146D01*
X62017Y-46234D01*
X61974Y-46333D01*
X61952Y-46439D01*
X61950Y-46546D01*
X61970Y-46652D01*
X62009Y-46752D01*
X62068Y-46843D01*
X62143Y-46920D01*
X62231Y-46982D01*
X62271Y-46999D01*
X62244Y-47011D01*
X62154Y-47070D01*
X62077Y-47146D01*
X62017Y-47234D01*
X61974Y-47333D01*
X61952Y-47439D01*
X61950Y-47546D01*
X61970Y-47652D01*
X62009Y-47752D01*
X62068Y-47843D01*
X62143Y-47920D01*
X62231Y-47982D01*
X62330Y-48025D01*
X62435Y-48048D01*
X62542Y-48050D01*
X62649Y-48031D01*
X62749Y-47992D01*
X62840Y-47935D01*
X62918Y-47860D01*
X62980Y-47772D01*
X63024Y-47674D01*
X63047Y-47569D01*
X63049Y-47446D01*
X63028Y-47340D01*
X62987Y-47241D01*
X62927Y-47151D01*
X62852Y-47075D01*
X62762Y-47015D01*
X62727Y-47000D01*
X62749Y-46992D01*
X62840Y-46935D01*
X62918Y-46860D01*
X62931Y-46841D01*
X63710Y-47620D01*
X63710Y-48710D01*
X57049Y-48710D01*
X57049Y-47446D01*
X57028Y-47340D01*
X56987Y-47241D01*
X56927Y-47151D01*
X56852Y-47075D01*
X56762Y-47015D01*
X56727Y-47000D01*
X56749Y-46992D01*
X56840Y-46935D01*
X56918Y-46860D01*
X56980Y-46772D01*
X57024Y-46674D01*
X57047Y-46569D01*
X57049Y-46446D01*
X57028Y-46340D01*
X56987Y-46241D01*
X56927Y-46151D01*
X56852Y-46075D01*
X56762Y-46015D01*
X56727Y-46000D01*
X56749Y-45992D01*
X56840Y-45935D01*
X56918Y-45860D01*
X56980Y-45772D01*
X57024Y-45674D01*
X57047Y-45569D01*
X57049Y-45446D01*
X57028Y-45340D01*
X56987Y-45241D01*
X56927Y-45151D01*
X56852Y-45075D01*
X56762Y-45015D01*
X56727Y-45000D01*
X56749Y-44992D01*
X56840Y-44935D01*
X56918Y-44860D01*
X56980Y-44772D01*
X57024Y-44674D01*
X57047Y-44569D01*
X57049Y-44446D01*
X57028Y-44340D01*
X56987Y-44241D01*
X56927Y-44151D01*
X56852Y-44075D01*
X56762Y-44015D01*
X56727Y-44000D01*
X56749Y-43992D01*
X56840Y-43935D01*
X56918Y-43860D01*
X56980Y-43772D01*
X57024Y-43674D01*
X57047Y-43569D01*
X57049Y-43446D01*
X57028Y-43340D01*
X56987Y-43241D01*
X56927Y-43151D01*
X56852Y-43075D01*
X56762Y-43015D01*
X56727Y-43000D01*
X56749Y-42992D01*
X56840Y-42935D01*
X56918Y-42860D01*
X56980Y-42772D01*
X57024Y-42674D01*
X57047Y-42569D01*
X57049Y-42446D01*
X57028Y-42340D01*
X56987Y-42241D01*
X56927Y-42151D01*
X56852Y-42075D01*
X56762Y-42015D01*
X56727Y-42000D01*
X56749Y-41992D01*
X56840Y-41935D01*
X56918Y-41860D01*
X56980Y-41772D01*
X57024Y-41674D01*
X57047Y-41569D01*
X57049Y-41446D01*
X57028Y-41340D01*
X56987Y-41241D01*
X56927Y-41151D01*
X56852Y-41075D01*
X56762Y-41015D01*
X56727Y-41000D01*
X56749Y-40992D01*
X56840Y-40935D01*
X56918Y-40860D01*
X56980Y-40772D01*
X57024Y-40674D01*
X57047Y-40569D01*
X57049Y-40446D01*
X57028Y-40340D01*
X56987Y-40241D01*
X56927Y-40151D01*
X56852Y-40075D01*
X56762Y-40015D01*
X56727Y-40000D01*
X56749Y-39992D01*
X56840Y-39935D01*
X56918Y-39860D01*
X56980Y-39772D01*
X57024Y-39674D01*
X57047Y-39569D01*
X57049Y-39446D01*
X57028Y-39340D01*
X56987Y-39241D01*
X56927Y-39151D01*
X56852Y-39075D01*
X56762Y-39015D01*
X56727Y-39000D01*
X56749Y-38992D01*
X56840Y-38935D01*
X56918Y-38860D01*
X56980Y-38772D01*
X57024Y-38674D01*
X57047Y-38569D01*
X57049Y-38446D01*
X57028Y-38340D01*
X56987Y-38241D01*
X56927Y-38151D01*
X56852Y-38075D01*
X56762Y-38015D01*
X56727Y-38000D01*
X56749Y-37992D01*
X56840Y-37935D01*
X56918Y-37860D01*
X56980Y-37772D01*
X57024Y-37674D01*
X57047Y-37569D01*
X57049Y-37446D01*
X57028Y-37340D01*
X56987Y-37241D01*
X56927Y-37151D01*
X56852Y-37075D01*
X56762Y-37015D01*
X56727Y-37000D01*
X56749Y-36992D01*
X56840Y-36935D01*
X56918Y-36860D01*
X56980Y-36772D01*
X57024Y-36674D01*
X57047Y-36569D01*
X57049Y-36446D01*
X57028Y-36340D01*
X56987Y-36241D01*
X56927Y-36151D01*
X56852Y-36075D01*
X56762Y-36015D01*
X56663Y-35973D01*
X56557Y-35951D01*
X56450Y-35951D01*
X56344Y-35971D01*
X56244Y-36011D01*
X56154Y-36070D01*
X56077Y-36146D01*
X56017Y-36234D01*
X55974Y-36333D01*
X55952Y-36439D01*
X55950Y-36546D01*
X55970Y-36652D01*
X56009Y-36752D01*
X56068Y-36843D01*
X56143Y-36920D01*
X56231Y-36982D01*
X56271Y-36999D01*
X56244Y-37011D01*
X56154Y-37070D01*
X56077Y-37146D01*
X56017Y-37234D01*
X55974Y-37333D01*
X55952Y-37439D01*
X55950Y-37546D01*
X55970Y-37652D01*
X56009Y-37752D01*
X56068Y-37843D01*
X56143Y-37920D01*
X56231Y-37982D01*
X56271Y-37999D01*
X56244Y-38011D01*
X56154Y-38070D01*
X56077Y-38146D01*
X56017Y-38234D01*
X55974Y-38333D01*
X55952Y-38439D01*
X55950Y-38546D01*
X55970Y-38652D01*
X56009Y-38752D01*
X56068Y-38843D01*
X56143Y-38920D01*
X56231Y-38982D01*
X56271Y-38999D01*
X56244Y-39011D01*
X56154Y-39070D01*
X56077Y-39146D01*
X56017Y-39234D01*
X55974Y-39333D01*
X55952Y-39439D01*
X55950Y-39546D01*
X55970Y-39652D01*
X56009Y-39752D01*
X56068Y-39843D01*
X56143Y-39920D01*
X56231Y-39982D01*
X56271Y-39999D01*
X56244Y-40011D01*
X56154Y-40070D01*
X56077Y-40146D01*
X56017Y-40234D01*
X55974Y-40333D01*
X55952Y-40439D01*
X55950Y-40546D01*
X55970Y-40652D01*
X56009Y-40752D01*
X56068Y-40843D01*
X56143Y-40920D01*
X56231Y-40982D01*
X56271Y-40999D01*
X56244Y-41011D01*
X56154Y-41070D01*
X56077Y-41146D01*
X56017Y-41234D01*
X55974Y-41333D01*
X55952Y-41439D01*
X55950Y-41546D01*
X55970Y-41652D01*
X56009Y-41752D01*
X56068Y-41843D01*
X56143Y-41920D01*
X56231Y-41982D01*
X56271Y-41999D01*
X56244Y-42011D01*
X56154Y-42070D01*
X56077Y-42146D01*
X56017Y-42234D01*
X55974Y-42333D01*
X55952Y-42439D01*
X55950Y-42546D01*
X55970Y-42652D01*
X56009Y-42752D01*
X56068Y-42843D01*
X56143Y-42920D01*
X56231Y-42982D01*
X56271Y-42999D01*
X56244Y-43011D01*
X56154Y-43070D01*
X56077Y-43146D01*
X56017Y-43234D01*
X55974Y-43333D01*
X55952Y-43439D01*
X55950Y-43546D01*
X55970Y-43652D01*
X56009Y-43752D01*
X56068Y-43843D01*
X56143Y-43920D01*
X56231Y-43982D01*
X56271Y-43999D01*
X56244Y-44011D01*
X56154Y-44070D01*
X56077Y-44146D01*
X56017Y-44234D01*
X55974Y-44333D01*
X55952Y-44439D01*
X55950Y-44546D01*
X55970Y-44652D01*
X56009Y-44752D01*
X56068Y-44843D01*
X56143Y-44920D01*
X56231Y-44982D01*
X56271Y-44999D01*
X56244Y-45011D01*
X56154Y-45070D01*
X56077Y-45146D01*
X56017Y-45234D01*
X55974Y-45333D01*
X55952Y-45439D01*
X55950Y-45546D01*
X55970Y-45652D01*
X56009Y-45752D01*
X56068Y-45843D01*
X56143Y-45920D01*
X56231Y-45982D01*
X56271Y-45999D01*
X56244Y-46011D01*
X56154Y-46070D01*
X56077Y-46146D01*
X56017Y-46234D01*
X55974Y-46333D01*
X55952Y-46439D01*
X55950Y-46546D01*
X55970Y-46652D01*
X56009Y-46752D01*
X56068Y-46843D01*
X56143Y-46920D01*
X56231Y-46982D01*
X56271Y-46999D01*
X56244Y-47011D01*
X56154Y-47070D01*
X56077Y-47146D01*
X56017Y-47234D01*
X55974Y-47333D01*
X55952Y-47439D01*
X55950Y-47546D01*
X55970Y-47652D01*
X56009Y-47752D01*
X56068Y-47843D01*
X56143Y-47920D01*
X56231Y-47982D01*
X56330Y-48025D01*
X56435Y-48048D01*
X56542Y-48050D01*
X56649Y-48031D01*
X56749Y-47992D01*
X56840Y-47935D01*
X56918Y-47860D01*
X56980Y-47772D01*
X57024Y-47674D01*
X57047Y-47569D01*
X57049Y-47446D01*
X57049Y-48710D01*
X55290Y-48710D01*
X55290Y-43503D01*
X55290Y-43500D01*
X55288Y-43485D01*
X55285Y-43447D01*
X55284Y-43444D01*
X55269Y-43392D01*
X55268Y-43391D01*
X55268Y-43389D01*
X55254Y-43363D01*
X55243Y-43341D01*
X55242Y-43340D01*
X55208Y-43298D01*
X55206Y-43296D01*
X55205Y-43295D01*
X53986Y-42076D01*
X53986Y-39352D01*
X53986Y-38352D01*
X53986Y-37352D01*
X53967Y-37259D01*
X53931Y-37170D01*
X53878Y-37091D01*
X53811Y-37023D01*
X53732Y-36970D01*
X53644Y-36933D01*
X53551Y-36914D01*
X53455Y-36914D01*
X53362Y-36932D01*
X53273Y-36967D01*
X53194Y-37020D01*
X53126Y-37086D01*
X53072Y-37165D01*
X53034Y-37253D01*
X53015Y-37346D01*
X53013Y-37441D01*
X53031Y-37535D01*
X53066Y-37624D01*
X53117Y-37704D01*
X53184Y-37772D01*
X53262Y-37826D01*
X53349Y-37865D01*
X53443Y-37885D01*
X53538Y-37887D01*
X53632Y-37870D01*
X53721Y-37836D01*
X53801Y-37785D01*
X53870Y-37719D01*
X53925Y-37641D01*
X53964Y-37554D01*
X53985Y-37461D01*
X53986Y-37352D01*
X53986Y-38352D01*
X53967Y-38259D01*
X53931Y-38170D01*
X53878Y-38091D01*
X53811Y-38023D01*
X53732Y-37970D01*
X53644Y-37933D01*
X53551Y-37914D01*
X53455Y-37914D01*
X53362Y-37932D01*
X53347Y-37937D01*
X53207Y-37797D01*
X53205Y-37795D01*
X53197Y-37788D01*
X53164Y-37761D01*
X53114Y-37733D01*
X53111Y-37732D01*
X53106Y-37730D01*
X53060Y-37716D01*
X53004Y-37710D01*
X53001Y-37710D01*
X53000Y-37710D01*
X51790Y-37710D01*
X51790Y-35936D01*
X51824Y-35915D01*
X51898Y-35844D01*
X51958Y-35760D01*
X51999Y-35667D01*
X52000Y-35660D01*
X52032Y-35740D01*
X52087Y-35827D01*
X52158Y-35901D01*
X52243Y-35959D01*
X52337Y-36001D01*
X52437Y-36023D01*
X52540Y-36025D01*
X52641Y-36007D01*
X52737Y-35970D01*
X52824Y-35915D01*
X52898Y-35844D01*
X52958Y-35760D01*
X52999Y-35667D01*
X53022Y-35566D01*
X53024Y-35449D01*
X53004Y-35348D01*
X52965Y-35253D01*
X52908Y-35168D01*
X52836Y-35095D01*
X52751Y-35037D01*
X52656Y-34997D01*
X52555Y-34976D01*
X52453Y-34976D01*
X52352Y-34995D01*
X52256Y-35033D01*
X52170Y-35089D01*
X52097Y-35161D01*
X52039Y-35246D01*
X51999Y-35336D01*
X51965Y-35253D01*
X51908Y-35168D01*
X51836Y-35095D01*
X51751Y-35037D01*
X51656Y-34997D01*
X51555Y-34976D01*
X51453Y-34976D01*
X51425Y-34981D01*
X51425Y-32958D01*
X51409Y-32876D01*
X51377Y-32799D01*
X51331Y-32730D01*
X51272Y-32671D01*
X51203Y-32624D01*
X51126Y-32592D01*
X51044Y-32575D01*
X50961Y-32575D01*
X50879Y-32590D01*
X50802Y-32622D01*
X50732Y-32667D01*
X50673Y-32726D01*
X50626Y-32795D01*
X50593Y-32871D01*
X50576Y-32953D01*
X50574Y-33036D01*
X50590Y-33118D01*
X50620Y-33196D01*
X50666Y-33266D01*
X50723Y-33325D01*
X50792Y-33373D01*
X50868Y-33406D01*
X50950Y-33424D01*
X51033Y-33426D01*
X51115Y-33411D01*
X51193Y-33381D01*
X51263Y-33336D01*
X51324Y-33279D01*
X51371Y-33211D01*
X51405Y-33134D01*
X51424Y-33053D01*
X51425Y-32958D01*
X51425Y-34981D01*
X51352Y-34995D01*
X51256Y-35033D01*
X51170Y-35089D01*
X51097Y-35161D01*
X51039Y-35246D01*
X51025Y-35278D01*
X51025Y-35201D01*
X51016Y-35153D01*
X50997Y-35108D01*
X50970Y-35067D01*
X50935Y-35032D01*
X50895Y-35004D01*
X50850Y-34985D01*
X50802Y-34975D01*
X50753Y-34975D01*
X50201Y-34975D01*
X50153Y-34984D01*
X50108Y-35003D01*
X50067Y-35030D01*
X50032Y-35065D01*
X50004Y-35105D01*
X49985Y-35150D01*
X49975Y-35198D01*
X49975Y-35247D01*
X49975Y-35799D01*
X49984Y-35847D01*
X50003Y-35892D01*
X50030Y-35933D01*
X50065Y-35968D01*
X50105Y-35996D01*
X50150Y-36015D01*
X50198Y-36025D01*
X50247Y-36025D01*
X50799Y-36025D01*
X50847Y-36016D01*
X50892Y-35997D01*
X50933Y-35970D01*
X50968Y-35935D01*
X50996Y-35895D01*
X51015Y-35850D01*
X51025Y-35802D01*
X51025Y-35753D01*
X51025Y-35722D01*
X51032Y-35740D01*
X51087Y-35827D01*
X51158Y-35901D01*
X51210Y-35936D01*
X51210Y-37998D01*
X51210Y-38000D01*
X51211Y-38010D01*
X51215Y-38054D01*
X51231Y-38109D01*
X51231Y-38110D01*
X51232Y-38111D01*
X51234Y-38114D01*
X51257Y-38159D01*
X51258Y-38160D01*
X51293Y-38203D01*
X51294Y-38204D01*
X51302Y-38211D01*
X51336Y-38239D01*
X51338Y-38240D01*
X51386Y-38267D01*
X51388Y-38267D01*
X51440Y-38284D01*
X51442Y-38284D01*
X51496Y-38290D01*
X51498Y-38290D01*
X51500Y-38290D01*
X52879Y-38290D01*
X53013Y-38423D01*
X53013Y-38441D01*
X53031Y-38535D01*
X53066Y-38624D01*
X53117Y-38704D01*
X53184Y-38772D01*
X53262Y-38826D01*
X53349Y-38865D01*
X53443Y-38885D01*
X53538Y-38887D01*
X53632Y-38870D01*
X53721Y-38836D01*
X53801Y-38785D01*
X53870Y-38719D01*
X53925Y-38641D01*
X53964Y-38554D01*
X53985Y-38461D01*
X53986Y-38352D01*
X53986Y-39352D01*
X53967Y-39259D01*
X53931Y-39170D01*
X53878Y-39091D01*
X53811Y-39023D01*
X53732Y-38970D01*
X53644Y-38933D01*
X53551Y-38914D01*
X53455Y-38914D01*
X53362Y-38932D01*
X53273Y-38967D01*
X53194Y-39020D01*
X53126Y-39086D01*
X53072Y-39165D01*
X53034Y-39253D01*
X53015Y-39346D01*
X53013Y-39441D01*
X53031Y-39535D01*
X53066Y-39624D01*
X53117Y-39704D01*
X53184Y-39772D01*
X53262Y-39826D01*
X53349Y-39865D01*
X53443Y-39885D01*
X53538Y-39887D01*
X53632Y-39870D01*
X53721Y-39836D01*
X53801Y-39785D01*
X53870Y-39719D01*
X53925Y-39641D01*
X53964Y-39554D01*
X53985Y-39461D01*
X53986Y-39352D01*
X53986Y-42076D01*
X53984Y-42074D01*
X53984Y-40370D01*
X53969Y-40276D01*
X53936Y-40188D01*
X53920Y-40157D01*
X53833Y-40138D01*
X53762Y-40209D01*
X53762Y-40067D01*
X53743Y-39980D01*
X53657Y-39940D01*
X53564Y-39918D01*
X53470Y-39916D01*
X53376Y-39931D01*
X53288Y-39964D01*
X53257Y-39980D01*
X53238Y-40067D01*
X53500Y-40329D01*
X53762Y-40067D01*
X53762Y-40209D01*
X53571Y-40400D01*
X53833Y-40662D01*
X53920Y-40643D01*
X53960Y-40557D01*
X53982Y-40464D01*
X53984Y-40370D01*
X53984Y-42074D01*
X53762Y-41852D01*
X53762Y-40733D01*
X53500Y-40471D01*
X53429Y-40542D01*
X53429Y-40400D01*
X53167Y-40138D01*
X53080Y-40157D01*
X53040Y-40243D01*
X53018Y-40336D01*
X53016Y-40430D01*
X53031Y-40524D01*
X53064Y-40612D01*
X53080Y-40643D01*
X53167Y-40662D01*
X53429Y-40400D01*
X53429Y-40542D01*
X53238Y-40733D01*
X53257Y-40820D01*
X53343Y-40860D01*
X53436Y-40882D01*
X53530Y-40884D01*
X53624Y-40869D01*
X53712Y-40836D01*
X53743Y-40820D01*
X53762Y-40733D01*
X53762Y-41852D01*
X53707Y-41797D01*
X53705Y-41795D01*
X53697Y-41788D01*
X53664Y-41761D01*
X53614Y-41733D01*
X53611Y-41732D01*
X53606Y-41730D01*
X53560Y-41716D01*
X53504Y-41710D01*
X53501Y-41710D01*
X53500Y-41710D01*
X51371Y-41710D01*
X51405Y-41634D01*
X51424Y-41553D01*
X51425Y-41458D01*
X51409Y-41376D01*
X51377Y-41299D01*
X51331Y-41230D01*
X51290Y-41189D01*
X51290Y-38503D01*
X51290Y-38500D01*
X51288Y-38485D01*
X51285Y-38447D01*
X51284Y-38444D01*
X51269Y-38392D01*
X51268Y-38391D01*
X51268Y-38389D01*
X51254Y-38363D01*
X51243Y-38341D01*
X51242Y-38340D01*
X51208Y-38297D01*
X51206Y-38296D01*
X51205Y-38295D01*
X51107Y-38197D01*
X51105Y-38195D01*
X51097Y-38188D01*
X51064Y-38161D01*
X51014Y-38133D01*
X51011Y-38132D01*
X51006Y-38130D01*
X50960Y-38116D01*
X50904Y-38110D01*
X50901Y-38110D01*
X50900Y-38110D01*
X49890Y-38110D01*
X49878Y-38091D01*
X49811Y-38023D01*
X49732Y-37970D01*
X49644Y-37933D01*
X49551Y-37914D01*
X49455Y-37914D01*
X49362Y-37932D01*
X49273Y-37967D01*
X49194Y-38020D01*
X49126Y-38086D01*
X49072Y-38165D01*
X49034Y-38253D01*
X49015Y-38346D01*
X49013Y-38441D01*
X49031Y-38535D01*
X49066Y-38624D01*
X49117Y-38704D01*
X49184Y-38772D01*
X49262Y-38826D01*
X49349Y-38865D01*
X49443Y-38885D01*
X49538Y-38887D01*
X49632Y-38870D01*
X49721Y-38836D01*
X49801Y-38785D01*
X49870Y-38719D01*
X49890Y-38690D01*
X50710Y-38690D01*
X50710Y-39300D01*
X50707Y-39297D01*
X50706Y-39296D01*
X50697Y-39289D01*
X50664Y-39261D01*
X50662Y-39260D01*
X50614Y-39233D01*
X50560Y-39216D01*
X50504Y-39210D01*
X50502Y-39210D01*
X50500Y-39210D01*
X49947Y-39210D01*
X49931Y-39170D01*
X49878Y-39091D01*
X49811Y-39023D01*
X49732Y-38970D01*
X49644Y-38933D01*
X49551Y-38914D01*
X49455Y-38914D01*
X49362Y-38932D01*
X49273Y-38967D01*
X49194Y-39020D01*
X49126Y-39086D01*
X49072Y-39165D01*
X49034Y-39253D01*
X49015Y-39346D01*
X49013Y-39441D01*
X49031Y-39535D01*
X49066Y-39624D01*
X49117Y-39704D01*
X49184Y-39772D01*
X49262Y-39826D01*
X49349Y-39865D01*
X49443Y-39885D01*
X49538Y-39887D01*
X49591Y-39877D01*
X49582Y-39920D01*
X49551Y-39914D01*
X49455Y-39914D01*
X49362Y-39932D01*
X49273Y-39967D01*
X49194Y-40020D01*
X49126Y-40086D01*
X49072Y-40165D01*
X49034Y-40253D01*
X49015Y-40346D01*
X49013Y-40441D01*
X49031Y-40535D01*
X49066Y-40624D01*
X49117Y-40704D01*
X49184Y-40772D01*
X49262Y-40826D01*
X49349Y-40865D01*
X49443Y-40885D01*
X49538Y-40887D01*
X49632Y-40870D01*
X49721Y-40836D01*
X49801Y-40785D01*
X49870Y-40719D01*
X49925Y-40641D01*
X49964Y-40554D01*
X49985Y-40461D01*
X49985Y-40425D01*
X49985Y-40424D01*
X50033Y-40426D01*
X50115Y-40411D01*
X50193Y-40381D01*
X50210Y-40370D01*
X50210Y-41300D01*
X50207Y-41297D01*
X50206Y-41296D01*
X50197Y-41289D01*
X50164Y-41261D01*
X50162Y-41260D01*
X50114Y-41233D01*
X50060Y-41216D01*
X50004Y-41210D01*
X50002Y-41210D01*
X50000Y-41210D01*
X48790Y-41210D01*
X48790Y-37690D01*
X49108Y-37690D01*
X49117Y-37704D01*
X49184Y-37772D01*
X49262Y-37826D01*
X49349Y-37865D01*
X49443Y-37885D01*
X49538Y-37887D01*
X49632Y-37870D01*
X49721Y-37836D01*
X49801Y-37785D01*
X49870Y-37719D01*
X49925Y-37641D01*
X49964Y-37554D01*
X49985Y-37461D01*
X49986Y-37352D01*
X49967Y-37259D01*
X49931Y-37170D01*
X49878Y-37091D01*
X49811Y-37023D01*
X49732Y-36970D01*
X49644Y-36933D01*
X49551Y-36914D01*
X49455Y-36914D01*
X49362Y-36932D01*
X49273Y-36967D01*
X49194Y-37020D01*
X49126Y-37086D01*
X49109Y-37110D01*
X48603Y-37110D01*
X48600Y-37110D01*
X48585Y-37111D01*
X48547Y-37115D01*
X48492Y-37131D01*
X48491Y-37131D01*
X48489Y-37132D01*
X48463Y-37145D01*
X48441Y-37157D01*
X48397Y-37192D01*
X48395Y-37195D01*
X48297Y-37293D01*
X48295Y-37295D01*
X48288Y-37302D01*
X48261Y-37336D01*
X48233Y-37386D01*
X48232Y-37388D01*
X48232Y-37389D01*
X48230Y-37393D01*
X48216Y-37440D01*
X48210Y-37496D01*
X48210Y-37499D01*
X48210Y-37500D01*
X48210Y-41498D01*
X48210Y-41500D01*
X48211Y-41510D01*
X48215Y-41554D01*
X48231Y-41609D01*
X48231Y-41610D01*
X48232Y-41611D01*
X48234Y-41614D01*
X48257Y-41659D01*
X48258Y-41660D01*
X48293Y-41703D01*
X48294Y-41704D01*
X48302Y-41711D01*
X48336Y-41739D01*
X48338Y-41740D01*
X48386Y-41767D01*
X48388Y-41767D01*
X48440Y-41784D01*
X48442Y-41784D01*
X48496Y-41790D01*
X48498Y-41790D01*
X48500Y-41790D01*
X49710Y-41790D01*
X49710Y-42998D01*
X49710Y-43000D01*
X49711Y-43010D01*
X49715Y-43054D01*
X49731Y-43109D01*
X49731Y-43110D01*
X49732Y-43111D01*
X49734Y-43114D01*
X49757Y-43159D01*
X49758Y-43160D01*
X49793Y-43203D01*
X49794Y-43204D01*
X49802Y-43211D01*
X49836Y-43239D01*
X49838Y-43240D01*
X49886Y-43267D01*
X49888Y-43267D01*
X49940Y-43284D01*
X49942Y-43284D01*
X49996Y-43290D01*
X49998Y-43290D01*
X50000Y-43290D01*
X52880Y-43290D01*
X53710Y-44120D01*
X53710Y-49843D01*
X53425Y-49694D01*
X53425Y-45458D01*
X53409Y-45376D01*
X53377Y-45299D01*
X53331Y-45230D01*
X53272Y-45171D01*
X53203Y-45124D01*
X53126Y-45092D01*
X53044Y-45075D01*
X52961Y-45075D01*
X52879Y-45090D01*
X52802Y-45122D01*
X52732Y-45167D01*
X52673Y-45226D01*
X52626Y-45295D01*
X52593Y-45371D01*
X52576Y-45453D01*
X52574Y-45536D01*
X52590Y-45618D01*
X52620Y-45696D01*
X52666Y-45766D01*
X52723Y-45825D01*
X52792Y-45873D01*
X52868Y-45906D01*
X52950Y-45924D01*
X53033Y-45926D01*
X53115Y-45911D01*
X53193Y-45881D01*
X53263Y-45836D01*
X53324Y-45779D01*
X53371Y-45711D01*
X53405Y-45634D01*
X53424Y-45553D01*
X53425Y-45458D01*
X53425Y-49694D01*
X52604Y-49265D01*
X51425Y-48317D01*
X51425Y-45458D01*
X51409Y-45376D01*
X51377Y-45299D01*
X51331Y-45230D01*
X51272Y-45171D01*
X51203Y-45124D01*
X51126Y-45092D01*
X51044Y-45075D01*
X50961Y-45075D01*
X50879Y-45090D01*
X50802Y-45122D01*
X50732Y-45167D01*
X50673Y-45226D01*
X50626Y-45295D01*
X50593Y-45371D01*
X50576Y-45453D01*
X50574Y-45536D01*
X50590Y-45618D01*
X50620Y-45696D01*
X50666Y-45766D01*
X50723Y-45825D01*
X50792Y-45873D01*
X50868Y-45906D01*
X50950Y-45924D01*
X51033Y-45926D01*
X51115Y-45911D01*
X51193Y-45881D01*
X51263Y-45836D01*
X51324Y-45779D01*
X51371Y-45711D01*
X51405Y-45634D01*
X51424Y-45553D01*
X51425Y-45458D01*
X51425Y-48317D01*
X50835Y-47843D01*
X49366Y-46093D01*
X48270Y-44098D01*
X47581Y-41927D01*
X47327Y-39664D01*
X47518Y-37390D01*
X48145Y-35205D01*
X49187Y-33177D01*
X50601Y-31391D01*
X52335Y-29915D01*
X54323Y-28804D01*
X56495Y-28098D01*
X58752Y-27829D01*
X61033Y-28005D01*
X63220Y-28616D01*
X65256Y-29644D01*
X67047Y-31043D01*
X68538Y-32771D01*
X69665Y-34753D01*
X70383Y-36912D01*
X70670Y-39182D01*
X70674Y-39481D01*
X70674Y-39481D01*
G37*
G54D19*
X70674Y-39481D02*
X70451Y-41767D01*
X69792Y-43949D01*
X68721Y-45961D01*
X67790Y-47104D01*
X67790Y-46936D01*
X67824Y-46915D01*
X67898Y-46844D01*
X67958Y-46760D01*
X67999Y-46667D01*
X68022Y-46566D01*
X68024Y-46449D01*
X68004Y-46348D01*
X67965Y-46253D01*
X67908Y-46168D01*
X67836Y-46095D01*
X67751Y-46037D01*
X67656Y-45997D01*
X67555Y-45976D01*
X67453Y-45976D01*
X67352Y-45995D01*
X67256Y-46033D01*
X67170Y-46089D01*
X67097Y-46161D01*
X67039Y-46246D01*
X66998Y-46340D01*
X66977Y-46441D01*
X66975Y-46544D01*
X66994Y-46645D01*
X67032Y-46740D01*
X67087Y-46827D01*
X67158Y-46901D01*
X67210Y-46936D01*
X67210Y-47210D01*
X64120Y-47210D01*
X63207Y-46297D01*
X63205Y-46295D01*
X63197Y-46288D01*
X63164Y-46261D01*
X63114Y-46233D01*
X63111Y-46232D01*
X63106Y-46230D01*
X63060Y-46216D01*
X63004Y-46210D01*
X63001Y-46210D01*
X63000Y-46210D01*
X62966Y-46210D01*
X62927Y-46151D01*
X62852Y-46075D01*
X62762Y-46015D01*
X62727Y-46000D01*
X62749Y-45992D01*
X62840Y-45935D01*
X62918Y-45860D01*
X62967Y-45790D01*
X63380Y-45790D01*
X63986Y-46396D01*
X63977Y-46441D01*
X63975Y-46544D01*
X63994Y-46645D01*
X64032Y-46740D01*
X64087Y-46827D01*
X64158Y-46901D01*
X64243Y-46959D01*
X64337Y-47001D01*
X64437Y-47023D01*
X64540Y-47025D01*
X64641Y-47007D01*
X64737Y-46970D01*
X64824Y-46915D01*
X64898Y-46844D01*
X64958Y-46760D01*
X64999Y-46667D01*
X65022Y-46566D01*
X65024Y-46449D01*
X65004Y-46348D01*
X64965Y-46253D01*
X64908Y-46168D01*
X64836Y-46095D01*
X64751Y-46037D01*
X64656Y-45997D01*
X64555Y-45976D01*
X64453Y-45976D01*
X64396Y-45986D01*
X63707Y-45297D01*
X63705Y-45295D01*
X63698Y-45290D01*
X66998Y-45290D01*
X67000Y-45290D01*
X67010Y-45288D01*
X67054Y-45285D01*
X67056Y-45284D01*
X67109Y-45269D01*
X67110Y-45268D01*
X67111Y-45268D01*
X67114Y-45266D01*
X67159Y-45243D01*
X67160Y-45242D01*
X67203Y-45207D01*
X67203Y-45206D01*
X67204Y-45206D01*
X67211Y-45197D01*
X67239Y-45164D01*
X67240Y-45162D01*
X67267Y-45114D01*
X67267Y-45112D01*
X67284Y-45060D01*
X67284Y-45058D01*
X67290Y-45004D01*
X67290Y-45002D01*
X67290Y-45000D01*
X67290Y-44025D01*
X67371Y-43974D01*
X67456Y-43893D01*
X67523Y-43797D01*
X67526Y-43790D01*
X68998Y-43790D01*
X69000Y-43790D01*
X69010Y-43788D01*
X69054Y-43785D01*
X69056Y-43784D01*
X69109Y-43769D01*
X69110Y-43768D01*
X69111Y-43768D01*
X69114Y-43766D01*
X69159Y-43743D01*
X69160Y-43742D01*
X69203Y-43707D01*
X69203Y-43706D01*
X69204Y-43706D01*
X69211Y-43697D01*
X69239Y-43664D01*
X69240Y-43662D01*
X69267Y-43614D01*
X69267Y-43612D01*
X69284Y-43560D01*
X69284Y-43558D01*
X69290Y-43504D01*
X69290Y-43502D01*
X69290Y-43500D01*
X69290Y-34502D01*
X69290Y-34500D01*
X69288Y-34490D01*
X69285Y-34446D01*
X69284Y-34444D01*
X69269Y-34391D01*
X69268Y-34389D01*
X69266Y-34385D01*
X69243Y-34341D01*
X69242Y-34340D01*
X69207Y-34297D01*
X69206Y-34296D01*
X69197Y-34289D01*
X69164Y-34261D01*
X69162Y-34260D01*
X69114Y-34233D01*
X69060Y-34216D01*
X69004Y-34210D01*
X69002Y-34210D01*
X69000Y-34210D01*
X66120Y-34210D01*
X64707Y-32797D01*
X64705Y-32795D01*
X64697Y-32788D01*
X64664Y-32761D01*
X64614Y-32733D01*
X64611Y-32732D01*
X64606Y-32730D01*
X64560Y-32716D01*
X64504Y-32710D01*
X64501Y-32710D01*
X64500Y-32710D01*
X61291Y-32710D01*
X61290Y-32708D01*
X61290Y-32502D01*
X61290Y-32500D01*
X61288Y-32490D01*
X61285Y-32446D01*
X61284Y-32444D01*
X61269Y-32391D01*
X61268Y-32389D01*
X61266Y-32385D01*
X61243Y-32341D01*
X61242Y-32340D01*
X61207Y-32297D01*
X61206Y-32296D01*
X61197Y-32289D01*
X61164Y-32261D01*
X61162Y-32260D01*
X61114Y-32233D01*
X61060Y-32216D01*
X61004Y-32210D01*
X61002Y-32210D01*
X61000Y-32210D01*
X58002Y-32210D01*
X58000Y-32210D01*
X57990Y-32211D01*
X57946Y-32215D01*
X57891Y-32231D01*
X57889Y-32231D01*
X57889Y-32232D01*
X57885Y-32234D01*
X57841Y-32257D01*
X57797Y-32293D01*
X57796Y-32293D01*
X57796Y-32294D01*
X57789Y-32302D01*
X57761Y-32336D01*
X57733Y-32386D01*
X57716Y-32440D01*
X57710Y-32496D01*
X57710Y-32498D01*
X57710Y-32500D01*
X57710Y-32709D01*
X57694Y-32720D01*
X57626Y-32786D01*
X57572Y-32865D01*
X57534Y-32953D01*
X57515Y-33046D01*
X57513Y-33141D01*
X57531Y-33235D01*
X57566Y-33324D01*
X57617Y-33404D01*
X57684Y-33472D01*
X57762Y-33526D01*
X57849Y-33565D01*
X57943Y-33585D01*
X58038Y-33587D01*
X58132Y-33570D01*
X58221Y-33536D01*
X58301Y-33485D01*
X58370Y-33419D01*
X58425Y-33341D01*
X58464Y-33254D01*
X58485Y-33161D01*
X58486Y-33052D01*
X58467Y-32959D01*
X58431Y-32870D01*
X58378Y-32791D01*
X58377Y-32790D01*
X58623Y-32790D01*
X58572Y-32865D01*
X58534Y-32953D01*
X58515Y-33046D01*
X58513Y-33141D01*
X58531Y-33235D01*
X58566Y-33324D01*
X58617Y-33404D01*
X58684Y-33472D01*
X58762Y-33526D01*
X58849Y-33565D01*
X58943Y-33585D01*
X59038Y-33587D01*
X59132Y-33570D01*
X59221Y-33536D01*
X59301Y-33485D01*
X59370Y-33419D01*
X59425Y-33341D01*
X59464Y-33254D01*
X59485Y-33161D01*
X59486Y-33052D01*
X59467Y-32959D01*
X59431Y-32870D01*
X59378Y-32791D01*
X59377Y-32790D01*
X59623Y-32790D01*
X59572Y-32865D01*
X59534Y-32953D01*
X59515Y-33046D01*
X59513Y-33141D01*
X59531Y-33235D01*
X59566Y-33324D01*
X59617Y-33404D01*
X59684Y-33472D01*
X59762Y-33526D01*
X59849Y-33565D01*
X59943Y-33585D01*
X60038Y-33587D01*
X60132Y-33570D01*
X60221Y-33536D01*
X60301Y-33485D01*
X60370Y-33419D01*
X60425Y-33341D01*
X60464Y-33254D01*
X60485Y-33161D01*
X60486Y-33052D01*
X60467Y-32959D01*
X60431Y-32870D01*
X60378Y-32791D01*
X60377Y-32790D01*
X60623Y-32790D01*
X60572Y-32865D01*
X60534Y-32953D01*
X60515Y-33046D01*
X60513Y-33141D01*
X60531Y-33235D01*
X60566Y-33324D01*
X60617Y-33404D01*
X60684Y-33472D01*
X60762Y-33526D01*
X60849Y-33565D01*
X60943Y-33585D01*
X61038Y-33587D01*
X61132Y-33570D01*
X61221Y-33536D01*
X61301Y-33485D01*
X61370Y-33419D01*
X61425Y-33341D01*
X61447Y-33290D01*
X64380Y-33290D01*
X65793Y-34703D01*
X65795Y-34705D01*
X65802Y-34711D01*
X65836Y-34739D01*
X65839Y-34740D01*
X65886Y-34767D01*
X65888Y-34767D01*
X65889Y-34768D01*
X65893Y-34769D01*
X65940Y-34784D01*
X65942Y-34784D01*
X65996Y-34790D01*
X65998Y-34790D01*
X66000Y-34790D01*
X68710Y-34790D01*
X68710Y-43210D01*
X67526Y-43210D01*
X67466Y-43119D01*
X67383Y-43036D01*
X67286Y-42970D01*
X67178Y-42925D01*
X67063Y-42901D01*
X66945Y-42901D01*
X66830Y-42923D01*
X66721Y-42967D01*
X66623Y-43031D01*
X66586Y-43066D01*
X66572Y-43033D01*
X66545Y-42992D01*
X66510Y-42957D01*
X66470Y-42929D01*
X66425Y-42910D01*
X66377Y-42900D01*
X66328Y-42900D01*
X65626Y-42900D01*
X65578Y-42909D01*
X65533Y-42928D01*
X65492Y-42955D01*
X65457Y-42990D01*
X65429Y-43030D01*
X65414Y-43063D01*
X65355Y-43004D01*
X65325Y-43033D01*
X65310Y-42987D01*
X65205Y-42937D01*
X65092Y-42907D01*
X64975Y-42901D01*
X64860Y-42917D01*
X64750Y-42956D01*
X64690Y-42987D01*
X64657Y-43086D01*
X64965Y-43394D01*
X65000Y-43429D01*
X65071Y-43500D01*
X65000Y-43571D01*
X64965Y-43606D01*
X64929Y-43642D01*
X64929Y-43500D01*
X64586Y-43157D01*
X64487Y-43190D01*
X64437Y-43295D01*
X64407Y-43408D01*
X64401Y-43525D01*
X64417Y-43640D01*
X64456Y-43750D01*
X64487Y-43810D01*
X64586Y-43843D01*
X64929Y-43500D01*
X64929Y-43642D01*
X64657Y-43914D01*
X64690Y-44013D01*
X64795Y-44063D01*
X64908Y-44093D01*
X65025Y-44099D01*
X65140Y-44083D01*
X65250Y-44044D01*
X65310Y-44013D01*
X65325Y-43966D01*
X65343Y-43984D01*
X65355Y-43996D01*
X65414Y-43936D01*
X65428Y-43967D01*
X65455Y-44008D01*
X65490Y-44043D01*
X65530Y-44071D01*
X65575Y-44090D01*
X65623Y-44100D01*
X65672Y-44100D01*
X65710Y-44100D01*
X65710Y-44210D01*
X65343Y-44210D01*
X63790Y-44210D01*
X63790Y-43310D01*
X63824Y-43279D01*
X63871Y-43211D01*
X63905Y-43134D01*
X63924Y-43053D01*
X63925Y-42958D01*
X63909Y-42876D01*
X63877Y-42799D01*
X63831Y-42730D01*
X63772Y-42671D01*
X63703Y-42624D01*
X63626Y-42592D01*
X63544Y-42575D01*
X63461Y-42575D01*
X63379Y-42590D01*
X63302Y-42622D01*
X63290Y-42629D01*
X63290Y-42502D01*
X63290Y-42500D01*
X63288Y-42490D01*
X63285Y-42446D01*
X63284Y-42444D01*
X63269Y-42391D01*
X63268Y-42389D01*
X63266Y-42385D01*
X63243Y-42341D01*
X63242Y-42340D01*
X63207Y-42297D01*
X63206Y-42296D01*
X63197Y-42289D01*
X63164Y-42261D01*
X63162Y-42260D01*
X63114Y-42233D01*
X63060Y-42216D01*
X63004Y-42210D01*
X63002Y-42210D01*
X63000Y-42210D01*
X62966Y-42210D01*
X62927Y-42151D01*
X62852Y-42075D01*
X62762Y-42015D01*
X62727Y-42000D01*
X62749Y-41992D01*
X62840Y-41935D01*
X62918Y-41860D01*
X62980Y-41772D01*
X63024Y-41674D01*
X63047Y-41569D01*
X63049Y-41446D01*
X63028Y-41340D01*
X62987Y-41241D01*
X62927Y-41151D01*
X62852Y-41075D01*
X62762Y-41015D01*
X62727Y-41000D01*
X62749Y-40992D01*
X62840Y-40935D01*
X62918Y-40860D01*
X62980Y-40772D01*
X63024Y-40674D01*
X63047Y-40569D01*
X63049Y-40446D01*
X63049Y-39473D01*
X63049Y-38446D01*
X63028Y-38340D01*
X62987Y-38241D01*
X62927Y-38151D01*
X62852Y-38075D01*
X62762Y-38015D01*
X62727Y-38000D01*
X62749Y-37992D01*
X62840Y-37935D01*
X62918Y-37860D01*
X62980Y-37772D01*
X63024Y-37674D01*
X63047Y-37569D01*
X63049Y-37446D01*
X63028Y-37340D01*
X62987Y-37241D01*
X62927Y-37151D01*
X62852Y-37075D01*
X62762Y-37015D01*
X62727Y-37000D01*
X62749Y-36992D01*
X62840Y-36935D01*
X62918Y-36860D01*
X62980Y-36772D01*
X63024Y-36674D01*
X63047Y-36569D01*
X63049Y-36446D01*
X63028Y-36340D01*
X62987Y-36241D01*
X62927Y-36151D01*
X62852Y-36075D01*
X62762Y-36015D01*
X62663Y-35973D01*
X62557Y-35951D01*
X62549Y-35951D01*
X62549Y-35446D01*
X62528Y-35340D01*
X62487Y-35241D01*
X62427Y-35151D01*
X62352Y-35075D01*
X62262Y-35015D01*
X62163Y-34973D01*
X62057Y-34951D01*
X61950Y-34951D01*
X61844Y-34971D01*
X61744Y-35011D01*
X61654Y-35070D01*
X61577Y-35146D01*
X61517Y-35234D01*
X61500Y-35272D01*
X61487Y-35241D01*
X61427Y-35151D01*
X61352Y-35075D01*
X61262Y-35015D01*
X61163Y-34973D01*
X61057Y-34951D01*
X60950Y-34951D01*
X60844Y-34971D01*
X60744Y-35011D01*
X60654Y-35070D01*
X60577Y-35146D01*
X60517Y-35234D01*
X60500Y-35272D01*
X60487Y-35241D01*
X60427Y-35151D01*
X60352Y-35075D01*
X60262Y-35015D01*
X60163Y-34973D01*
X60057Y-34951D01*
X59950Y-34951D01*
X59844Y-34971D01*
X59744Y-35011D01*
X59654Y-35070D01*
X59577Y-35146D01*
X59517Y-35234D01*
X59500Y-35272D01*
X59487Y-35241D01*
X59427Y-35151D01*
X59352Y-35075D01*
X59262Y-35015D01*
X59163Y-34973D01*
X59057Y-34951D01*
X58950Y-34951D01*
X58844Y-34971D01*
X58744Y-35011D01*
X58654Y-35070D01*
X58577Y-35146D01*
X58517Y-35234D01*
X58500Y-35272D01*
X58487Y-35241D01*
X58427Y-35151D01*
X58352Y-35075D01*
X58262Y-35015D01*
X58163Y-34973D01*
X58057Y-34951D01*
X57950Y-34951D01*
X57844Y-34971D01*
X57744Y-35011D01*
X57654Y-35070D01*
X57577Y-35146D01*
X57517Y-35234D01*
X57500Y-35272D01*
X57487Y-35241D01*
X57427Y-35151D01*
X57352Y-35075D01*
X57262Y-35015D01*
X57163Y-34973D01*
X57057Y-34951D01*
X56950Y-34951D01*
X56844Y-34971D01*
X56744Y-35011D01*
X56654Y-35070D01*
X56577Y-35146D01*
X56517Y-35234D01*
X56474Y-35333D01*
X56452Y-35439D01*
X56450Y-35546D01*
X56470Y-35652D01*
X56509Y-35752D01*
X56568Y-35843D01*
X56643Y-35920D01*
X56731Y-35982D01*
X56830Y-36025D01*
X56935Y-36048D01*
X57042Y-36050D01*
X57149Y-36031D01*
X57249Y-35992D01*
X57340Y-35935D01*
X57418Y-35860D01*
X57480Y-35772D01*
X57499Y-35728D01*
X57509Y-35752D01*
X57568Y-35843D01*
X57643Y-35920D01*
X57731Y-35982D01*
X57830Y-36025D01*
X57935Y-36048D01*
X58042Y-36050D01*
X58149Y-36031D01*
X58249Y-35992D01*
X58340Y-35935D01*
X58418Y-35860D01*
X58480Y-35772D01*
X58499Y-35728D01*
X58509Y-35752D01*
X58568Y-35843D01*
X58643Y-35920D01*
X58731Y-35982D01*
X58830Y-36025D01*
X58935Y-36048D01*
X59042Y-36050D01*
X59149Y-36031D01*
X59249Y-35992D01*
X59340Y-35935D01*
X59418Y-35860D01*
X59480Y-35772D01*
X59499Y-35728D01*
X59509Y-35752D01*
X59568Y-35843D01*
X59643Y-35920D01*
X59731Y-35982D01*
X59830Y-36025D01*
X59935Y-36048D01*
X60042Y-36050D01*
X60149Y-36031D01*
X60249Y-35992D01*
X60340Y-35935D01*
X60418Y-35860D01*
X60480Y-35772D01*
X60499Y-35728D01*
X60509Y-35752D01*
X60568Y-35843D01*
X60643Y-35920D01*
X60731Y-35982D01*
X60830Y-36025D01*
X60935Y-36048D01*
X61042Y-36050D01*
X61149Y-36031D01*
X61249Y-35992D01*
X61340Y-35935D01*
X61418Y-35860D01*
X61480Y-35772D01*
X61499Y-35728D01*
X61509Y-35752D01*
X61568Y-35843D01*
X61643Y-35920D01*
X61731Y-35982D01*
X61830Y-36025D01*
X61935Y-36048D01*
X62042Y-36050D01*
X62149Y-36031D01*
X62249Y-35992D01*
X62340Y-35935D01*
X62418Y-35860D01*
X62480Y-35772D01*
X62524Y-35674D01*
X62547Y-35569D01*
X62549Y-35446D01*
X62549Y-35951D01*
X62450Y-35951D01*
X62344Y-35971D01*
X62244Y-36011D01*
X62154Y-36070D01*
X62077Y-36146D01*
X62017Y-36234D01*
X61974Y-36333D01*
X61952Y-36439D01*
X61950Y-36546D01*
X61970Y-36652D01*
X62009Y-36752D01*
X62068Y-36843D01*
X62143Y-36920D01*
X62231Y-36982D01*
X62271Y-36999D01*
X62244Y-37011D01*
X62154Y-37070D01*
X62077Y-37146D01*
X62017Y-37234D01*
X61974Y-37333D01*
X61952Y-37439D01*
X61950Y-37546D01*
X61970Y-37652D01*
X62009Y-37752D01*
X62068Y-37843D01*
X62143Y-37920D01*
X62231Y-37982D01*
X62271Y-37999D01*
X62244Y-38011D01*
X62154Y-38070D01*
X62077Y-38146D01*
X62017Y-38234D01*
X61974Y-38333D01*
X61952Y-38439D01*
X61950Y-38546D01*
X61970Y-38652D01*
X62009Y-38752D01*
X62068Y-38843D01*
X62143Y-38920D01*
X62231Y-38982D01*
X62273Y-39000D01*
X62266Y-39003D01*
X62219Y-39028D01*
X62192Y-39122D01*
X62500Y-39429D01*
X62808Y-39122D01*
X62781Y-39028D01*
X62724Y-39001D01*
X62749Y-38992D01*
X62840Y-38935D01*
X62918Y-38860D01*
X62980Y-38772D01*
X63024Y-38674D01*
X63047Y-38569D01*
X63049Y-38446D01*
X63049Y-39473D01*
X63033Y-39367D01*
X62997Y-39266D01*
X62972Y-39219D01*
X62878Y-39192D01*
X62571Y-39500D01*
X62878Y-39808D01*
X62972Y-39781D01*
X63018Y-39684D01*
X63044Y-39580D01*
X63049Y-39473D01*
X63049Y-40446D01*
X63028Y-40340D01*
X62987Y-40241D01*
X62927Y-40151D01*
X62852Y-40075D01*
X62762Y-40015D01*
X62726Y-39999D01*
X62734Y-39997D01*
X62781Y-39972D01*
X62808Y-39878D01*
X62500Y-39571D01*
X62429Y-39641D01*
X62429Y-39500D01*
X62122Y-39192D01*
X62028Y-39219D01*
X61982Y-39316D01*
X61956Y-39420D01*
X61951Y-39527D01*
X61967Y-39633D01*
X62003Y-39734D01*
X62028Y-39781D01*
X62122Y-39808D01*
X62429Y-39500D01*
X62429Y-39641D01*
X62192Y-39878D01*
X62219Y-39972D01*
X62275Y-39998D01*
X62244Y-40011D01*
X62154Y-40070D01*
X62077Y-40146D01*
X62017Y-40234D01*
X61974Y-40333D01*
X61952Y-40439D01*
X61950Y-40546D01*
X61970Y-40652D01*
X62009Y-40752D01*
X62068Y-40843D01*
X62143Y-40920D01*
X62231Y-40982D01*
X62271Y-40999D01*
X62244Y-41011D01*
X62154Y-41070D01*
X62077Y-41146D01*
X62017Y-41234D01*
X61974Y-41333D01*
X61952Y-41439D01*
X61950Y-41546D01*
X61970Y-41652D01*
X62009Y-41752D01*
X62068Y-41843D01*
X62143Y-41920D01*
X62231Y-41982D01*
X62271Y-41999D01*
X62244Y-42011D01*
X62154Y-42070D01*
X62077Y-42146D01*
X62017Y-42234D01*
X61974Y-42333D01*
X61952Y-42439D01*
X61950Y-42546D01*
X61970Y-42652D01*
X62009Y-42752D01*
X62068Y-42843D01*
X62143Y-42920D01*
X62231Y-42982D01*
X62271Y-42999D01*
X62244Y-43011D01*
X62154Y-43070D01*
X62077Y-43146D01*
X62017Y-43234D01*
X61974Y-43333D01*
X61952Y-43439D01*
X61950Y-43546D01*
X61970Y-43652D01*
X62009Y-43752D01*
X62068Y-43843D01*
X62143Y-43920D01*
X62231Y-43982D01*
X62271Y-43999D01*
X62244Y-44011D01*
X62154Y-44070D01*
X62077Y-44146D01*
X62017Y-44234D01*
X61974Y-44333D01*
X61952Y-44439D01*
X61950Y-44546D01*
X61970Y-44652D01*
X62009Y-44752D01*
X62068Y-44843D01*
X62143Y-44920D01*
X62231Y-44982D01*
X62271Y-44999D01*
X62244Y-45011D01*
X62154Y-45070D01*
X62077Y-45146D01*
X62017Y-45234D01*
X61974Y-45333D01*
X61952Y-45439D01*
X61950Y-45546D01*
X61970Y-45652D01*
X62009Y-45752D01*
X62068Y-45843D01*
X62143Y-45920D01*
X62231Y-45982D01*
X62271Y-45999D01*
X62244Y-46011D01*
X62154Y-46070D01*
X62077Y-46146D01*
X62017Y-46234D01*
X61974Y-46333D01*
X61952Y-46439D01*
X61950Y-46546D01*
X61970Y-46652D01*
X62009Y-46752D01*
X62068Y-46843D01*
X62143Y-46920D01*
X62231Y-46982D01*
X62271Y-46999D01*
X62244Y-47011D01*
X62154Y-47070D01*
X62077Y-47146D01*
X62017Y-47234D01*
X61974Y-47333D01*
X61952Y-47439D01*
X61950Y-47546D01*
X61970Y-47652D01*
X62009Y-47752D01*
X62068Y-47843D01*
X62143Y-47920D01*
X62231Y-47982D01*
X62330Y-48025D01*
X62435Y-48048D01*
X62542Y-48050D01*
X62649Y-48031D01*
X62749Y-47992D01*
X62840Y-47935D01*
X62918Y-47860D01*
X62980Y-47772D01*
X63024Y-47674D01*
X63047Y-47569D01*
X63049Y-47446D01*
X63028Y-47340D01*
X62987Y-47241D01*
X62927Y-47151D01*
X62852Y-47075D01*
X62762Y-47015D01*
X62727Y-47000D01*
X62749Y-46992D01*
X62840Y-46935D01*
X62918Y-46860D01*
X62931Y-46841D01*
X63710Y-47620D01*
X63710Y-48710D01*
X57049Y-48710D01*
X57049Y-47446D01*
X57028Y-47340D01*
X56987Y-47241D01*
X56927Y-47151D01*
X56852Y-47075D01*
X56762Y-47015D01*
X56727Y-47000D01*
X56749Y-46992D01*
X56840Y-46935D01*
X56918Y-46860D01*
X56980Y-46772D01*
X57024Y-46674D01*
X57047Y-46569D01*
X57049Y-46446D01*
X57028Y-46340D01*
X56987Y-46241D01*
X56927Y-46151D01*
X56852Y-46075D01*
X56762Y-46015D01*
X56727Y-46000D01*
X56749Y-45992D01*
X56840Y-45935D01*
X56918Y-45860D01*
X56980Y-45772D01*
X57024Y-45674D01*
X57047Y-45569D01*
X57049Y-45446D01*
X57028Y-45340D01*
X56987Y-45241D01*
X56927Y-45151D01*
X56852Y-45075D01*
X56762Y-45015D01*
X56727Y-45000D01*
X56749Y-44992D01*
X56840Y-44935D01*
X56918Y-44860D01*
X56980Y-44772D01*
X57024Y-44674D01*
X57047Y-44569D01*
X57049Y-44446D01*
X57028Y-44340D01*
X56987Y-44241D01*
X56927Y-44151D01*
X56852Y-44075D01*
X56762Y-44015D01*
X56727Y-44000D01*
X56749Y-43992D01*
X56840Y-43935D01*
X56918Y-43860D01*
X56980Y-43772D01*
X57024Y-43674D01*
X57047Y-43569D01*
X57049Y-43446D01*
X57028Y-43340D01*
X56987Y-43241D01*
X56927Y-43151D01*
X56852Y-43075D01*
X56762Y-43015D01*
X56727Y-43000D01*
X56749Y-42992D01*
X56840Y-42935D01*
X56918Y-42860D01*
X56980Y-42772D01*
X57024Y-42674D01*
X57047Y-42569D01*
X57049Y-42446D01*
X57028Y-42340D01*
X56987Y-42241D01*
X56927Y-42151D01*
X56852Y-42075D01*
X56762Y-42015D01*
X56727Y-42000D01*
X56749Y-41992D01*
X56840Y-41935D01*
X56918Y-41860D01*
X56980Y-41772D01*
X57024Y-41674D01*
X57047Y-41569D01*
X57049Y-41446D01*
X57028Y-41340D01*
X56987Y-41241D01*
X56927Y-41151D01*
X56852Y-41075D01*
X56762Y-41015D01*
X56727Y-41000D01*
X56749Y-40992D01*
X56840Y-40935D01*
X56918Y-40860D01*
X56980Y-40772D01*
X57024Y-40674D01*
X57047Y-40569D01*
X57049Y-40446D01*
X57028Y-40340D01*
X56987Y-40241D01*
X56927Y-40151D01*
X56852Y-40075D01*
X56762Y-40015D01*
X56727Y-40000D01*
X56749Y-39992D01*
X56840Y-39935D01*
X56918Y-39860D01*
X56980Y-39772D01*
X57024Y-39674D01*
X57047Y-39569D01*
X57049Y-39446D01*
X57028Y-39340D01*
X56987Y-39241D01*
X56927Y-39151D01*
X56852Y-39075D01*
X56762Y-39015D01*
X56727Y-39000D01*
X56749Y-38992D01*
X56840Y-38935D01*
X56918Y-38860D01*
X56980Y-38772D01*
X57024Y-38674D01*
X57047Y-38569D01*
X57049Y-38446D01*
X57028Y-38340D01*
X56987Y-38241D01*
X56927Y-38151D01*
X56852Y-38075D01*
X56762Y-38015D01*
X56727Y-38000D01*
X56749Y-37992D01*
X56840Y-37935D01*
X56918Y-37860D01*
X56980Y-37772D01*
X57024Y-37674D01*
X57047Y-37569D01*
X57049Y-37446D01*
X57028Y-37340D01*
X56987Y-37241D01*
X56927Y-37151D01*
X56852Y-37075D01*
X56762Y-37015D01*
X56727Y-37000D01*
X56749Y-36992D01*
X56840Y-36935D01*
X56918Y-36860D01*
X56980Y-36772D01*
X57024Y-36674D01*
X57047Y-36569D01*
X57049Y-36446D01*
X57028Y-36340D01*
X56987Y-36241D01*
X56927Y-36151D01*
X56852Y-36075D01*
X56762Y-36015D01*
X56663Y-35973D01*
X56557Y-35951D01*
X56450Y-35951D01*
X56344Y-35971D01*
X56244Y-36011D01*
X56154Y-36070D01*
X56077Y-36146D01*
X56017Y-36234D01*
X55974Y-36333D01*
X55952Y-36439D01*
X55950Y-36546D01*
X55970Y-36652D01*
X56009Y-36752D01*
X56068Y-36843D01*
X56143Y-36920D01*
X56231Y-36982D01*
X56271Y-36999D01*
X56244Y-37011D01*
X56154Y-37070D01*
X56077Y-37146D01*
X56017Y-37234D01*
X55974Y-37333D01*
X55952Y-37439D01*
X55950Y-37546D01*
X55970Y-37652D01*
X56009Y-37752D01*
X56068Y-37843D01*
X56143Y-37920D01*
X56231Y-37982D01*
X56271Y-37999D01*
X56244Y-38011D01*
X56154Y-38070D01*
X56077Y-38146D01*
X56017Y-38234D01*
X55974Y-38333D01*
X55952Y-38439D01*
X55950Y-38546D01*
X55970Y-38652D01*
X56009Y-38752D01*
X56068Y-38843D01*
X56143Y-38920D01*
X56231Y-38982D01*
X56271Y-38999D01*
X56244Y-39011D01*
X56154Y-39070D01*
X56077Y-39146D01*
X56017Y-39234D01*
X55974Y-39333D01*
X55952Y-39439D01*
X55950Y-39546D01*
X55970Y-39652D01*
X56009Y-39752D01*
X56068Y-39843D01*
X56143Y-39920D01*
X56231Y-39982D01*
X56271Y-39999D01*
X56244Y-40011D01*
X56154Y-40070D01*
X56077Y-40146D01*
X56017Y-40234D01*
X55974Y-40333D01*
X55952Y-40439D01*
X55950Y-40546D01*
X55970Y-40652D01*
X56009Y-40752D01*
X56068Y-40843D01*
X56143Y-40920D01*
X56231Y-40982D01*
X56271Y-40999D01*
X56244Y-41011D01*
X56154Y-41070D01*
X56077Y-41146D01*
X56017Y-41234D01*
X55974Y-41333D01*
X55952Y-41439D01*
X55950Y-41546D01*
X55970Y-41652D01*
X56009Y-41752D01*
X56068Y-41843D01*
X56143Y-41920D01*
X56231Y-41982D01*
X56271Y-41999D01*
X56244Y-42011D01*
X56154Y-42070D01*
X56077Y-42146D01*
X56017Y-42234D01*
X55974Y-42333D01*
X55952Y-42439D01*
X55950Y-42546D01*
X55970Y-42652D01*
X56009Y-42752D01*
X56068Y-42843D01*
X56143Y-42920D01*
X56231Y-42982D01*
X56271Y-42999D01*
X56244Y-43011D01*
X56154Y-43070D01*
X56077Y-43146D01*
X56017Y-43234D01*
X55974Y-43333D01*
X55952Y-43439D01*
X55950Y-43546D01*
X55970Y-43652D01*
X56009Y-43752D01*
X56068Y-43843D01*
X56143Y-43920D01*
X56231Y-43982D01*
X56271Y-43999D01*
X56244Y-44011D01*
X56154Y-44070D01*
X56077Y-44146D01*
X56017Y-44234D01*
X55974Y-44333D01*
X55952Y-44439D01*
X55950Y-44546D01*
X55970Y-44652D01*
X56009Y-44752D01*
X56068Y-44843D01*
X56143Y-44920D01*
X56231Y-44982D01*
X56271Y-44999D01*
X56244Y-45011D01*
X56154Y-45070D01*
X56077Y-45146D01*
X56017Y-45234D01*
X55974Y-45333D01*
X55952Y-45439D01*
X55950Y-45546D01*
X55970Y-45652D01*
X56009Y-45752D01*
X56068Y-45843D01*
X56143Y-45920D01*
X56231Y-45982D01*
X56271Y-45999D01*
X56244Y-46011D01*
X56154Y-46070D01*
X56077Y-46146D01*
X56017Y-46234D01*
X55974Y-46333D01*
X55952Y-46439D01*
X55950Y-46546D01*
X55970Y-46652D01*
X56009Y-46752D01*
X56068Y-46843D01*
X56143Y-46920D01*
X56231Y-46982D01*
X56271Y-46999D01*
X56244Y-47011D01*
X56154Y-47070D01*
X56077Y-47146D01*
X56017Y-47234D01*
X55974Y-47333D01*
X55952Y-47439D01*
X55950Y-47546D01*
X55970Y-47652D01*
X56009Y-47752D01*
X56068Y-47843D01*
X56143Y-47920D01*
X56231Y-47982D01*
X56330Y-48025D01*
X56435Y-48048D01*
X56542Y-48050D01*
X56649Y-48031D01*
X56749Y-47992D01*
X56840Y-47935D01*
X56918Y-47860D01*
X56980Y-47772D01*
X57024Y-47674D01*
X57047Y-47569D01*
X57049Y-47446D01*
X57049Y-48710D01*
X55290Y-48710D01*
X55290Y-43503D01*
X55290Y-43500D01*
X55288Y-43485D01*
X55285Y-43447D01*
X55284Y-43444D01*
X55269Y-43392D01*
X55268Y-43391D01*
X55268Y-43389D01*
X55254Y-43363D01*
X55243Y-43341D01*
X55242Y-43340D01*
X55208Y-43298D01*
X55206Y-43296D01*
X55205Y-43295D01*
X53986Y-42076D01*
X53986Y-39352D01*
X53986Y-38352D01*
X53986Y-37352D01*
X53967Y-37259D01*
X53931Y-37170D01*
X53878Y-37091D01*
X53811Y-37023D01*
X53732Y-36970D01*
X53644Y-36933D01*
X53551Y-36914D01*
X53455Y-36914D01*
X53362Y-36932D01*
X53273Y-36967D01*
X53194Y-37020D01*
X53126Y-37086D01*
X53072Y-37165D01*
X53034Y-37253D01*
X53015Y-37346D01*
X53013Y-37441D01*
X53031Y-37535D01*
X53066Y-37624D01*
X53117Y-37704D01*
X53184Y-37772D01*
X53262Y-37826D01*
X53349Y-37865D01*
X53443Y-37885D01*
X53538Y-37887D01*
X53632Y-37870D01*
X53721Y-37836D01*
X53801Y-37785D01*
X53870Y-37719D01*
X53925Y-37641D01*
X53964Y-37554D01*
X53985Y-37461D01*
X53986Y-37352D01*
X53986Y-38352D01*
X53967Y-38259D01*
X53931Y-38170D01*
X53878Y-38091D01*
X53811Y-38023D01*
X53732Y-37970D01*
X53644Y-37933D01*
X53551Y-37914D01*
X53455Y-37914D01*
X53362Y-37932D01*
X53347Y-37937D01*
X53207Y-37797D01*
X53205Y-37795D01*
X53197Y-37788D01*
X53164Y-37761D01*
X53114Y-37733D01*
X53111Y-37732D01*
X53106Y-37730D01*
X53060Y-37716D01*
X53004Y-37710D01*
X53001Y-37710D01*
X53000Y-37710D01*
X51790Y-37710D01*
X51790Y-35936D01*
X51824Y-35915D01*
X51898Y-35844D01*
X51958Y-35760D01*
X51999Y-35667D01*
X52000Y-35660D01*
X52032Y-35740D01*
X52087Y-35827D01*
X52158Y-35901D01*
X52243Y-35959D01*
X52337Y-36001D01*
X52437Y-36023D01*
X52540Y-36025D01*
X52641Y-36007D01*
X52737Y-35970D01*
X52824Y-35915D01*
X52898Y-35844D01*
X52958Y-35760D01*
X52999Y-35667D01*
X53022Y-35566D01*
X53024Y-35449D01*
X53004Y-35348D01*
X52965Y-35253D01*
X52908Y-35168D01*
X52836Y-35095D01*
X52751Y-35037D01*
X52656Y-34997D01*
X52555Y-34976D01*
X52453Y-34976D01*
X52352Y-34995D01*
X52256Y-35033D01*
X52170Y-35089D01*
X52097Y-35161D01*
X52039Y-35246D01*
X51999Y-35336D01*
X51965Y-35253D01*
X51908Y-35168D01*
X51836Y-35095D01*
X51751Y-35037D01*
X51656Y-34997D01*
X51555Y-34976D01*
X51453Y-34976D01*
X51425Y-34981D01*
X51425Y-32958D01*
X51409Y-32876D01*
X51377Y-32799D01*
X51331Y-32730D01*
X51272Y-32671D01*
X51203Y-32624D01*
X51126Y-32592D01*
X51044Y-32575D01*
X50961Y-32575D01*
X50879Y-32590D01*
X50802Y-32622D01*
X50732Y-32667D01*
X50673Y-32726D01*
X50626Y-32795D01*
X50593Y-32871D01*
X50576Y-32953D01*
X50574Y-33036D01*
X50590Y-33118D01*
X50620Y-33196D01*
X50666Y-33266D01*
X50723Y-33325D01*
X50792Y-33373D01*
X50868Y-33406D01*
X50950Y-33424D01*
X51033Y-33426D01*
X51115Y-33411D01*
X51193Y-33381D01*
X51263Y-33336D01*
X51324Y-33279D01*
X51371Y-33211D01*
X51405Y-33134D01*
X51424Y-33053D01*
X51425Y-32958D01*
X51425Y-34981D01*
X51352Y-34995D01*
X51256Y-35033D01*
X51170Y-35089D01*
X51097Y-35161D01*
X51039Y-35246D01*
X51025Y-35278D01*
X51025Y-35201D01*
X51016Y-35153D01*
X50997Y-35108D01*
X50970Y-35067D01*
X50935Y-35032D01*
X50895Y-35004D01*
X50850Y-34985D01*
X50802Y-34975D01*
X50753Y-34975D01*
X50201Y-34975D01*
X50153Y-34984D01*
X50108Y-35003D01*
X50067Y-35030D01*
X50032Y-35065D01*
X50004Y-35105D01*
X49985Y-35150D01*
X49975Y-35198D01*
X49975Y-35247D01*
X49975Y-35799D01*
X49984Y-35847D01*
X50003Y-35892D01*
X50030Y-35933D01*
X50065Y-35968D01*
X50105Y-35996D01*
X50150Y-36015D01*
X50198Y-36025D01*
X50247Y-36025D01*
X50799Y-36025D01*
X50847Y-36016D01*
X50892Y-35997D01*
X50933Y-35970D01*
X50968Y-35935D01*
X50996Y-35895D01*
X51015Y-35850D01*
X51025Y-35802D01*
X51025Y-35753D01*
X51025Y-35722D01*
X51032Y-35740D01*
X51087Y-35827D01*
X51158Y-35901D01*
X51210Y-35936D01*
X51210Y-37998D01*
X51210Y-38000D01*
X51211Y-38010D01*
X51215Y-38054D01*
X51231Y-38109D01*
X51231Y-38110D01*
X51232Y-38111D01*
X51234Y-38114D01*
X51257Y-38159D01*
X51258Y-38160D01*
X51293Y-38203D01*
X51294Y-38204D01*
X51302Y-38211D01*
X51336Y-38239D01*
X51338Y-38240D01*
X51386Y-38267D01*
X51388Y-38267D01*
X51440Y-38284D01*
X51442Y-38284D01*
X51496Y-38290D01*
X51498Y-38290D01*
X51500Y-38290D01*
X52879Y-38290D01*
X53013Y-38423D01*
X53013Y-38441D01*
X53031Y-38535D01*
X53066Y-38624D01*
X53117Y-38704D01*
X53184Y-38772D01*
X53262Y-38826D01*
X53349Y-38865D01*
X53443Y-38885D01*
X53538Y-38887D01*
X53632Y-38870D01*
X53721Y-38836D01*
X53801Y-38785D01*
X53870Y-38719D01*
X53925Y-38641D01*
X53964Y-38554D01*
X53985Y-38461D01*
X53986Y-38352D01*
X53986Y-39352D01*
X53967Y-39259D01*
X53931Y-39170D01*
X53878Y-39091D01*
X53811Y-39023D01*
X53732Y-38970D01*
X53644Y-38933D01*
X53551Y-38914D01*
X53455Y-38914D01*
X53362Y-38932D01*
X53273Y-38967D01*
X53194Y-39020D01*
X53126Y-39086D01*
X53072Y-39165D01*
X53034Y-39253D01*
X53015Y-39346D01*
X53013Y-39441D01*
X53031Y-39535D01*
X53066Y-39624D01*
X53117Y-39704D01*
X53184Y-39772D01*
X53262Y-39826D01*
X53349Y-39865D01*
X53443Y-39885D01*
X53538Y-39887D01*
X53632Y-39870D01*
X53721Y-39836D01*
X53801Y-39785D01*
X53870Y-39719D01*
X53925Y-39641D01*
X53964Y-39554D01*
X53985Y-39461D01*
X53986Y-39352D01*
X53986Y-42076D01*
X53984Y-42074D01*
X53984Y-40370D01*
X53969Y-40276D01*
X53936Y-40188D01*
X53920Y-40157D01*
X53833Y-40138D01*
X53762Y-40209D01*
X53762Y-40067D01*
X53743Y-39980D01*
X53657Y-39940D01*
X53564Y-39918D01*
X53470Y-39916D01*
X53376Y-39931D01*
X53288Y-39964D01*
X53257Y-39980D01*
X53238Y-40067D01*
X53500Y-40329D01*
X53762Y-40067D01*
X53762Y-40209D01*
X53571Y-40400D01*
X53833Y-40662D01*
X53920Y-40643D01*
X53960Y-40557D01*
X53982Y-40464D01*
X53984Y-40370D01*
X53984Y-42074D01*
X53762Y-41852D01*
X53762Y-40733D01*
X53500Y-40471D01*
X53429Y-40542D01*
X53429Y-40400D01*
X53167Y-40138D01*
X53080Y-40157D01*
X53040Y-40243D01*
X53018Y-40336D01*
X53016Y-40430D01*
X53031Y-40524D01*
X53064Y-40612D01*
X53080Y-40643D01*
X53167Y-40662D01*
X53429Y-40400D01*
X53429Y-40542D01*
X53238Y-40733D01*
X53257Y-40820D01*
X53343Y-40860D01*
X53436Y-40882D01*
X53530Y-40884D01*
X53624Y-40869D01*
X53712Y-40836D01*
X53743Y-40820D01*
X53762Y-40733D01*
X53762Y-41852D01*
X53707Y-41797D01*
X53705Y-41795D01*
X53697Y-41788D01*
X53664Y-41761D01*
X53614Y-41733D01*
X53611Y-41732D01*
X53606Y-41730D01*
X53560Y-41716D01*
X53504Y-41710D01*
X53501Y-41710D01*
X53500Y-41710D01*
X51371Y-41710D01*
X51405Y-41634D01*
X51424Y-41553D01*
X51425Y-41458D01*
X51409Y-41376D01*
X51377Y-41299D01*
X51331Y-41230D01*
X51290Y-41189D01*
X51290Y-38503D01*
X51290Y-38500D01*
X51288Y-38485D01*
X51285Y-38447D01*
X51284Y-38444D01*
X51269Y-38392D01*
X51268Y-38391D01*
X51268Y-38389D01*
X51254Y-38363D01*
X51243Y-38341D01*
X51242Y-38340D01*
X51208Y-38297D01*
X51206Y-38296D01*
X51205Y-38295D01*
X51107Y-38197D01*
X51105Y-38195D01*
X51097Y-38188D01*
X51064Y-38161D01*
X51014Y-38133D01*
X51011Y-38132D01*
X51006Y-38130D01*
X50960Y-38116D01*
X50904Y-38110D01*
X50901Y-38110D01*
X50900Y-38110D01*
X49890Y-38110D01*
X49878Y-38091D01*
X49811Y-38023D01*
X49732Y-37970D01*
X49644Y-37933D01*
X49551Y-37914D01*
X49455Y-37914D01*
X49362Y-37932D01*
X49273Y-37967D01*
X49194Y-38020D01*
X49126Y-38086D01*
X49072Y-38165D01*
X49034Y-38253D01*
X49015Y-38346D01*
X49013Y-38441D01*
X49031Y-38535D01*
X49066Y-38624D01*
X49117Y-38704D01*
X49184Y-38772D01*
X49262Y-38826D01*
X49349Y-38865D01*
X49443Y-38885D01*
X49538Y-38887D01*
X49632Y-38870D01*
X49721Y-38836D01*
X49801Y-38785D01*
X49870Y-38719D01*
X49890Y-38690D01*
X50710Y-38690D01*
X50710Y-39300D01*
X50707Y-39297D01*
X50706Y-39296D01*
X50697Y-39289D01*
X50664Y-39261D01*
X50662Y-39260D01*
X50614Y-39233D01*
X50560Y-39216D01*
X50504Y-39210D01*
X50502Y-39210D01*
X50500Y-39210D01*
X49947Y-39210D01*
X49931Y-39170D01*
X49878Y-39091D01*
X49811Y-39023D01*
X49732Y-38970D01*
X49644Y-38933D01*
X49551Y-38914D01*
X49455Y-38914D01*
X49362Y-38932D01*
X49273Y-38967D01*
X49194Y-39020D01*
X49126Y-39086D01*
X49072Y-39165D01*
X49034Y-39253D01*
X49015Y-39346D01*
X49013Y-39441D01*
X49031Y-39535D01*
X49066Y-39624D01*
X49117Y-39704D01*
X49184Y-39772D01*
X49262Y-39826D01*
X49349Y-39865D01*
X49443Y-39885D01*
X49538Y-39887D01*
X49591Y-39877D01*
X49582Y-39920D01*
X49551Y-39914D01*
X49455Y-39914D01*
X49362Y-39932D01*
X49273Y-39967D01*
X49194Y-40020D01*
X49126Y-40086D01*
X49072Y-40165D01*
X49034Y-40253D01*
X49015Y-40346D01*
X49013Y-40441D01*
X49031Y-40535D01*
X49066Y-40624D01*
X49117Y-40704D01*
X49184Y-40772D01*
X49262Y-40826D01*
X49349Y-40865D01*
X49443Y-40885D01*
X49538Y-40887D01*
X49632Y-40870D01*
X49721Y-40836D01*
X49801Y-40785D01*
X49870Y-40719D01*
X49925Y-40641D01*
X49964Y-40554D01*
X49985Y-40461D01*
X49985Y-40425D01*
X49985Y-40424D01*
X50033Y-40426D01*
X50115Y-40411D01*
X50193Y-40381D01*
X50210Y-40370D01*
X50210Y-41300D01*
X50207Y-41297D01*
X50206Y-41296D01*
X50197Y-41289D01*
X50164Y-41261D01*
X50162Y-41260D01*
X50114Y-41233D01*
X50060Y-41216D01*
X50004Y-41210D01*
X50002Y-41210D01*
X50000Y-41210D01*
X48790Y-41210D01*
X48790Y-37690D01*
X49108Y-37690D01*
X49117Y-37704D01*
X49184Y-37772D01*
X49262Y-37826D01*
X49349Y-37865D01*
X49443Y-37885D01*
X49538Y-37887D01*
X49632Y-37870D01*
X49721Y-37836D01*
X49801Y-37785D01*
X49870Y-37719D01*
X49925Y-37641D01*
X49964Y-37554D01*
X49985Y-37461D01*
X49986Y-37352D01*
X49967Y-37259D01*
X49931Y-37170D01*
X49878Y-37091D01*
X49811Y-37023D01*
X49732Y-36970D01*
X49644Y-36933D01*
X49551Y-36914D01*
X49455Y-36914D01*
X49362Y-36932D01*
X49273Y-36967D01*
X49194Y-37020D01*
X49126Y-37086D01*
X49109Y-37110D01*
X48603Y-37110D01*
X48600Y-37110D01*
X48585Y-37111D01*
X48547Y-37115D01*
X48492Y-37131D01*
X48491Y-37131D01*
X48489Y-37132D01*
X48463Y-37145D01*
X48441Y-37157D01*
X48397Y-37192D01*
X48395Y-37195D01*
X48297Y-37293D01*
X48295Y-37295D01*
X48288Y-37302D01*
X48261Y-37336D01*
X48233Y-37386D01*
X48232Y-37388D01*
X48232Y-37389D01*
X48230Y-37393D01*
X48216Y-37440D01*
X48210Y-37496D01*
X48210Y-37499D01*
X48210Y-37500D01*
X48210Y-41498D01*
X48210Y-41500D01*
X48211Y-41510D01*
X48215Y-41554D01*
X48231Y-41609D01*
X48231Y-41610D01*
X48232Y-41611D01*
X48234Y-41614D01*
X48257Y-41659D01*
X48258Y-41660D01*
X48293Y-41703D01*
X48294Y-41704D01*
X48302Y-41711D01*
X48336Y-41739D01*
X48338Y-41740D01*
X48386Y-41767D01*
X48388Y-41767D01*
X48440Y-41784D01*
X48442Y-41784D01*
X48496Y-41790D01*
X48498Y-41790D01*
X48500Y-41790D01*
X49710Y-41790D01*
X49710Y-42998D01*
X49710Y-43000D01*
X49711Y-43010D01*
X49715Y-43054D01*
X49731Y-43109D01*
X49731Y-43110D01*
X49732Y-43111D01*
X49734Y-43114D01*
X49757Y-43159D01*
X49758Y-43160D01*
X49793Y-43203D01*
X49794Y-43204D01*
X49802Y-43211D01*
X49836Y-43239D01*
X49838Y-43240D01*
X49886Y-43267D01*
X49888Y-43267D01*
X49940Y-43284D01*
X49942Y-43284D01*
X49996Y-43290D01*
X49998Y-43290D01*
X50000Y-43290D01*
X52880Y-43290D01*
X53710Y-44120D01*
X53710Y-49843D01*
X53425Y-49694D01*
X53425Y-45458D01*
X53409Y-45376D01*
X53377Y-45299D01*
X53331Y-45230D01*
X53272Y-45171D01*
X53203Y-45124D01*
X53126Y-45092D01*
X53044Y-45075D01*
X52961Y-45075D01*
X52879Y-45090D01*
X52802Y-45122D01*
X52732Y-45167D01*
X52673Y-45226D01*
X52626Y-45295D01*
X52593Y-45371D01*
X52576Y-45453D01*
X52574Y-45536D01*
X52590Y-45618D01*
X52620Y-45696D01*
X52666Y-45766D01*
X52723Y-45825D01*
X52792Y-45873D01*
X52868Y-45906D01*
X52950Y-45924D01*
X53033Y-45926D01*
X53115Y-45911D01*
X53193Y-45881D01*
X53263Y-45836D01*
X53324Y-45779D01*
X53371Y-45711D01*
X53405Y-45634D01*
X53424Y-45553D01*
X53425Y-45458D01*
X53425Y-49694D01*
X52604Y-49265D01*
X51425Y-48317D01*
X51425Y-45458D01*
X51409Y-45376D01*
X51377Y-45299D01*
X51331Y-45230D01*
X51272Y-45171D01*
X51203Y-45124D01*
X51126Y-45092D01*
X51044Y-45075D01*
X50961Y-45075D01*
X50879Y-45090D01*
X50802Y-45122D01*
X50732Y-45167D01*
X50673Y-45226D01*
X50626Y-45295D01*
X50593Y-45371D01*
X50576Y-45453D01*
X50574Y-45536D01*
X50590Y-45618D01*
X50620Y-45696D01*
X50666Y-45766D01*
X50723Y-45825D01*
X50792Y-45873D01*
X50868Y-45906D01*
X50950Y-45924D01*
X51033Y-45926D01*
X51115Y-45911D01*
X51193Y-45881D01*
X51263Y-45836D01*
X51324Y-45779D01*
X51371Y-45711D01*
X51405Y-45634D01*
X51424Y-45553D01*
X51425Y-45458D01*
X51425Y-48317D01*
X50835Y-47843D01*
X49366Y-46093D01*
X48270Y-44098D01*
X47581Y-41927D01*
X47327Y-39664D01*
X47518Y-37390D01*
X48145Y-35205D01*
X49187Y-33177D01*
X50601Y-31391D01*
X52335Y-29915D01*
X54323Y-28804D01*
X56495Y-28098D01*
X58752Y-27829D01*
X61033Y-28005D01*
X63220Y-28616D01*
X65256Y-29644D01*
X67047Y-31043D01*
X68538Y-32771D01*
X69665Y-34753D01*
X70383Y-36912D01*
X70670Y-39182D01*
X70674Y-39481D01*
M02*
