G04 (created by PCBNEW-RS274X (2012-apr-16-27)-stable) date Tue 24 Jun 2014 04:12:54 AM EDT*
G01*
G70*
G90*
%MOIN*%
G04 Gerber Fmt 3.4, Leading zero omitted, Abs format*
%FSLAX34Y34*%
G04 APERTURE LIST*
%ADD10C,0.006000*%
%ADD11C,0.012000*%
%ADD12C,0.067200*%
%ADD13C,0.090000*%
%ADD14R,0.090000X0.090000*%
%ADD15C,0.080000*%
%ADD16C,0.075000*%
%ADD17R,0.075000X0.075000*%
G04 APERTURE END LIST*
G54D10*
G54D11*
X51134Y-31790D02*
X51068Y-32324D01*
X50796Y-31790D02*
X50744Y-32210D01*
X50772Y-32286D01*
X50843Y-32324D01*
X50955Y-32324D01*
X51034Y-32286D01*
X51077Y-32248D01*
X51433Y-31790D02*
X51555Y-32324D01*
X51808Y-31790D01*
X51845Y-32400D02*
X52445Y-32400D01*
X52596Y-31790D02*
X52896Y-31790D01*
X52742Y-31524D02*
X52656Y-32210D01*
X52684Y-32286D01*
X52755Y-32324D01*
X52830Y-32324D01*
X53430Y-32324D02*
X53482Y-31905D01*
X53453Y-31829D01*
X53383Y-31790D01*
X53233Y-31790D01*
X53153Y-31829D01*
X53434Y-32286D02*
X53355Y-32324D01*
X53167Y-32324D01*
X53096Y-32286D01*
X53069Y-32210D01*
X53078Y-32133D01*
X53125Y-32057D01*
X53205Y-32019D01*
X53393Y-32019D01*
X53472Y-31981D01*
X53771Y-32286D02*
X53842Y-32324D01*
X53992Y-32324D01*
X54071Y-32286D01*
X54118Y-32210D01*
X54123Y-32171D01*
X54095Y-32095D01*
X54025Y-32057D01*
X53912Y-32057D01*
X53842Y-32019D01*
X53814Y-31943D01*
X53819Y-31905D01*
X53865Y-31829D01*
X53945Y-31790D01*
X54058Y-31790D01*
X54128Y-31829D01*
X54395Y-31790D02*
X54695Y-31790D01*
X54541Y-31524D02*
X54455Y-32210D01*
X54483Y-32286D01*
X54554Y-32324D01*
X54629Y-32324D01*
X55195Y-32286D02*
X55116Y-32324D01*
X54966Y-32324D01*
X54895Y-32286D01*
X54868Y-32210D01*
X54906Y-31905D01*
X54952Y-31829D01*
X55032Y-31790D01*
X55182Y-31790D01*
X55252Y-31829D01*
X55281Y-31905D01*
X55271Y-31981D01*
X54887Y-32057D01*
X64207Y-31949D02*
X64507Y-31949D01*
X64319Y-32378D02*
X64319Y-31827D01*
X64357Y-31765D01*
X64432Y-31735D01*
X64507Y-31735D01*
X64769Y-32378D02*
X64769Y-31949D01*
X64769Y-31735D02*
X64732Y-31765D01*
X64769Y-31796D01*
X64807Y-31765D01*
X64769Y-31735D01*
X64769Y-31796D01*
X65144Y-32378D02*
X65144Y-31949D01*
X65144Y-31735D02*
X65107Y-31765D01*
X65144Y-31796D01*
X65182Y-31765D01*
X65144Y-31735D01*
X65144Y-31796D01*
X65519Y-32317D02*
X65557Y-32347D01*
X65519Y-32378D01*
X65482Y-32347D01*
X65519Y-32317D01*
X65519Y-32378D01*
X65782Y-31949D02*
X66082Y-31949D01*
X65894Y-31735D02*
X65894Y-32286D01*
X65932Y-32347D01*
X66007Y-32378D01*
X66082Y-32378D01*
X66457Y-32378D02*
X66382Y-32347D01*
X66344Y-32317D01*
X66307Y-32255D01*
X66307Y-32072D01*
X66344Y-32010D01*
X66382Y-31980D01*
X66457Y-31949D01*
X66569Y-31949D01*
X66644Y-31980D01*
X66682Y-32010D01*
X66719Y-32072D01*
X66719Y-32255D01*
X66682Y-32317D01*
X66644Y-32347D01*
X66569Y-32378D01*
X66457Y-32378D01*
G54D12*
X53500Y-40400D03*
X53500Y-39400D03*
X53500Y-38400D03*
X53500Y-37400D03*
X49500Y-37400D03*
X49500Y-38400D03*
X49500Y-39400D03*
X49500Y-40400D03*
G54D13*
X65000Y-43500D03*
G54D14*
X66000Y-43500D03*
G54D13*
X67000Y-43500D03*
G54D15*
X56500Y-47500D03*
X62500Y-43500D03*
X62500Y-42500D03*
X56500Y-42500D03*
X56500Y-43500D03*
X62500Y-46500D03*
X62500Y-45500D03*
X62500Y-44500D03*
X56500Y-44500D03*
X56500Y-45500D03*
X56500Y-46500D03*
X62500Y-41500D03*
X62500Y-40500D03*
X62500Y-39500D03*
X56500Y-39500D03*
X56500Y-40500D03*
X56500Y-41500D03*
X62500Y-38500D03*
X62500Y-37500D03*
X62500Y-36500D03*
X57000Y-35500D03*
X58000Y-35500D03*
X59000Y-35500D03*
X60000Y-35500D03*
X61000Y-35500D03*
X62000Y-35500D03*
X56500Y-36500D03*
X56500Y-37500D03*
X56500Y-38500D03*
X62500Y-47500D03*
G54D16*
X64500Y-46500D03*
X67500Y-46500D03*
G54D17*
X50500Y-35500D03*
G54D16*
X51500Y-35500D03*
X52500Y-35500D03*
G54D12*
X58000Y-33100D03*
X59000Y-33100D03*
X60000Y-33100D03*
X61000Y-33100D03*
M02*
